<?xml version="1.0" encoding="utf-8"?>
<!-- Generator: Adobe Illustrator 25.2.0, SVG Export Plug-In . SVG Version: 6.00 Build 0)  -->
<svg version="1.1" id="Layer_1" xmlns="http://www.w3.org/2000/svg" xmlns:xlink="http://www.w3.org/1999/xlink" x="0px" y="0px"
	 viewBox="0 0 1400 250" style="enable-background:new 0 0 1400 250;" xml:space="preserve">
<style type="text/css">
	.st0{clip-path:url(#SVGID_2_);}
	.st1{fill:#FFFFFF;filter:url(#Adobe_OpacityMaskFilter);}
	.st2{mask:url(#mask0_12_346_1_);}
	.st3{fill:#00D0C4;stroke:#FFFFFF;}
	.st4{fill:#FFFFFF;}
	.st5{fill:#171717;}
	.st6{fill-rule:evenodd;clip-rule:evenodd;fill:#171717;}
	.st7{clip-path:url(#SVGID_4_);}
	.st8{fill:#FFFFFF;filter:url(#Adobe_OpacityMaskFilter_1_);}
	.st9{mask:url(#mask1_12_346_1_);}
	.st10{fill:#9A00D0;stroke:#FFFFFF;}
	.st11{clip-path:url(#SVGID_6_);}
	.st12{fill:#FFFFFF;filter:url(#Adobe_OpacityMaskFilter_2_);}
	.st13{mask:url(#mask2_12_346_1_);}
	.st14{fill:#002FA8;stroke:#FFFFFF;}
	.st15{clip-path:url(#SVGID_8_);}
	.st16{fill:#FFFFFF;filter:url(#Adobe_OpacityMaskFilter_3_);}
	.st17{mask:url(#mask3_12_346_1_);}
	.st18{fill:#008EDE;stroke:#FFFFFF;}
	.st19{clip-path:url(#SVGID_10_);}
	.st20{fill:#FFFFFF;filter:url(#Adobe_OpacityMaskFilter_4_);}
	.st21{mask:url(#mask4_12_346_1_);}
	.st22{fill:#76D200;stroke:#FFFFFF;}
	.st23{clip-path:url(#SVGID_12_);}
	.st24{fill:#FFFFFF;filter:url(#Adobe_OpacityMaskFilter_5_);}
	.st25{mask:url(#mask5_12_346_1_);}
	.st26{fill:#FBE41A;stroke:#FFFFFF;}
	.st27{clip-path:url(#SVGID_14_);}
	.st28{fill:#D00019;stroke:#FFFFFF;}
	.st29{clip-path:url(#SVGID_16_);}
	.st30{fill:#F49300;stroke:#FFFFFF;}
	.st31{clip-path:url(#SVGID_18_);}
	.st32{fill:#FFFFFF;filter:url(#Adobe_OpacityMaskFilter_6_);}
	.st33{mask:url(#mask6_12_346_1_);}
	.st34{fill:#D00089;stroke:#FFFFFF;}
</style>
<g>
	<defs>
		
			<rect id="SVGID_1_" x="1086.5" y="58.9" transform="matrix(0.1418 -0.9899 0.9899 0.1418 838.6659 1246.1216)" width="103" height="161"/>
	</defs>
	<clipPath id="SVGID_2_">
		<use xlink:href="#SVGID_1_"  style="overflow:visible;"/>
	</clipPath>
	<g class="st0">
		<defs>
			<filter id="Adobe_OpacityMaskFilter" filterUnits="userSpaceOnUse" x="1052.2" y="81.4" width="167.5" height="114.4">
				<feColorMatrix  type="matrix" values="1 0 0 0 0  0 1 0 0 0  0 0 1 0 0  0 0 0 1 0"/>
			</filter>
		</defs>
		<mask maskUnits="userSpaceOnUse" x="1052.2" y="81.4" width="167.5" height="114.4" id="mask0_12_346_1_">
			<path class="st1" d="M1225,99.8L1065.6,77L1051,179l159.4,22.8L1225,99.8z"/>
		</mask>
		<g class="st2">
			<path class="st3" d="M1131.7,191l0.5,0.1l0.1-0.5l2.2-15.5l9.8,1.4l0.5,0.1l0.1-0.5l3.9-27.5l0.1-0.5l-0.5-0.1l-9.8-1.4l8-56
				l0.1-0.5l-0.5-0.1l-56.3-8.1l-0.3,0l-0.2,0.3l-33.6,60.5l0,0.1l0,0.1l-2.9,20l-0.1,0.5l0.5,0.1l48.5,6.9l-2.2,15.5l-0.1,0.5
				l0.5,0.1L1131.7,191z M1110.3,110.4l-4.5,31.5l-14.5-2.1l18.2-29.5L1110.3,110.4z"/>
			<path class="st3" d="M1144.4,128.3l-0.4,0l-0.1,0.4l-3.2,22.6l-0.1,0.4l0.4,0.1l25.9,6.4l-1.3,9.1c-4.7-0.1-10.4-0.6-17.2-1.6
				c-6.6-0.9-14.7-3.3-24.3-7.1l-0.5-0.2l-0.2,0.5l-8,25.1l-0.1,0.4l0.4,0.2c11.3,4.4,22.7,7.4,34,9c5.6,0.8,11.2,1.3,16.8,1.6
				c5.6,0.4,10.7-0.2,15.5-1.6c4.7-1.5,8.7-4.1,11.9-7.8c3.4-3.9,5.6-9.5,6.6-16.8c0.8-5.7,0.2-10.8-1.8-15.1
				c-2-4.3-5.4-7.8-10.2-10.6l0-0.2c4.6-1.7,8.2-4.3,10.9-7.7c2.7-3.5,4.5-7.9,5.2-13.2c0.9-6.1,0.4-11-1.5-14.8
				c-1.8-3.7-4.6-6.7-8.1-8.8c-3.5-2.2-7.7-3.8-12.4-4.8c-4.6-1-9.3-1.8-14.1-2.5c-11.7-1.7-24.3-1.5-37.6,0.7l-0.4,0.1l0,0.4
				l0.7,23.6l0,0.5l0.5,0c10.7-0.7,19.5-0.5,26.3,0.4c3.5,0.5,6.5,1,8.9,1.6l0,0l0,0c2.2,0.4,4.1,0.8,5.5,1.2l-1.3,9.2L1144.4,128.3
				z"/>
			<path class="st4" d="M1152,129.8c6.6,0.9,12.6-3.6,13.6-10.2c0.9-6.6-3.6-12.6-10.2-13.6c-6.6-0.9-12.6,3.6-13.6,10.2
				C1140.9,122.8,1145.4,128.8,1152,129.8z"/>
			<path class="st5" d="M1156.5,126.4c4.4,0.6,8.4-2.4,9-6.8c0.6-4.4-2.4-8.4-6.8-9.1c-4.4-0.6-8.4,2.4-9.1,6.8
				C1149.1,121.7,1152.2,125.8,1156.5,126.4z"/>
			<path class="st4" d="M1162.4,117.1c0.8,0.1,1.6-0.5,1.7-1.3s-0.4-1.6-1.3-1.7c-0.8-0.1-1.6,0.5-1.7,1.3S1161.6,117,1162.4,117.1z
				"/>
			<path class="st4" d="M1176.7,133.3c6.6,0.9,12.6-3.6,13.6-10.2c0.9-6.6-3.6-12.6-10.2-13.6c-6.6-0.9-12.6,3.6-13.6,10.2
				C1165.6,126.3,1170.2,132.4,1176.7,133.3z"/>
			<path class="st5" d="M1181.3,129.9c4.4,0.6,8.4-2.4,9-6.8c0.6-4.4-2.4-8.4-6.8-9.1c-4.4-0.6-8.4,2.4-9.1,6.8
				C1173.9,125.3,1176.9,129.3,1181.3,129.9z"/>
			<path class="st4" d="M1187.1,120.7c0.8,0.1,1.6-0.5,1.7-1.3c0.1-0.8-0.5-1.6-1.3-1.7c-0.8-0.1-1.6,0.5-1.7,1.3
				C1185.8,119.8,1186.3,120.6,1187.1,120.7z"/>
			<path class="st6" d="M1160.9,126.3c0.5-0.4,1.2-0.3,1.6,0.2l2.2,2.9l2.9-2.2c0.5-0.4,1.2-0.3,1.6,0.2c0.4,0.5,0.3,1.2-0.2,1.6
				l-3.8,2.9c-0.5,0.4-1.2,0.3-1.6-0.2l-2.9-3.8C1160.3,127.4,1160.4,126.7,1160.9,126.3z"/>
			<path d="M1129.1,136.6c-2.7-0.4-5.4-1.2-8.1-2.4c-0.5-0.2-0.7-0.7-0.5-1.2c0.2-0.5,0.8-0.7,1.2-0.5c8.4,3.6,16,3.3,24.6-1
				c0.4-0.2,1,0,1.2,0.4c0.2,0.5,0,1-0.4,1.2C1140.8,136.3,1135,137.4,1129.1,136.6z"/>
			<path d="M1119.9,130.3c0.2-0.3,0.5-0.5,0.9-0.6c0.8-0.2,1.5,0.5,1.8,1.3c0.1,0.6,0.2,1.4,0.1,2c0,0.1,0,0.3-0.1,0.4
				c-0.4,1.2-1.7,1.8-3.8,1.1c-2.1-0.7-2.7-2-2.3-3.2C1116.9,129.9,1118.3,129.8,1119.9,130.3z"/>
			<path d="M1190.8,158.6c-0.4-0.1-0.8-0.1-1.2-0.2c-1-0.2-1.8-0.7-2.3-1.5c-2-3-0.5-9.5,0.3-13c0.2-0.7,0.3-1.2,0.3-1.5
				c0.1-0.5,0.5-0.9,1-0.8c0.5,0.1,0.8,0.5,0.8,1c-0.1,0.4-0.2,0.9-0.3,1.7c-0.6,2.8-2.1,9.3-0.5,11.6c0.3,0.4,0.6,0.6,1.1,0.7
				c13.7,2.4,22.1-3,25.5-16.4c0.1-0.5,0.6-0.8,1.1-0.7c0.5,0.1,0.8,0.6,0.7,1.1C1213.7,154.6,1204.8,160.6,1190.8,158.6z"/>
			<path d="M1215.4,137.3c-0.4-0.1-0.7,0-1,0.3c-0.6,0.5-0.7,1.5-0.1,2.2c0.4,0.5,0.9,1.1,1.4,1.4c0.1,0.1,0.2,0.2,0.4,0.2
				c1.2,0.5,2.5-0.1,3.3-2.2c0.8-2.1,0.2-3.4-0.9-3.9C1217.1,134.8,1216.1,135.8,1215.4,137.3z"/>
		</g>
	</g>
</g>
<g>
	<defs>
		
			<rect id="SVGID_3_" x="945.9" y="37" transform="matrix(6.958202e-02 -0.9976 0.9976 6.958202e-02 810.2617 1104.7697)" width="103" height="162"/>
	</defs>
	<clipPath id="SVGID_4_">
		<use xlink:href="#SVGID_3_"  style="overflow:visible;"/>
	</clipPath>
	<g class="st7">
		<defs>
			<filter id="Adobe_OpacityMaskFilter_1_" filterUnits="userSpaceOnUse" x="912.1" y="62.4" width="164.7" height="109.9">
				<feColorMatrix  type="matrix" values="1 0 0 0 0  0 1 0 0 0  0 0 1 0 0  0 0 0 1 0"/>
			</filter>
		</defs>
		<mask maskUnits="userSpaceOnUse" x="912.1" y="62.4" width="164.7" height="109.9" id="mask1_12_346_1_">
			<path class="st8" d="M1081.8,72.3L920.2,61L913,163.8l161.6,11.3L1081.8,72.3z"/>
		</mask>
		<g class="st9">
			<path class="st10" d="M937.7,101.9l-0.4,0l0,0.4l-1.6,22.7l0,0.5l0.4,0.1l26.2,4.5l-0.6,9.1c-4.7,0.3-10.5,0.2-17.2-0.3
				c-6.6-0.5-14.9-2.2-24.8-5.3l-0.5-0.2L919,134l-6.2,25.6l-0.1,0.5l0.5,0.1c11.6,3.5,23.1,5.7,34.5,6.5c5.6,0.4,11.2,0.5,16.8,0.4
				c5.6,0,10.7-1,15.3-2.8c4.6-1.8,8.4-4.7,11.3-8.7c3.1-4.1,4.8-9.9,5.4-17.2c0.4-5.8-0.6-10.8-2.9-14.9c-2.3-4.1-6-7.4-10.9-9.8
				l0-0.2c4.4-2,7.9-4.8,10.3-8.5c2.5-3.7,3.9-8.2,4.3-13.5c0.4-6.1-0.4-11-2.5-14.6c-2.1-3.6-5-6.3-8.7-8.2c-3.7-2-8-3.3-12.8-3.9
				c-4.7-0.6-9.4-1.1-14.2-1.5c-11.8-0.8-24.3,0.3-37.4,3.4l-0.4,0.1l0,0.4l2.4,23.5l0.1,0.5l0.5-0.1c10.7-1.5,19.4-1.9,26.2-1.5
				c3.5,0.2,6.5,0.6,9,0.9l0,0l0,0c2.3,0.3,4.1,0.5,5.6,0.8l-0.7,9.3L937.7,101.9z"/>
			<path class="st10" d="M1059.1,74.7l0-0.5l-0.5,0l-77.8-5.4l-0.6,0l0,0.5l0.4,28.1v0.5l0.5,0l37,2.1l-32.8,68.6l-0.3,0.7l0.7,0.1
				l35.5,2.5l0.3,0l0.2-0.3l35.8-76.9l0-0.1v-0.1L1059.1,74.7z"/>
			<path class="st4" d="M1004.9,111c6.6,0.5,12.3-4.5,12.8-11.1c0.5-6.6-4.5-12.3-11.1-12.8c-6.6-0.5-12.3,4.5-12.8,11.1
				C993.3,104.8,998.3,110.6,1004.9,111z"/>
			<path class="st5" d="M1009.2,107.3c4.4,0.3,8.2-3,8.5-7.4c0.3-4.4-3-8.2-7.4-8.5c-4.4-0.3-8.2,3-8.5,7.4
				C1001.4,103.2,1004.8,107,1009.2,107.3z"/>
			<path class="st4" d="M1014.3,97.6c0.8,0.1,1.5-0.6,1.6-1.4c0.1-0.8-0.6-1.5-1.4-1.6c-0.8-0.1-1.5,0.6-1.6,1.4
				C1012.9,96.9,1013.5,97.6,1014.3,97.6z"/>
			<path class="st4" d="M1029.8,112.8c6.6,0.5,12.4-4.5,12.8-11.1c0.5-6.6-4.5-12.3-11.1-12.8s-12.3,4.5-12.8,11.1
				C1018.2,106.6,1023.2,112.3,1029.8,112.8z"/>
			<path class="st5" d="M1034.1,109c4.4,0.3,8.2-3,8.5-7.4c0.3-4.4-3-8.2-7.4-8.5c-4.4-0.3-8.2,3-8.5,7.4
				C1026.4,104.9,1029.7,108.7,1034.1,109z"/>
			<path class="st4" d="M1039.3,99.4c0.8,0.1,1.5-0.6,1.6-1.4c0-0.8-0.6-1.5-1.4-1.6c-0.8-0.1-1.5,0.6-1.6,1.4
				C1037.8,98.6,1038.5,99.3,1039.3,99.4z"/>
			<path class="st6" d="M1013.5,106.9c0.5-0.4,1.2-0.4,1.6,0.1l2.4,2.8l2.8-2.4c0.5-0.4,1.2-0.4,1.6,0.1c0.4,0.5,0.4,1.2-0.1,1.6
				l-3.6,3.1c-0.5,0.4-1.2,0.4-1.6-0.1l-3.1-3.6C1013,108.1,1013.1,107.3,1013.5,106.9z"/>
			<path d="M1071.7,143.7c-0.1,0-0.2,0-0.3-0.1l-41.7-17.5c-0.5-0.2-0.7-0.7-0.5-1.2c0.2-0.5,0.7-0.7,1.2-0.5l41.7,17.5
				c0.5,0.2,0.7,0.7,0.5,1.2C1072.4,143.5,1072.1,143.7,1071.7,143.7z"/>
			<path d="M1074.5,141.5c0-0.4-0.1-0.7-0.3-1c-0.6-0.6-1.5-0.6-2.2,0c-0.5,0.4-1,0.9-1.3,1.5c-0.1,0.1-0.1,0.2-0.2,0.4
				c-0.4,1.2,0.3,2.5,2.4,3.1c2.1,0.7,3.4,0,3.8-1.2C1077.1,143,1076.1,142,1074.5,141.5z"/>
			<path d="M977.2,99.7c0.2-0.3,0.6-0.5,0.9-0.5c0.8-0.1,1.5,0.6,1.6,1.5c0.1,0.6,0.1,1.4,0,1.9c0,0.1,0,0.2-0.1,0.4
				c-0.5,1.1-1.9,1.6-3.9,0.7c-2-0.9-2.5-2.3-2-3.4C974.2,99,975.7,99,977.2,99.7z"/>
			<path d="M1013.3,116.3c-0.1,0-0.2,0-0.2,0l-35.7-12.8c-0.5-0.2-0.7-0.7-0.6-1.2c0.2-0.5,0.7-0.7,1.2-0.6l35.7,12.8
				c0.5,0.2,0.7,0.7,0.6,1.2C1014,116.1,1013.7,116.4,1013.3,116.3z"/>
		</g>
	</g>
</g>
<g>
	<defs>
		
			<rect id="SVGID_5_" x="782.5" y="36.5" transform="matrix(3.122759e-02 -0.9995 0.9995 3.122759e-02 701.508 936.767)" width="103" height="140"/>
	</defs>
	<clipPath id="SVGID_6_">
		<use xlink:href="#SVGID_5_"  style="overflow:visible;"/>
	</clipPath>
	<g class="st11">
		<defs>
			<filter id="Adobe_OpacityMaskFilter_2_" filterUnits="userSpaceOnUse" x="761.4" y="53" width="141.8" height="108.2">
				<feColorMatrix  type="matrix" values="1 0 0 0 0  0 1 0 0 0  0 0 1 0 0  0 0 0 1 0"/>
			</filter>
		</defs>
		<mask maskUnits="userSpaceOnUse" x="761.4" y="53" width="141.8" height="108.2" id="mask2_12_346_1_">
			<path class="st12" d="M905.6,57.2l-139.9-4.4l-3.2,103l139.9,4.4L905.6,57.2z"/>
		</mask>
		<g class="st13">
			<path class="st14" d="M784.7,93.1l-0.4,0l0,0.4l-0.7,22.8l0,0.5l0.4,0.1l26.4,3.5l-0.3,9.2c-4.7,0.4-10.5,0.6-17.2,0.3
				c-6.6-0.2-15-1.7-25-4.4l-0.5-0.1l-0.1,0.5l-5.2,25.8l-0.1,0.5l0.5,0.1c11.7,3.1,23.3,4.8,34.7,5.2c5.7,0.2,11.3,0.1,16.8-0.3
				c5.6-0.2,10.7-1.4,15.2-3.3c4.5-2,8.2-5,11-9.1c2.9-4.2,4.5-10,4.7-17.4c0.2-5.8-1-10.7-3.5-14.8c-2.5-4-6.2-7.1-11.3-9.4l0-0.2
				c4.3-2.2,7.7-5.1,10-8.9c2.3-3.8,3.6-8.4,3.7-13.7c0.2-6.1-0.8-11-3.1-14.5c-2.2-3.5-5.3-6.1-9.1-7.9c-3.8-1.8-8.1-3-12.9-3.4
				c-4.7-0.5-9.5-0.8-14.3-0.9c-11.9-0.4-24.3,1.2-37.3,4.8l-0.4,0.1l0.1,0.4l3.3,23.4l0.1,0.5l0.5-0.1c10.6-1.9,19.3-2.7,26.2-2.5
				c3.5,0.1,6.5,0.3,9,0.6l0,0l0,0c2.3,0.2,4.1,0.4,5.6,0.6l-0.3,9.3L784.7,93.1z"/>
			<path class="st14" d="M902.6,134.8l0-0.5l-0.5,0l-17.2-0.5l2.3-73.1l0-0.5l-0.5,0l-25-0.8l-0.1,0l-0.1,0l-36.6,7.1l-0.4,0.1
				l0,0.4l-0.8,25.3l0,0.5l0.5,0l27.6-1l-1.3,40.9l-27.6-0.9l-0.5,0l0,0.5l-0.8,25.3l0,0.5l0.5,0l79,2.5l0.5,0l0-0.5L902.6,134.8z"
				/>
			<path d="M852.1,132.9c-0.5,0-0.9-0.4-0.9-0.9c0-0.6,0.4-1,0.9-1.1c11.6-1,30.7-3.1,32.6-4.2c4.2-2.4,1-11.5-0.6-14.8
				c-0.2-0.5,0-1.1,0.5-1.3c0.5-0.2,1.1,0,1.3,0.5c0.3,0.6,6.4,13.6-0.2,17.4c-3,1.7-30.3,4.2-33.5,4.4
				C852.2,132.9,852.2,132.9,852.1,132.9z"/>
			<path d="M848.8,130.4c0-0.4,4.1-0.7,4.1,0.7c0.1,0.1,0.1,0.2,0.2,0.4c0.4,1.3-0.4,2.7-2.8,3.3c-2.3,0.7-3.7-0.1-4-1.5
				C845.9,131.9,847.1,131,848.8,130.4z"/>
			<path d="M837.3,130.3c-0.3,0-0.5-0.1-0.8-0.4c-0.4-0.4-0.3-1.1,0.2-1.4c6.9-5.5,14.3-12,14.8-13.2c0.9-2.1,1.7-6.8,1.7-6.9
				c0.1-0.5,0.6-0.9,1.2-0.8c0.5,0.1,0.9,0.6,0.8,1.2c0,0.2-0.9,5-1.9,7.3c-1,2.4-13,12.1-15.4,14
				C837.7,130.2,837.5,130.3,837.3,130.3z"/>
			<path d="M838.1,128c0.1,0.1,0.2,0.2,0.3,0.3c0.7,1.2,0.3,2.7-1.7,3.9c-2.1,1.3-3.6,0.9-4.3-0.3
				C831.6,130.7,835.1,126.3,838.1,128z"/>
			<path class="st4" d="M876.2,100.3c-6.6-0.2-11.8-5.7-11.6-12.4c0.2-6.6,5.7-11.8,12.4-11.6c6.6,0.2,11.8,5.7,11.6,12.4
				C888.4,95.3,882.8,100.5,876.2,100.3z"/>
			<path class="st5" d="M872.3,96.2c-4.4-0.1-7.9-3.8-7.7-8.2c0.1-4.4,3.8-7.9,8.2-7.7c4.4,0.1,7.9,3.8,7.7,8.2
				C880.4,92.9,876.8,96.3,872.3,96.2z"/>
			<path class="st4" d="M868.2,86.1c-0.8,0-1.5-0.7-1.5-1.5c0-0.8,0.7-1.5,1.5-1.5s1.5,0.7,1.5,1.5S869,86.1,868.2,86.1z"/>
			<path class="st4" d="M851.2,99.5c-6.6-0.2-11.8-5.7-11.6-12.4c0.2-6.6,5.7-11.8,12.4-11.6c6.6,0.2,11.8,5.7,11.6,12.4
				C863.4,94.5,857.8,99.7,851.2,99.5z"/>
			<path class="st5" d="M847.4,95.4c-4.4-0.1-7.9-3.8-7.7-8.2c0.1-4.4,3.8-7.9,8.2-7.7c4.4,0.1,7.9,3.8,7.7,8.2
				C855.5,92.1,851.8,95.5,847.4,95.4z"/>
			<path class="st4" d="M843.2,85.3c-0.8,0-1.5-0.7-1.5-1.5s0.7-1.5,1.5-1.5c0.8,0,1.5,0.7,1.5,1.5C844.7,84.7,844,85.3,843.2,85.3z
				"/>
			<path class="st6" d="M868,95.4c-0.4-0.5-1.1-0.5-1.6,0l-2.7,2.5l-2.5-2.7c-0.4-0.5-1.1-0.5-1.6,0c-0.5,0.4-0.5,1.1,0,1.6l3.3,3.5
				c0.4,0.5,1.1,0.5,1.6,0L868,97C868.4,96.6,868.5,95.8,868,95.4z"/>
		</g>
	</g>
</g>
<g>
	<defs>
		<rect id="SVGID_7_" x="611" y="55" width="142" height="101"/>
	</defs>
	<clipPath id="SVGID_8_">
		<use xlink:href="#SVGID_7_"  style="overflow:visible;"/>
	</clipPath>
	<g class="st15">
		<defs>
			<filter id="Adobe_OpacityMaskFilter_3_" filterUnits="userSpaceOnUse" x="610" y="54" width="142" height="103">
				<feColorMatrix  type="matrix" values="1 0 0 0 0  0 1 0 0 0  0 0 1 0 0  0 0 0 1 0"/>
			</filter>
		</defs>
		<mask maskUnits="userSpaceOnUse" x="610" y="54" width="142" height="103" id="mask3_12_346_1_">
			<path class="st16" d="M753,55H611v101h142V55z"/>
		</mask>
		<g class="st17">
			<path class="st18" d="M616.9,84.6l0.1,0.5l0.5-0.1c9.6-2.3,19.3-3.5,29.2-3.5c2,0,4,0.1,6.1,0.3l0,0h0c2.1,0.1,4.2,0.2,6.5,0.4
				V90c-1.3,0.6-2.7,1.3-4.3,2.1c-1.7,0.7-3.6,1.6-5.7,2.5c-2.1,0.9-4.4,1.9-6.8,3l0,0c-2.3,1.1-4.7,2.2-7,3.3
				c-2.2,1.1-4.4,2.2-6.4,3.3l0,0c-1.9,1.2-3.6,2.4-5.1,3.7c-2.7,2.2-4.9,4.4-6.7,6.5l0,0c-1.7,2-3.1,4.2-4.2,6.4l0,0l0,0
				c-1,2.2-1.7,4.7-2.1,7.2l0,0l0,0c-0.3,2.4-0.5,5.2-0.5,8.1V156v0.5h0.5h81.4h0.5V156v-25.2v-0.5h-0.5h-44.3v-3.6
				c9.4-3.1,17.1-6,23-8.6c6.1-2.6,10.8-5.5,14.3-8.4c3.4-3,5.8-6.3,7.1-10l0,0c1.3-3.7,1.9-8.2,1.9-13.4c0-7-1-12.6-3.1-16.8
				c-1.9-4.2-4.8-7.4-8.4-9.5c-3.7-2.3-8.1-3.7-13.2-4.3c-5-0.7-10.6-1.1-16.7-1.1c-13.1,0-26.4,2-40,6l-0.4,0.1l0.1,0.4L616.9,84.6
				z"/>
			<path class="st18" d="M667.5,151.8l-0.1,0.5l0.5,0.1c11.9,2.7,24.6,4.1,38.1,4.1c2.7,0,5.8-0.1,9.2-0.2c3.4-0.1,6.7-0.5,10-1.1
				c3.4-0.5,6.6-1.3,9.5-2.4l0,0l0,0c3-1.2,5.6-2.7,7.7-4.7l0,0l0,0c2.5-2.5,4.6-6,6.4-10.6c1.8-4.6,2.7-10.2,2.7-16.9
				c0-4.7-0.6-8.8-1.9-12.3c-1.2-3.7-3.2-6.8-6.1-9.4c-2.9-2.7-6.7-4.9-11.3-6.6c-4.7-1.7-10.5-3-17.4-3.8h0l-8.9-1.1v-7.1l36.8,2.2
				l0.5,0l0-0.5l2.4-27.1l0-0.5H745h-71.7h-0.5l0,0.5c-0.5,13.2-0.9,23.1-1.3,30v0c-0.2,6.8-0.3,10.5-0.3,11.1c0,4,0.5,7.5,1.6,10.3
				l0,0c1.1,2.7,2.9,5,5.5,6.9l0,0l0,0c2.7,1.7,6.2,3.1,10.5,4.2c4.3,1.1,9.8,1.9,16.3,2.5c0,0,0,0,0,0l11.4,1.2v7
				c-4.7,0.6-10.7,0.9-17.9,0.9c-7.3,0-16-1.2-26.2-3.6l-0.5-0.1l-0.1,0.5L667.5,151.8z"/>
			<path class="st4" d="M697,95c6.6,0,12-5.4,12-12s-5.4-12-12-12s-12,5.4-12,12S690.4,95,697,95z"/>
			<path class="st5" d="M701,91c4.4,0,8-3.6,8-8s-3.6-8-8-8s-8,3.6-8,8S696.6,91,701,91z"/>
			<path class="st4" d="M705.5,81c0.8,0,1.5-0.7,1.5-1.5s-0.7-1.5-1.5-1.5s-1.5,0.7-1.5,1.5S704.7,81,705.5,81z"/>
			<path class="st4" d="M722,95c6.6,0,12-5.4,12-12s-5.4-12-12-12s-12,5.4-12,12S715.4,95,722,95z"/>
			<path class="st5" d="M726,91c4.4,0,8-3.6,8-8s-3.6-8-8-8s-8,3.6-8,8S721.6,91,726,91z"/>
			<path class="st4" d="M730.5,81c0.8,0,1.5-0.7,1.5-1.5s-0.7-1.5-1.5-1.5s-1.5,0.7-1.5,1.5S729.7,81,730.5,81z"/>
			<path class="st6" d="M705.3,90.3c0.4-0.4,1.2-0.4,1.6,0l2.6,2.6l2.6-2.6c0.4-0.4,1.2-0.4,1.6,0c0.4,0.4,0.4,1.2,0,1.6l-3.4,3.4
				c-0.4,0.4-1.2,0.4-1.6,0l-3.4-3.4C704.9,91.5,704.9,90.8,705.3,90.3z"/>
			<path d="M687.8,136.4c-0.4-0.7-0.3-1.7,0.4-2.2c0.4-0.4-0.2,0,0.3-0.1c0.1,0,0.2-0.1,0.4-0.1c1.1-0.1,2.2,0.9,2.5,3.2
				c0.3,2.3-0.1,4.9-1.6,4.9C688.1,142,688,136.7,687.8,136.4z"/>
			<path d="M673.5,97c-0.2,0-0.5,0.1-0.6,0.3c-5.2,7.6-7.6,19.6-0.3,27.9c3.9,4.5,10.5,8.6,16,10c0.4,0.1,0.8-0.1,0.9-0.5
				c0.1-0.4-0.1-0.8-0.5-0.9c-5.2-1.4-11.5-5.3-15.2-9.5c-6.7-7.7-4.5-18.9,0.4-26c0.2-0.4,0.1-0.8-0.2-1.1
				C673.8,97,673.7,97,673.5,97z"/>
			<path d="M725.6,136.4c0.4-0.7,0.3-1.7-0.4-2.2c-0.4-0.4,0.2,0-0.3-0.1c-0.1,0-0.2-0.1-0.4-0.1c-1.1-0.1-2.2,0.9-2.5,3.2
				c-0.3,2.3,0.1,4.9,1.6,4.9C725.2,142,725.3,136.7,725.6,136.4z"/>
			<path d="M739.8,97c0.2,0,0.5,0.1,0.6,0.3c5.2,7.6,7.6,19.6,0.3,27.9c-3.9,4.5-10.5,8.6-16,10c-0.4,0.1-0.8-0.1-0.9-0.5
				c-0.1-0.4,0.1-0.8,0.5-0.9c5.2-1.4,11.5-5.3,15.2-9.5c6.7-7.7,4.5-18.9-0.4-26c-0.2-0.4-0.1-0.8,0.2-1.1
				C739.5,97,739.7,97,739.8,97z"/>
		</g>
	</g>
</g>
<g>
	<defs>
		
			<rect id="SVGID_9_" x="452.4" y="58.8" transform="matrix(0.9988 -4.967204e-02 4.967204e-02 0.9988 -4.7255 26.4779)" width="156" height="99"/>
	</defs>
	<clipPath id="SVGID_10_">
		<use xlink:href="#SVGID_9_"  style="overflow:visible;"/>
	</clipPath>
	<g class="st19">
		<defs>
			<filter id="Adobe_OpacityMaskFilter_4_" filterUnits="userSpaceOnUse" x="449.4" y="56.7" width="158.4" height="106">
				<feColorMatrix  type="matrix" values="1 0 0 0 0  0 1 0 0 0  0 0 1 0 0  0 0 0 1 0"/>
			</filter>
		</defs>
		<mask maskUnits="userSpaceOnUse" x="449.4" y="56.7" width="158.4" height="106" id="mask4_12_346_1_">
			<path class="st20" d="M605.8,55L450,62.7l4.9,98.9l155.8-7.7L605.8,55z"/>
		</mask>
		<g class="st21">
			<path class="st22" d="M533.1,132.4l0-0.5l-0.5,0l-17.2,0.9l-3.6-73.1l0-0.5l-0.5,0l-24.9,1.2l-0.1,0l-0.1,0l-35.9,10l-0.4,0.1
				l0,0.4l1.3,25.3l0,0.5l0.5-0.1l27.5-3.2l2,40.9l-27.6,1.4l-0.5,0l0,0.5l1.3,25.3l0,0.5l0.5,0l78.9-3.9l0.5,0l0-0.5L533.1,132.4z"
				/>
			<path class="st22" d="M553.2,124.6L553.2,124.6l7.4-0.2l0.4,8.2c-4.7,0.8-10.3,1.4-16.9,1.7c-6.4,0.3-14.7-0.5-25.1-2.4l-0.5-0.1
				l-0.1,0.5l-3.1,26.1l-0.1,0.5l0.5,0.1c12.1,2.1,25.6,2.8,40.5,2.1c7.6-0.4,14-1.7,19.2-4c5.2-2.3,9.2-5.6,12.3-10.1
				c3-4.4,5-9.9,6.1-16.6c1.2-6.6,1.5-14.4,1.1-23.5c-0.4-9-1.5-16.7-3.2-23.1c-1.7-6.5-4.3-11.8-7.9-15.9c-3.5-4.1-8.1-7-13.7-8.8
				c-5.6-1.7-12.3-2.4-20.3-2c-6.1,0.3-11.8,1.1-17,2.3c-5.2,1.1-9.6,3-13.2,5.8c-3.7,2.7-6.4,6.3-8.4,10.9l0,0
				c-1.8,4.6-2.5,10.4-2.2,17.5c0.3,5.4,1.1,10.1,2.5,14l0,0c1.5,4,3.9,7.3,7.1,9.9l0,0c3.4,2.6,7.8,4.5,13.3,5.6h0
				C537.7,124.3,544.7,124.8,553.2,124.6z M545.5,83.5L545.5,83.5L545.5,83.5c1.2-0.8,3.5-1.4,7-1.5l6-0.3l0.5,10.7
				c0.1,2.8-0.5,4.4-1.6,5.2c-1.2,0.7-3.5,1.2-7,1.4l-6,0.3L544,88.5C543.8,85.7,544.4,84.1,545.5,83.5z"/>
			<path class="st4" d="M539.9,98.3c6.6-0.3,11.7-6,11.4-12.6c-0.3-6.6-6-11.7-12.6-11.4c-6.6,0.3-11.7,6-11.4,12.6
				C527.6,93.6,533.3,98.7,539.9,98.3z"/>
			<path class="st5" d="M543.7,94.1c4.4-0.2,7.8-4,7.6-8.4c-0.2-4.4-4-7.8-8.4-7.6c-4.4,0.2-7.8,4-7.6,8.4
				C535.5,91,539.3,94.4,543.7,94.1z"/>
			<path class="st4" d="M547.7,83.9c0.8,0,1.5-0.7,1.4-1.6c0-0.8-0.7-1.5-1.6-1.4c-0.8,0-1.5,0.7-1.4,1.6
				C546.1,83.3,546.8,84,547.7,83.9z"/>
			<path class="st4" d="M564.8,97.1c6.6-0.3,11.7-6,11.4-12.6c-0.3-6.6-6-11.7-12.6-11.4c-6.6,0.3-11.7,6-11.4,12.6
				C552.6,92.3,558.2,97.4,564.8,97.1z"/>
			<path class="st5" d="M568.6,92.9c4.4-0.2,7.8-4,7.6-8.4c-0.2-4.4-4-7.8-8.4-7.6c-4.4,0.2-7.8,4-7.6,8.4
				C560.5,89.7,564.2,93.1,568.6,92.9z"/>
			<path class="st4" d="M572.6,82.7c0.8,0,1.5-0.7,1.4-1.6s-0.7-1.5-1.6-1.4c-0.8,0-1.5,0.7-1.4,1.6
				C571.1,82.1,571.8,82.7,572.6,82.7z"/>
			<path class="st6" d="M548,93.2c0.4-0.5,1.1-0.5,1.6-0.1l2.7,2.4l2.4-2.7c0.4-0.5,1.1-0.5,1.6-0.1c0.5,0.4,0.5,1.1,0.1,1.6
				l-3.2,3.5c-0.4,0.5-1.1,0.5-1.6,0.1l-3.5-3.2C547.6,94.4,547.5,93.7,548,93.2z"/>
			<path d="M516.7,122.6c-5.7,0.3-15.5-8.1-16.6-9.2c-0.4-0.4-0.4-1-0.1-1.4c0.4-0.4,1-0.4,1.4-0.1c3.1,2.7,11.9,9.6,15.8,8.6
				c4.7-1.2,9.7-10.2,9.7-10.2c0.3-0.5,0.9-0.7,1.3-0.4c0.5,0.3,0.6,0.9,0.4,1.4c-0.2,0.4-5.4,9.8-10.9,11.2
				C517.4,122.6,517.1,122.6,516.7,122.6z"/>
			<path d="M501.7,111.1c0.3-0.3,0.7-0.4,1.1-0.4c0.9,0,1.5,0.9,1.5,1.8c0,0.7-0.1,1.5-0.4,2.1c0,0.1-0.1,0.3-0.2,0.4
				c-0.7,1.1-2.2,1.5-4.3,0.2c-2-1.3-2.3-2.8-1.6-4C498.7,110,500.2,110.2,501.7,111.1z"/>
			<path d="M587.6,116.9c-0.1,0-0.2,0-0.4,0c-5.7-0.1-13-8-13.3-8.3c-0.4-0.4-0.3-1,0.1-1.4c0.4-0.4,1-0.3,1.4,0.1
				c0.1,0.1,7,7.6,11.8,7.7c4.1,0.1,12.7-6.7,15.6-9.3c0.4-0.4,1-0.3,1.4,0.1c0.4,0.4,0.3,1-0.1,1.4
				C603.7,107.5,593.3,116.6,587.6,116.9z"/>
			<path d="M603.7,103.7c-0.3-0.3-0.6-0.5-1-0.5c-0.9,0-1.6,0.8-1.6,1.7c-0.1,0.7,0,1.5,0.2,2.1c0,0.1,0.1,0.3,0.2,0.4
				c0.6,1.2,2.1,1.6,4.2,0.5c2.1-1.1,2.5-2.6,1.9-3.8C606.8,102.8,605.3,102.9,603.7,103.7z"/>
		</g>
	</g>
</g>
<g>
	<defs>
		
			<rect id="SVGID_11_" x="301.3" y="72.4" transform="matrix(0.993 -0.1185 0.1185 0.993 -11.801 45.2858)" width="147" height="99"/>
	</defs>
	<clipPath id="SVGID_12_">
		<use xlink:href="#SVGID_11_"  style="overflow:visible;"/>
	</clipPath>
	<g class="st23">
		<defs>
			<filter id="Adobe_OpacityMaskFilter_5_" filterUnits="userSpaceOnUse" x="295.9" y="68.1" width="144" height="112.7">
				<feColorMatrix  type="matrix" values="1 0 0 0 0  0 1 0 0 0  0 0 1 0 0  0 0 0 1 0"/>
			</filter>
		</defs>
		<mask maskUnits="userSpaceOnUse" x="295.9" y="68.1" width="144" height="112.7" id="mask5_12_346_1_">
			<path class="st24" d="M442,64L296,81.4l11.7,98.3l146-17.4L442,64z"/>
		</mask>
		<g class="st25">
			<path class="st26" d="M383.7,145.1l-0.1-0.5l-0.5,0.1l-17.1,2l-8.7-72.6l-0.1-0.5l-0.5,0.1l-24.8,3l-0.1,0l-0.1,0l-35.1,12.5
				l-0.4,0.1l0,0.4l3,25.2l0.1,0.5l0.5-0.1l27.2-5.1l4.9,40.7l-27.4,3.3l-0.5,0.1l0.1,0.5l3,25.2l0.1,0.5l0.5-0.1l78.4-9.4l0.5-0.1
				l-0.1-0.5L383.7,145.1z"/>
			<path class="st26" d="M374.5,111.9L374,112l0.1,0.4l2.7,22.6l0.1,0.5l0.5,0l26.6-0.5l1.1,9.1c-4.6,1.1-10.3,2.1-17,2.9
				c-6.6,0.8-15,0.6-25.4-0.6l-0.5-0.1l0,0.5l-1.3,26.3l0,0.5l0.5,0.1c12.1,1.3,23.8,1.3,35.1-0.1c5.6-0.7,11.1-1.6,16.6-2.8
				c5.5-1.1,10.3-2.9,14.5-5.6c4.2-2.7,7.4-6.2,9.5-10.7c2.3-4.6,2.9-10.6,2-17.9c-0.7-5.7-2.6-10.5-5.7-14.1
				c-3-3.6-7.2-6.1-12.5-7.6l0-0.2c4-2.8,6.8-6.2,8.5-10.3c1.7-4.1,2.3-8.8,1.7-14.1c-0.7-6.1-2.4-10.8-5.2-13.9
				c-2.7-3.1-6.1-5.3-10.1-6.4c-4-1.2-8.4-1.7-13.3-1.5c-4.7,0.2-9.5,0.7-14.2,1.2c-11.8,1.4-23.8,4.9-36.1,10.4l-0.4,0.2l0.1,0.4
				l6.8,22.6l0.1,0.5l0.5-0.2c10.2-3.4,18.7-5.5,25.5-6.4c3.5-0.4,6.5-0.7,9-0.8h0l0,0c2.3-0.2,4.1-0.3,5.6-0.3l1.1,9.3L374.5,111.9
				z"/>
			<path class="st4" d="M382.2,111.4c6.6-0.8,11.3-6.8,10.5-13.3c-0.8-6.6-6.8-11.3-13.3-10.5c-6.6,0.8-11.3,6.8-10.5,13.3
				C369.6,107.5,375.6,112.2,382.2,111.4z"/>
			<path class="st5" d="M385.7,107c4.4-0.5,7.5-4.5,7-8.9c-0.5-4.4-4.5-7.5-8.9-7c-4.4,0.5-7.5,4.5-7,8.9
				C377.3,104.4,381.3,107.5,385.7,107z"/>
			<path class="st4" d="M388.9,96.5c0.8-0.1,1.4-0.8,1.3-1.7c-0.1-0.8-0.8-1.4-1.7-1.3c-0.8,0.1-1.4,0.8-1.3,1.7
				C387.4,96,388.1,96.6,388.9,96.5z"/>
			<path class="st4" d="M407,108.5c6.6-0.8,11.3-6.8,10.5-13.3c-0.8-6.6-6.8-11.3-13.3-10.5s-11.3,6.8-10.5,13.3
				C394.4,104.5,400.4,109.2,407,108.5z"/>
			<path class="st5" d="M410.5,104c4.4-0.5,7.5-4.5,7-8.9c-0.5-4.4-4.5-7.5-8.9-7c-4.4,0.5-7.5,4.5-7,8.9
				C402.1,101.4,406.1,104.5,410.5,104z"/>
			<path class="st4" d="M413.8,93.5c0.8-0.1,1.4-0.8,1.3-1.7c-0.1-0.8-0.8-1.4-1.7-1.3c-0.8,0.1-1.4,0.8-1.3,1.7
				C412.2,93.1,412.9,93.6,413.8,93.5z"/>
			<path class="st6" d="M389.9,105.8c0.4-0.5,1.1-0.6,1.6-0.2l2.9,2.3l2.3-2.9c0.4-0.5,1.1-0.6,1.6-0.2c0.5,0.4,0.6,1.1,0.2,1.6
				l-3,3.8c-0.4,0.5-1.1,0.6-1.6,0.2l-3.8-3C389.6,107,389.5,106.3,389.9,105.8z"/>
			<path d="M376.9,124.1c-0.3,0-0.6,0-0.8-0.3c-0.5-0.4-11.3-10.2-14.5-15.6c-3.1-5.2-2.4-24.7-2.4-25.6c0-0.6,0.5-1.1,1.1-1
				c0.6,0,1,0.5,1,1.1c-0.2,5.5-0.2,20.5,2.1,24.4c3,5.1,14,15,14.1,15.1c0.4,0.4,0.5,1.1,0.1,1.5
				C377.4,124,377.2,124.1,376.9,124.1z"/>
			<path d="M362.3,80.9c0.4,0,0.8,0.2,1.1,0.6c0.6,0.7,0.4,1.8-0.4,2.5c-0.6,0.5-1.3,1-1.9,1.2c-0.1,0.1-0.3,0.1-0.5,0.1
				c-1.4,0.2-2.7-0.8-3.1-3.3c-0.4-2.6,0.6-3.9,2-4.2C361.1,77.6,362,79,362.3,80.9z"/>
			<path d="M423.4,118.7c-0.3,0-0.6,0-0.8-0.2c-0.5-0.4-0.5-1.1-0.2-1.5c0.1-0.1,8.9-11.1,11.2-16.2c1.8-4.1-1.7-18.8-3.2-24.1
				c-0.2-0.6,0.2-1.2,0.7-1.3c0.6-0.2,1.1,0.2,1.3,0.7c0.6,2,5.5,20.1,3.1,25.6c-2.4,5.4-11.1,16.3-11.5,16.7
				C423.9,118.6,423.7,118.7,423.4,118.7z"/>
			<path d="M429,75c-0.4,0.1-0.7,0.4-0.9,0.8c-0.4,0.9,0.1,1.9,1,2.4c0.6,0.3,1.5,0.6,2.1,0.7c0.1,0,0.3,0,0.5,0
				c1.4-0.1,2.5-1.4,2.3-4c-0.2-2.6-1.5-3.7-3-3.5C429.4,71.5,428.9,73,429,75z"/>
		</g>
	</g>
</g>
<g>
	<defs>
		
			<rect id="SVGID_13_" x="11.6" y="139.9" transform="matrix(0.9659 -0.2588 0.2588 0.9659 -46.4337 28.1299)" width="144" height="101"/>
	</defs>
	<clipPath id="SVGID_14_">
		<use xlink:href="#SVGID_13_"  style="overflow:visible;"/>
	</clipPath>
	<g class="st27">
		<path class="st28" d="M10.8,189.8L10.8,189.8c0.7,6,2,12.7,4,20c1.9,7.3,4.1,13.7,6.6,19.3l0,0c2.5,5.6,5.8,10.1,9.7,13.6l0,0
			c3.9,3.3,8.7,5.4,14.3,6.3l0,0c5.7,0.8,12.7,0,20.9-2.2c8.2-2.2,14.6-5,19-8.5l0,0c4.5-3.6,7.6-7.8,9.2-12.6
			c1.7-4.8,2.2-10.3,1.5-16.4c-0.6-6.1-1.9-12.8-3.8-20.1c-2-7.4-4.2-13.9-6.6-19.5c-2.4-5.6-5.6-10.1-9.5-13.5
			c-3.8-3.4-8.6-5.4-14.3-6.2c-5.6-0.9-12.6-0.2-20.9,2c-8.2,2.2-14.6,5.1-19.1,8.7c-4.4,3.5-7.5,7.6-9.3,12.5
			C10.7,178.2,10.2,183.7,10.8,189.8z M56.9,223.6l-5.5,1.5l-10.6-39.6c-0.9-3.3-0.6-5.4,0.5-6.4c0.6-0.6,1.5-1.2,2.9-1.7
			c1.3-0.6,3-1.2,5.1-1.7l6.2-1.7l10.6,39.6c0.9,3.2,0.5,5.3-0.7,6.5C64,221.3,61.2,222.5,56.9,223.6z"/>
		<path class="st28" d="M156,196l-0.1-0.5l-0.5,0.1l-16.6,4.5l-18.9-70.7l-0.1-0.5l-0.5,0.1l-24.1,6.5l-0.1,0l0,0l-33,17.4l-0.4,0.2
			l0.1,0.4l6.6,24.5l0.1,0.5l0.5-0.2l26.2-8.9l10.6,39.5l-26.7,7.1l-0.5,0.1l0.1,0.5l6.6,24.5l0.1,0.5l0.5-0.1l76.3-20.4l0.5-0.1
			l-0.1-0.5L156,196z"/>
		<path d="M146.1,198.6c-0.5-0.3-0.8-0.7-1-1.2c-0.3-1.1,0.5-2.2,1.7-2.6c0.9-0.3,1.9-0.4,2.7-0.4c0.2,0,0.4,0,0.6,0.1
			c1.7,0.5,2.7,2.2,1.9,5.3c-0.8,3.1-2.5,4-4.2,3.6C145.9,202.9,145.6,200.9,146.1,198.6z"/>
		<path d="M149.8,197.7c-0.2,0.1-0.5,0.1-0.7,0c-0.7-0.2-1-1-0.8-1.6c2.3-6.9,5-19,2.7-22c-2.9-3.7-16.4-5-21.4-5.2
			c-0.7,0-1.3-0.6-1.2-1.3c0-0.7,0.6-1.3,1.3-1.2c2,0.1,19.2,0.9,23.3,6.2c1.8,2.3,1.9,7,0.4,14.4c-1.1,5.2-2.6,9.8-2.6,10
			C150.5,197.3,150.2,197.5,149.8,197.7z"/>
		<path d="M100.3,209.9c0.2-0.5,0.2-1,0-1.4c-0.4-1-1.5-1.5-2.6-1.1c-0.8,0.3-1.6,0.7-2.1,1.2c-0.1,0.1-0.3,0.2-0.4,0.4
			c-0.9,1.3-0.7,3.2,1.5,5.2c2.2,2,3.9,1.8,4.9,0.5C102.7,213.1,101.9,211.4,100.3,209.9z"/>
		<path d="M97.1,211.2c-0.3,0.1-0.7,0-1-0.3c-1.3-1.2-12.6-11.5-12.5-17.5c0.1-6.3,11.3-17.8,12.6-19.1c0.5-0.5,1.2-0.4,1.6,0.1
			c0.4,0.5,0.4,1.3,0,1.7c-3.3,3.3-11.8,12.9-11.9,17.4C85.8,197.1,93,205,97.5,209c0.5,0.4,0.6,1.2,0.2,1.7
			C97.5,211,97.3,211.1,97.1,211.2z"/>
		<path class="st4" d="M120.8,170.6c-6.4,1.7-13-2.1-14.7-8.5c-1.7-6.4,2.1-13,8.5-14.7c6.4-1.7,13,2.1,14.7,8.5
			C131,162.3,127.2,168.9,120.8,170.6z"/>
		<path class="st5" d="M115.9,167.8c-4.3,1.1-8.7-1.4-9.8-5.7c-1.1-4.3,1.4-8.7,5.7-9.8c4.3-1.1,8.7,1.4,9.8,5.7
			C122.7,162.3,120.1,166.7,115.9,167.8z"/>
		<path class="st4" d="M108.9,159.3c-0.8,0.2-1.6-0.3-1.8-1.1c-0.2-0.8,0.3-1.6,1.1-1.8c0.8-0.2,1.6,0.3,1.8,1.1
			C110.2,158.3,109.7,159.1,108.9,159.3z"/>
		<path class="st4" d="M96.6,177.1c-6.4,1.7-13-2.1-14.7-8.5c-1.7-6.4,2.1-13,8.5-14.7c6.4-1.7,13,2.1,14.7,8.5
			C106.8,168.8,103,175.4,96.6,177.1z"/>
		<path class="st5" d="M91.7,174.3c-4.3,1.1-8.7-1.4-9.8-5.7c-1.1-4.3,1.4-8.7,5.7-9.8c4.3-1.1,8.7,1.4,9.8,5.7
			C98.5,168.7,96,173.1,91.7,174.3z"/>
		<path class="st4" d="M84.8,165.8c-0.8,0.2-1.6-0.3-1.8-1.1c-0.2-0.8,0.3-1.6,1.1-1.8c0.8-0.2,1.6,0.3,1.8,1.1
			C86.1,164.7,85.6,165.6,84.8,165.8z"/>
		<path class="st6" d="M111.5,168.3c-0.5-0.3-1.2-0.1-1.5,0.4l-1.8,3.2L105,170c-0.5-0.3-1.2-0.1-1.5,0.4c-0.3,0.5-0.1,1.2,0.4,1.5
			l4.1,2.4c0.5,0.3,1.2,0.1,1.5-0.4l2.4-4.1C112.2,169.3,112,168.6,111.5,168.3z"/>
	</g>
</g>
<g>
	<defs>
		
			<rect id="SVGID_15_" x="159.8" y="99.3" transform="matrix(0.9659 -0.2588 0.2588 0.9659 -31.0734 64.475)" width="139" height="102"/>
	</defs>
	<clipPath id="SVGID_16_">
		<use xlink:href="#SVGID_15_"  style="overflow:visible;"/>
	</clipPath>
	<g class="st29">
		<path class="st30" d="M158.8,148.5L158.8,148.5c0.7,6,2,12.7,4,20c1.9,7.3,4.1,13.7,6.6,19.3l0,0c2.5,5.6,5.8,10.1,9.7,13.6l0,0
			c3.9,3.3,8.7,5.4,14.3,6.3l0,0c5.7,0.8,12.7,0,20.9-2.2c8.2-2.2,14.6-5,19-8.5l0,0c4.5-3.6,7.6-7.8,9.2-12.6
			c1.7-4.8,2.2-10.3,1.5-16.4c-0.6-6.1-1.9-12.8-3.8-20.1c-2-7.4-4.2-13.9-6.6-19.5c-2.4-5.6-5.6-10.1-9.5-13.5
			c-3.8-3.4-8.6-5.4-14.3-6.2c-5.6-0.9-12.6-0.2-20.9,2c-8.2,2.2-14.6,5.1-19.1,8.7c-4.4,3.5-7.5,7.6-9.3,12.5
			C158.7,136.9,158.2,142.4,158.8,148.5z M204.9,182.3l-5.5,1.5l-10.6-39.6c-0.9-3.3-0.6-5.4,0.5-6.4c0.6-0.6,1.5-1.2,2.9-1.7
			c1.3-0.6,3-1.2,5.1-1.7l6.2-1.7l10.6,39.6c0.9,3.2,0.5,5.3-0.7,6.5C212,180,209.2,181.2,204.9,182.3z"/>
		<path class="st4" d="M260.1,131.7c-6.4,1.7-13-2.1-14.7-8.5c-1.7-6.4,2.1-13,8.5-14.7c6.4-1.7,13,2.1,14.7,8.5
			C270.3,123.4,266.5,129.9,260.1,131.7z"/>
		<path class="st5" d="M255.2,128.8c-4.3,1.1-8.7-1.4-9.8-5.7c-1.1-4.3,1.4-8.7,5.7-9.8c4.3-1.1,8.7,1.4,9.8,5.7
			C262,123.3,259.4,127.7,255.2,128.8z"/>
		<path class="st4" d="M248.2,120.3c-0.8,0.2-1.6-0.3-1.8-1.1s0.3-1.6,1.1-1.8c0.8-0.2,1.6,0.3,1.8,1.1
			C249.5,119.3,249,120.1,248.2,120.3z"/>
		<path class="st4" d="M235.9,138.1c-6.4,1.7-13-2.1-14.7-8.5c-1.7-6.4,2.1-13,8.5-14.7c6.4-1.7,13,2.1,14.7,8.5
			C246.1,129.8,242.3,136.4,235.9,138.1z"/>
		<path class="st5" d="M231,135.3c-4.3,1.1-8.7-1.4-9.8-5.7c-1.1-4.3,1.4-8.7,5.7-9.8c4.3-1.1,8.7,1.4,9.8,5.7
			C237.8,129.8,235.3,134.2,231,135.3z"/>
		<path class="st4" d="M224.1,126.8c-0.8,0.2-1.6-0.3-1.8-1.1c-0.2-0.8,0.3-1.6,1.1-1.8c0.8-0.2,1.6,0.3,1.8,1.1
			C225.4,125.8,224.9,126.6,224.1,126.8z"/>
		<path class="st6" d="M250.8,129.3c-0.5-0.3-1.2-0.1-1.5,0.4l-1.8,3.2l-3.2-1.8c-0.5-0.3-1.2-0.1-1.5,0.4c-0.3,0.5-0.1,1.2,0.4,1.5
			l4.1,2.4c0.5,0.3,1.2,0.1,1.5-0.4l2.4-4.1C251.5,130.3,251.4,129.6,250.8,129.3z"/>
		<path class="st30" d="M277.5,86.6l-0.1-0.5l-0.5,0.1l-75.3,20.2l-0.5,0.1l0.2,0.5l9.5,26.5l0.2,0.4l0.4-0.1l35.7-10l-8.7,75.6
			l-0.1,0.7l0.7-0.2l34.4-9.2l0.3-0.1l0-0.3l8.9-84.4l0-0.1l0-0.1L277.5,86.6z"/>
		<path class="st4" d="M238.1,138.6c6.4-1.7,10.2-8.3,8.5-14.7c-1.7-6.4-8.3-10.2-14.7-8.5c-6.4,1.7-10.2,8.3-8.5,14.7
			C225.1,136.5,231.7,140.3,238.1,138.6z"/>
		<path class="st5" d="M240.9,133.7c4.3-1.1,6.8-5.5,5.7-9.8c-1.1-4.3-5.5-6.8-9.8-5.7c-4.3,1.1-6.8,5.5-5.7,9.8
			C232.3,132.3,236.7,134.8,240.9,133.7z"/>
		<path class="st4" d="M242.7,122.9c0.8-0.2,1.3-1,1.1-1.8c-0.2-0.8-1-1.3-1.8-1.1c-0.8,0.2-1.3,1-1.1,1.8
			C241.1,122.6,241.9,123.1,242.7,122.9z"/>
		<path class="st4" d="M262.3,132.1c6.4-1.7,10.2-8.3,8.5-14.7c-1.7-6.4-8.3-10.2-14.7-8.5c-6.4,1.7-10.2,8.3-8.5,14.7
			C249.3,130,255.9,133.8,262.3,132.1z"/>
		<path class="st5" d="M265.1,127.2c4.3-1.1,6.8-5.5,5.7-9.8c-1.1-4.3-5.5-6.8-9.8-5.7c-4.3,1.1-6.8,5.5-5.7,9.8
			S260.8,128.4,265.1,127.2z"/>
		<path class="st4" d="M266.8,116.4c0.8-0.2,1.3-1,1.1-1.8c-0.2-0.8-1-1.3-1.8-1.1c-0.8,0.2-1.3,1-1.1,1.8
			C265.2,116.1,266,116.6,266.8,116.4z"/>
		<path class="st6" d="M244.9,131.9c0.3-0.5,1-0.7,1.5-0.4l3.2,1.8l1.8-3.2c0.3-0.5,1-0.7,1.5-0.4c0.5,0.3,0.7,1,0.4,1.5l-2.4,4.1
			c-0.3,0.5-1,0.7-1.5,0.4l-4.1-2.4C244.8,133.1,244.6,132.5,244.9,131.9z"/>
		<path d="M245.7,143.5c-0.3,0.1-0.6,0-0.8-0.1c-0.5-0.3-12.4-8.2-16.2-12.9c-3.7-4.6-5.7-23.4-5.8-24.2c-0.1-0.6,0.4-1.1,0.9-1.1
			c0.6-0.1,1.1,0.4,1.1,0.9c0.6,5.3,2.6,19.7,5.4,23.1c3.6,4.5,15.6,12.4,15.8,12.5c0.5,0.3,0.6,1,0.3,1.4
			C246.2,143.2,245.9,143.4,245.7,143.5z"/>
		<path d="M225.5,105.2c0.7,0.6,0.8,1.8,0.2,2.6c-0.4,0.6,0.3-0.1-0.3,0.2c-0.1,0.1-0.2,0.2-0.4,0.2c-1.2,0.5-2.7-0.3-3.7-2.9
			c-1-2.6-1.3-5.5,0.4-6C223.6,99,225.2,104.9,225.5,105.2z"/>
		<path d="M288.2,161.8c-0.3,0.1-0.7,0-1-0.3c-0.4-0.4-0.4-1,0-1.4c6-6.2,9.8-12.5,9.6-15.8c-0.1-0.8-0.4-1.4-0.9-1.8
			c-5.4-4-18.6-8.2-22.5-9.3c-0.5-0.2-0.8-0.7-0.7-1.3c0.2-0.5,0.7-0.8,1.3-0.7c4,1.2,17.5,5.4,23.2,9.7c1,0.8,1.6,1.9,1.7,3.3
			c0.4,4.7-5,12.1-10.2,17.4C288.6,161.6,288.4,161.7,288.2,161.8z"/>
		<path d="M289.1,161.6c0.2-0.9-0.4-1.9-1.4-2.2c-0.7-0.2,0.3-0.1-0.4,0c-0.1,0-0.3,0-0.4,0c-1.3,0.4-1.9,1.8-1.3,4.4
			c0.7,2.6,2.2,5.1,3.8,4.5C291.2,167.7,289,162,289.1,161.6z"/>
	</g>
</g>
<g>
	<defs>
		
			<rect id="SVGID_17_" x="1239.6" y="94.7" transform="matrix(0.197 -0.9804 0.9804 0.197 866.0144 1405.6338)" width="103" height="159"/>
	</defs>
	<clipPath id="SVGID_18_">
		<use xlink:href="#SVGID_17_"  style="overflow:visible;"/>
	</clipPath>
	<g class="st31">
		<defs>
			<filter id="Adobe_OpacityMaskFilter_6_" filterUnits="userSpaceOnUse" x="1205" y="113.7" width="164.6" height="120.4">
				<feColorMatrix  type="matrix" values="1 0 0 0 0  0 1 0 0 0  0 0 1 0 0  0 0 0 1 0"/>
			</filter>
		</defs>
		<mask maskUnits="userSpaceOnUse" x="1205" y="113.7" width="164.6" height="120.4" id="mask6_12_346_1_">
			<path class="st32" d="M1379.2,139.3L1223.3,108L1203,209l155.9,31.3L1379.2,139.3z"/>
		</mask>
		<g class="st33">
			<path class="st34" d="M1282.9,225.5l0.5,0.1l0.1-0.5l3.1-15.4l9.7,2l0.5,0.1l0.1-0.5l5.5-27.2l0.1-0.5l-0.5-0.1l-9.7-2l11.1-55.4
				l0.1-0.5l-0.5-0.1l-55.7-11.2l-0.3-0.1l-0.2,0.3l-37,58.5l-0.1,0.1l0,0.1l-4,19.8l-0.1,0.5l0.5,0.1l48,9.6l-3.1,15.4l-0.1,0.5
				l0.5,0.1L1282.9,225.5z M1266,143.9l-6.3,31.2l-14.3-2.9l19.8-28.5L1266,143.9z"/>
			<path class="st34" d="M1321.9,196L1321.9,196l7.3,1.6l-1.6,8c-4.8-0.4-10.4-1.2-16.8-2.5c-6.3-1.3-14.2-4.1-23.7-8.4l-0.5-0.2
				l-0.2,0.5l-9.5,24.6l-0.2,0.4l0.4,0.2c11.2,5,24.1,9,38.8,12c7.5,1.5,14,1.8,19.6,0.9c5.6-0.9,10.3-3.2,14.3-6.7
				c4-3.5,7.3-8.4,10-14.6c2.8-6.1,5-13.6,6.8-22.5c1.8-8.9,2.6-16.6,2.6-23.2c-0.1-6.7-1.3-12.5-3.7-17.3
				c-2.4-4.8-6.1-8.8-11.1-11.9c-5-3.1-11.4-5.4-19.2-6.9c-6-1.2-11.7-1.9-17-2c-5.3-0.2-10.1,0.6-14.2,2.3
				c-4.2,1.7-7.8,4.5-10.8,8.5l0,0c-2.9,4-5,9.5-6.4,16.4c-1.1,5.3-1.4,10-1.1,14.2v0c0.5,4.2,2,8,4.5,11.4l0,0
				c2.6,3.4,6.5,6.3,11.5,8.7v0C1306.9,192,1313.6,194.1,1321.9,196z M1324.5,154.3L1324.5,154.3L1324.5,154.3
				c1.4-0.5,3.7-0.5,7.2,0.2l5.9,1.2l-2.1,10.5c-0.5,2.7-1.5,4.2-2.8,4.6c-1.4,0.4-3.7,0.3-7.1-0.4l-5.9-1.2l2.1-10.5
				C1322.3,156,1323.3,154.7,1324.5,154.3z"/>
			<path class="st4" d="M1315.4,167.3c6.5,1.3,12.8-2.9,14.1-9.4c1.3-6.5-2.9-12.8-9.4-14.1c-6.5-1.3-12.8,2.9-14.1,9.4
				C1304.7,159.7,1308.9,166,1315.4,167.3z"/>
			<path class="st5" d="M1320.1,164.2c4.3,0.9,8.6-1.9,9.4-6.3c0.9-4.3-1.9-8.5-6.3-9.4c-4.3-0.9-8.6,1.9-9.4,6.3
				C1313,159.1,1315.8,163.3,1320.1,164.2z"/>
			<path class="st4" d="M1326.5,155.3c0.8,0.2,1.6-0.4,1.8-1.2s-0.4-1.6-1.2-1.8c-0.8-0.2-1.6,0.4-1.8,1.2
				C1325.2,154.3,1325.7,155.1,1326.5,155.3z"/>
			<path class="st4" d="M1339.9,172.2c6.5,1.3,12.8-2.9,14.1-9.4c1.3-6.5-2.9-12.8-9.4-14.1c-6.5-1.3-12.8,2.9-14.1,9.4
				C1329.2,164.6,1333.4,170.9,1339.9,172.2z"/>
			<path class="st5" d="M1344.6,169.1c4.3,0.9,8.6-1.9,9.4-6.3c0.9-4.3-1.9-8.5-6.3-9.4c-4.3-0.9-8.6,1.9-9.4,6.3
				C1337.5,164,1340.3,168.2,1344.6,169.1z"/>
			<path class="st4" d="M1351,160.2c0.8,0.2,1.6-0.4,1.8-1.2c0.2-0.8-0.4-1.6-1.2-1.8c-0.8-0.2-1.6,0.4-1.8,1.2
				C1349.7,159.2,1350.2,160,1351,160.2z"/>
			<path class="st6" d="M1324.5,164.4c0.5-0.3,1.2-0.2,1.6,0.3l2,3l3-2c0.5-0.3,1.2-0.2,1.6,0.3c0.3,0.5,0.2,1.2-0.3,1.6l-4,2.6
				c-0.5,0.3-1.2,0.2-1.6-0.3l-2.6-4C1323.8,165.4,1324,164.7,1324.5,164.4z"/>
			<path d="M1364.9,206.5c0.2-0.8,0.1-1.7,0.1-2.6c3.5-4.8,3.4-11.3-0.3-16.3c-0.9-1.2-2.8,0.1-1.9,1.3c3,4,3.1,9.5,0.3,13.4
				c-0.2,0-0.5,0.1-0.7,0.2c-0.7,0.5-1.4,0.9-2.2,1.3c-0.2,0.1-0.4,0.2-0.6,0.3c-0.3,0.1-0.5,0.3-0.6,0.6c-0.1,0.2-0.1,0.6,0,0.9
				c0.1,0.3,0.4,0.5,0.7,0.6c0.1,0,0.2,0,0.3,0.1c-0.1,0.3-0.1,0.7-0.1,1c0,0.1-0.1,0.2-0.1,0.3c-0.1,0.4,0,0.7,0.1,1.1
				c0.2,0.6,0.7,1.2,1.3,1.4c0.5,0.2,1,0.2,1.4,0.1c0.4-0.1,0.7-0.3,1-0.5c0.2-0.2,0.4-0.5,0.6-0.7c0.1-0.2,0.2-0.4,0.3-0.6
				C1364.7,207.8,1364.9,207.2,1364.9,206.5C1364.9,206.6,1364.9,206.5,1364.9,206.5z"/>
			<path d="M1289.9,191.5c0.2-0.8,0.6-1.6,0.9-2.4c-1.4-5.8,1.2-11.7,6.6-14.9c1.3-0.8,2.6,1.2,1.3,1.9c-4.3,2.6-6.5,7.6-5.5,12.3
				c0.2,0.1,0.4,0.2,0.5,0.4c0.5,0.7,1,1.4,1.5,2c0.2,0.2,0.3,0.4,0.5,0.5c0.2,0.2,0.4,0.5,0.4,0.8c0,0.3-0.1,0.6-0.4,0.8
				c-0.2,0.2-0.5,0.3-0.8,0.3c-0.1,0-0.2,0-0.3-0.1c-0.1,0.3-0.2,0.6-0.3,0.9c0,0.1,0,0.2,0,0.3c-0.1,0.4-0.3,0.7-0.5,1
				c-0.4,0.5-1.1,0.8-1.8,0.8c-0.5,0-1-0.2-1.4-0.5c-0.3-0.2-0.5-0.6-0.7-0.9c-0.1-0.3-0.2-0.6-0.3-0.9c-0.1-0.2-0.1-0.4-0.1-0.7
				C1289.6,192.7,1289.7,192.1,1289.9,191.5C1289.9,191.5,1289.9,191.5,1289.9,191.5z"/>
		</g>
	</g>
</g>
</svg>
