<svg width="1440" height="492" viewBox="0 0 1440 492" fill="none" xmlns="http://www.w3.org/2000/svg">
<path opacity="0.2" d="M458.674 153.312C235.046 193.393 59.7129 67.8045 0 0V492H1440V6.01222C1425.24 35.4053 1364.8 92.1874 1241.18 84.1711C1086.64 74.1507 1095.5 142.289 970.499 191.389C845.496 240.489 738.209 103.21 458.674 153.312Z" fill="#7BD0FF"/>
<g clip-path="url(#clip0_585_32679)">
<mask id="mask0_585_32679" style="mask-type:luminance" maskUnits="userSpaceOnUse" x="1257" y="22" width="159" height="103">
<path d="M1416 22H1257V125H1416V22Z" fill="white"/>
</mask>
<g mask="url(#mask0_585_32679)">
<path d="M1338.56 125.5H1339.06V125V109.34H1349H1349.5V108.84V81.0448V80.5448H1349H1339.06V24V23.5H1338.56H1281.73H1281.38L1281.26 23.8214L1256.53 88.4614L1256.5 88.5476V88.64V108.84V109.34H1257H1305.95V125V125.5H1306.45H1338.56ZM1305.95 48.74V80.5448H1291.32L1305.17 48.74H1305.95Z" fill="#D00089" stroke="white"/>
<path d="M1370.99 88.8602H1370.99L1378.43 89.0077V97.1975C1373.68 97.7862 1368.04 98.0817 1361.49 98.0817C1355.1 98.0817 1346.8 96.8854 1336.56 94.4782L1336.05 94.3564L1335.96 94.8806L1331.52 120.827L1331.44 121.294L1331.9 121.399C1343.88 124.135 1357.34 125.5 1372.27 125.5C1379.92 125.5 1386.37 124.499 1391.62 122.479C1396.88 120.455 1401.14 117.308 1404.37 113.036C1407.59 108.771 1409.89 103.353 1411.27 96.8018C1412.76 90.2562 1413.5 82.4606 1413.5 73.4214C1413.5 64.3826 1412.81 56.6401 1411.43 50.2005C1410.04 43.645 1407.69 38.224 1404.36 33.9579C1401.02 29.6855 1396.61 26.5402 1391.14 24.5188C1385.68 22.5003 1378.96 21.5 1371 21.5C1364.85 21.5 1359.17 21.9734 1353.96 22.9225C1348.72 23.7708 1344.22 25.4699 1340.45 28.0312C1336.67 30.4974 1333.71 33.9775 1331.56 38.4524L1331.56 38.4613C1329.51 42.952 1328.5 48.7435 1328.5 55.8092C1328.5 61.1902 1329.08 65.9045 1330.26 69.9446L1330.27 69.9562C1331.56 74.0238 1333.78 77.4557 1336.91 80.2423L1336.92 80.2478C1340.16 83.0378 1344.52 85.1104 1349.96 86.4863L1349.96 86.4868C1355.5 87.8616 1362.51 88.65 1370.99 88.8602ZM1365.37 47.4441L1365.38 47.4373L1365.4 47.4298C1366.64 46.6694 1368.95 46.245 1372.43 46.245H1378.43V56.9099C1378.43 59.6888 1377.75 61.2803 1376.62 61.9796C1375.36 62.6454 1373.04 63.0145 1369.57 63.0145H1363.57V52.3496C1363.57 49.5512 1364.26 48.0372 1365.37 47.4441Z" fill="#D00089" stroke="white"/>
<path d="M1359 62C1365.63 62 1371 56.6274 1371 50C1371 43.3726 1365.63 38 1359 38C1352.37 38 1347 43.3726 1347 50C1347 56.6274 1352.37 62 1359 62Z" fill="white"/>
<path d="M1363 58C1367.42 58 1371 54.4183 1371 50C1371 45.5817 1367.42 42 1363 42C1358.58 42 1355 45.5817 1355 50C1355 54.4183 1358.58 58 1363 58Z" fill="#171717"/>
<path d="M1367.5 48C1368.33 48 1369 47.3284 1369 46.5C1369 45.6716 1368.33 45 1367.5 45C1366.67 45 1366 45.6716 1366 46.5C1366 47.3284 1366.67 48 1367.5 48Z" fill="white"/>
<path d="M1384 62C1390.63 62 1396 56.6274 1396 50C1396 43.3726 1390.63 38 1384 38C1377.37 38 1372 43.3726 1372 50C1372 56.6274 1377.37 62 1384 62Z" fill="white"/>
<path d="M1388 58C1392.42 58 1396 54.4183 1396 50C1396 45.5817 1392.42 42 1388 42C1383.58 42 1380 45.5817 1380 50C1380 54.4183 1383.58 58 1388 58Z" fill="#171717"/>
<path d="M1392.5 48C1393.33 48 1394 47.3284 1394 46.5C1394 45.6716 1393.33 45 1392.5 45C1391.67 45 1391 45.6716 1391 46.5C1391 47.3284 1391.67 48 1392.5 48Z" fill="white"/>
<path fill-rule="evenodd" clip-rule="evenodd" d="M1367.33 57.3295C1367.77 56.8902 1368.48 56.8902 1368.92 57.3295L1371.5 59.909L1374.08 57.3295C1374.52 56.8902 1375.23 56.8902 1375.67 57.3295C1376.11 57.7688 1376.11 58.4812 1375.67 58.9205L1372.29 62.2955C1371.86 62.7348 1371.14 62.7348 1370.7 62.2955L1367.33 58.9205C1366.89 58.4812 1366.89 57.7688 1367.33 57.3295Z" fill="#171717"/>
<path d="M1415.22 90.7145C1415.2 89.8703 1414.96 89.0261 1414.78 88.1995C1417.27 82.8179 1415.87 76.4865 1411.29 72.3183C1410.18 71.2982 1408.54 72.969 1409.66 73.9715C1413.38 77.3482 1414.56 82.6772 1412.63 87.074C1412.41 87.1267 1412.19 87.2147 1412.01 87.3905C1411.41 87.9709 1410.79 88.5337 1410.12 89.0789C1409.92 89.2196 1409.74 89.3779 1409.54 89.501C1409.28 89.6769 1409.08 89.8879 1409.02 90.1869C1408.96 90.4507 1409.02 90.8025 1409.22 91.0311C1409.4 91.2597 1409.68 91.4532 1410 91.4884C1410.08 91.5059 1410.18 91.4884 1410.28 91.4884C1410.28 91.8225 1410.32 92.1567 1410.4 92.4732C1410.4 92.5612 1410.38 92.6667 1410.38 92.7546C1410.4 93.1591 1410.5 93.4933 1410.67 93.8626C1410.95 94.3902 1411.59 94.8827 1412.25 94.9706C1412.75 95.041 1413.22 94.9882 1413.68 94.7772C1414.04 94.6013 1414.3 94.3375 1414.54 94.0561C1414.74 93.8099 1414.86 93.5285 1414.98 93.2647C1415.08 93.0536 1415.14 92.8426 1415.2 92.6139C1415.34 91.9808 1415.34 91.3652 1415.2 90.7497C1415.22 90.7321 1415.22 90.7145 1415.22 90.7145Z" fill="black"/>
<path d="M1338.78 90.7145C1338.8 89.8703 1339.04 89.0261 1339.22 88.1995C1336.73 82.8179 1338.13 76.4865 1342.71 72.3183C1343.82 71.2982 1345.46 72.969 1344.34 73.9715C1340.62 77.3482 1339.44 82.6772 1341.37 87.074C1341.59 87.1267 1341.81 87.2147 1341.99 87.3905C1342.59 87.9709 1343.21 88.5337 1343.88 89.0789C1344.08 89.2196 1344.26 89.3779 1344.46 89.501C1344.72 89.6769 1344.92 89.8879 1344.98 90.1869C1345.04 90.4507 1344.98 90.8025 1344.78 91.0311C1344.6 91.2597 1344.32 91.4532 1344 91.4884C1343.92 91.5059 1343.82 91.4884 1343.72 91.4884C1343.72 91.8225 1343.68 92.1567 1343.6 92.4732C1343.6 92.5612 1343.62 92.6667 1343.62 92.7546C1343.6 93.1591 1343.5 93.4933 1343.32 93.8626C1343.05 94.3902 1342.41 94.8827 1341.75 94.9706C1341.25 95.041 1340.77 94.9882 1340.32 94.7772C1339.96 94.6013 1339.7 94.3375 1339.46 94.0561C1339.26 93.8099 1339.14 93.5285 1339.02 93.2647C1338.92 93.0536 1338.86 92.8426 1338.8 92.6139C1338.66 91.9808 1338.66 91.3652 1338.8 90.7497C1338.78 90.7321 1338.78 90.7145 1338.78 90.7145Z" fill="black"/>
</g>
</g>
<g clip-path="url(#clip1_585_32679)">
<mask id="mask1_585_32679" style="mask-type:luminance" maskUnits="userSpaceOnUse" x="1092" y="29" width="161" height="103">
<path d="M1253 29L1092 29V132H1253V29Z" fill="white"/>
</mask>
<g mask="url(#mask1_585_32679)">
<path d="M1173.56 132.5H1174.06V132V116.34H1184H1184.5V115.84V88.0448V87.5448H1184H1174.06V31V30.5H1173.56L1116.73 30.5H1116.38L1116.26 30.8214L1091.53 95.4614L1091.5 95.5476V95.64V115.84V116.34H1092H1140.95V132V132.5H1141.45H1173.56ZM1140.95 55.74V87.5448H1126.32L1140.17 55.74H1140.95Z" fill="#00D0C4" stroke="white"/>
<path d="M1177.31 68.6026L1176.87 68.6542V69.0992V91.9008V92.3536L1177.32 92.3983L1203.81 95.0269V104.198C1199.12 104.786 1193.39 105.082 1186.61 105.082C1179.98 105.082 1171.61 103.885 1161.5 101.479L1160.98 101.355L1160.89 101.882L1156.51 127.828L1156.43 128.293L1156.89 128.399C1168.72 131.132 1180.36 132.5 1191.78 132.5C1197.44 132.5 1203.04 132.237 1208.59 131.712C1214.17 131.288 1219.2 130.017 1223.64 127.891C1228.11 125.754 1231.68 122.599 1234.35 118.433C1237.13 114.129 1238.5 108.256 1238.5 100.864C1238.5 95.0743 1237.19 90.1637 1234.54 86.1603C1231.94 82.2358 1228.08 79.2197 1222.99 77.0985V76.946C1227.26 74.6186 1230.5 71.5635 1232.68 67.7757C1234.89 63.9118 1235.99 59.3143 1235.99 54.0031C1235.99 47.8689 1234.84 43.0376 1232.46 39.5678C1230.11 36.1351 1227 33.6103 1223.16 32.0006C1219.34 30.2969 1215 29.2905 1210.14 28.9729C1205.43 28.6576 1200.67 28.5 1195.85 28.5C1184 28.5 1171.62 30.5015 1158.73 34.498L1158.31 34.6283L1158.39 35.0618L1162.46 58.3351L1162.55 58.8438L1163.06 58.7383C1173.59 56.5403 1182.27 55.4466 1189.12 55.4466C1192.66 55.4466 1195.67 55.5512 1198.16 55.7593L1198.17 55.7602L1198.18 55.7606C1200.46 55.8556 1202.33 55.9935 1203.81 56.1732V65.5092L1177.31 68.6026Z" fill="#00D0C4" stroke="white"/>
<path d="M1185 69C1191.63 69 1197 63.6274 1197 57C1197 50.3726 1191.63 45 1185 45C1178.37 45 1173 50.3726 1173 57C1173 63.6274 1178.37 69 1185 69Z" fill="white"/>
<path d="M1189 65C1193.42 65 1197 61.4183 1197 57C1197 52.5817 1193.42 49 1189 49C1184.58 49 1181 52.5817 1181 57C1181 61.4183 1184.58 65 1189 65Z" fill="#171717"/>
<path d="M1193.5 55C1194.33 55 1195 54.3284 1195 53.5C1195 52.6716 1194.33 52 1193.5 52C1192.67 52 1192 52.6716 1192 53.5C1192 54.3284 1192.67 55 1193.5 55Z" fill="white"/>
<path d="M1210 69C1216.63 69 1222 63.6274 1222 57C1222 50.3726 1216.63 45 1210 45C1203.37 45 1198 50.3726 1198 57C1198 63.6274 1203.37 69 1210 69Z" fill="white"/>
<path d="M1214 65C1218.42 65 1222 61.4183 1222 57C1222 52.5817 1218.42 49 1214 49C1209.58 49 1206 52.5817 1206 57C1206 61.4183 1209.58 65 1214 65Z" fill="#171717"/>
<path d="M1218.5 55C1219.33 55 1220 54.3284 1220 53.5C1220 52.6716 1219.33 52 1218.5 52C1217.67 52 1217 52.6716 1217 53.5C1217 54.3284 1217.67 55 1218.5 55Z" fill="white"/>
<path fill-rule="evenodd" clip-rule="evenodd" d="M1193.33 64.3295C1193.77 63.8902 1194.48 63.8902 1194.92 64.3295L1197.5 66.909L1200.08 64.3295C1200.52 63.8902 1201.23 63.8902 1201.67 64.3295C1202.11 64.7688 1202.11 65.4812 1201.67 65.9205L1198.29 69.2955C1197.86 69.7348 1197.14 69.7348 1196.7 69.2955L1193.33 65.9205C1192.89 65.4812 1192.89 64.7688 1193.33 64.3295Z" fill="#171717"/>
<path d="M1163.26 79C1160.56 79 1157.79 78.603 1154.87 77.809C1154.38 77.6736 1154.09 77.1683 1154.22 76.6811C1154.35 76.1938 1154.86 75.9051 1155.35 76.0314C1164.14 78.4045 1171.61 77.0149 1179.56 71.5108C1179.98 71.222 1180.56 71.3213 1180.85 71.7454C1181.14 72.1604 1181.03 72.7379 1180.61 73.0267C1174.8 77.042 1169.22 79 1163.26 79Z" fill="black"/>
<path d="M1153.32 74.0643C1153.49 73.7214 1153.76 73.4507 1154.12 73.3334C1154.89 73.0718 1155.71 73.568 1156.04 74.4162C1156.28 75.0118 1156.45 75.7426 1156.45 76.3291C1156.46 76.4645 1156.45 76.5998 1156.42 76.7352C1156.17 77.9714 1154.98 78.7564 1152.78 78.3233C1150.57 77.8992 1149.81 76.6901 1150.04 75.4539C1150.29 74.1094 1151.68 73.7936 1153.32 74.0643Z" fill="black"/>
<path d="M1227.54 92.0262C1227.14 92.0262 1226.73 92.0172 1226.33 92.0081C1225.34 91.9811 1224.5 91.5931 1223.83 90.8441C1221.45 88.1913 1221.97 81.5051 1222.25 77.9048C1222.31 77.219 1222.35 76.6325 1222.35 76.3438C1222.35 75.8385 1222.77 75.4234 1223.27 75.4234C1223.78 75.4234 1224.19 75.8385 1224.19 76.3438C1224.19 76.7047 1224.15 77.2732 1224.09 78.0492C1223.86 80.8915 1223.34 87.5507 1225.2 89.617C1225.52 89.9779 1225.9 90.1584 1226.37 90.1764C1240.28 90.5734 1247.81 84.0857 1249.33 70.3433C1249.39 69.838 1249.85 69.4771 1250.34 69.5313C1250.85 69.5854 1251.21 70.0456 1251.16 70.5419C1249.58 84.7986 1241.64 92.0262 1227.54 92.0262Z" fill="black"/>
<path d="M1248.85 67.4651C1248.47 67.4651 1248.12 67.6005 1247.86 67.8802C1247.3 68.4667 1247.42 69.4232 1248.05 70.0728C1248.5 70.533 1249.09 70.9932 1249.62 71.2368C1249.74 71.3 1249.86 71.3541 1250 71.3812C1251.23 71.67 1252.44 70.903 1252.96 68.7374C1253.49 66.5538 1252.71 65.3627 1251.49 65.0559C1250.15 64.7311 1249.29 65.859 1248.85 67.4651Z" fill="black"/>
</g>
</g>
<g clip-path="url(#clip2_585_32679)">
<mask id="mask2_585_32679" style="mask-type:luminance" maskUnits="userSpaceOnUse" x="942" y="94" width="162" height="103">
<path d="M1104 94H942V197H1104V94Z" fill="white"/>
</mask>
<g mask="url(#mask2_585_32679)">
<path d="M962.31 133.603L961.868 133.654V134.099V156.901V157.354L962.318 157.398L988.815 160.027V169.198C984.119 169.786 978.386 170.082 971.611 170.082C964.981 170.082 956.615 168.885 946.503 166.479L945.983 166.355L945.894 166.882L941.507 192.828L941.428 193.293L941.887 193.399C953.725 196.132 965.356 197.5 976.781 197.5C982.436 197.5 988.038 197.237 993.588 196.712C999.175 196.288 1004.2 195.017 1008.65 192.891C1013.12 190.754 1016.69 187.599 1019.35 183.433C1022.13 179.129 1023.5 173.256 1023.5 165.864C1023.5 160.074 1022.19 155.164 1019.54 151.16C1016.94 147.236 1013.08 144.22 1007.99 142.098V141.946C1012.26 139.619 1015.5 136.563 1017.68 132.776C1019.89 128.912 1020.99 124.314 1020.99 119.003C1020.99 112.869 1019.84 108.038 1017.46 104.568C1015.11 101.135 1012 98.6103 1008.16 97.0006C1004.34 95.2969 999.997 94.2905 995.145 93.9729C990.434 93.6576 985.67 93.5 980.855 93.5C968.996 93.5 956.621 95.5015 943.732 99.498L943.312 99.6283L943.388 100.062L947.461 123.335L947.55 123.844L948.056 123.738C958.588 121.54 967.272 120.447 974.118 120.447C977.661 120.447 980.675 120.551 983.163 120.759L983.174 120.76L983.184 120.761C985.456 120.856 987.332 120.993 988.815 121.173V130.509L962.31 133.603Z" fill="#9A00D0" stroke="white"/>
<path d="M1081.5 98V97.5H1081H1003H1002.46L1002.5 98.042L1004.87 126.079L1004.9 126.543L1005.37 126.537L1042.44 126.071L1014.51 196.816L1014.24 197.5H1014.98H1050.59H1050.93L1051.06 197.179L1081.47 117.979L1081.5 117.893V117.8V98Z" fill="#9A00D0" stroke="white"/>
<path d="M1030 138C1036.63 138 1042 132.627 1042 126C1042 119.373 1036.63 114 1030 114C1023.37 114 1018 119.373 1018 126C1018 132.627 1023.37 138 1030 138Z" fill="white"/>
<path d="M1034 134C1038.42 134 1042 130.418 1042 126C1042 121.582 1038.42 118 1034 118C1029.58 118 1026 121.582 1026 126C1026 130.418 1029.58 134 1034 134Z" fill="#171717"/>
<path d="M1038.5 124C1039.33 124 1040 123.328 1040 122.5C1040 121.672 1039.33 121 1038.5 121C1037.67 121 1037 121.672 1037 122.5C1037 123.328 1037.67 124 1038.5 124Z" fill="white"/>
<path d="M1055 138C1061.63 138 1067 132.627 1067 126C1067 119.373 1061.63 114 1055 114C1048.37 114 1043 119.373 1043 126C1043 132.627 1048.37 138 1055 138Z" fill="white"/>
<path d="M1059 134C1063.42 134 1067 130.418 1067 126C1067 121.582 1063.42 118 1059 118C1054.58 118 1051 121.582 1051 126C1051 130.418 1054.58 134 1059 134Z" fill="#171717"/>
<path d="M1063.5 124C1064.33 124 1065 123.328 1065 122.5C1065 121.672 1064.33 121 1063.5 121C1062.67 121 1062 121.672 1062 122.5C1062 123.328 1062.67 124 1063.5 124Z" fill="white"/>
<path fill-rule="evenodd" clip-rule="evenodd" d="M1038.33 133.329C1038.77 132.89 1039.48 132.89 1039.92 133.329L1042.5 135.909L1045.08 133.329C1045.52 132.89 1046.23 132.89 1046.67 133.329C1047.11 133.769 1047.11 134.481 1046.67 134.92L1043.29 138.295C1042.86 138.735 1042.14 138.735 1041.7 138.295L1038.33 134.92C1037.89 134.481 1037.89 133.769 1038.33 133.329Z" fill="#171717"/>
<path d="M1098.92 165.952C1098.83 165.952 1098.72 165.924 1098.64 165.896L1055.81 151.296C1055.33 151.127 1055.08 150.622 1055.25 150.145C1055.42 149.667 1055.92 149.415 1056.4 149.583L1099.23 164.155C1099.7 164.323 1099.96 164.829 1099.79 165.306C1099.65 165.699 1099.31 165.952 1098.92 165.952Z" fill="black"/>
<path d="M1101.56 163.537C1101.56 163.172 1101.41 162.807 1101.16 162.554C1100.57 161.993 1099.62 162.105 1098.97 162.723C1098.52 163.172 1098.05 163.734 1097.79 164.267C1097.74 164.379 1097.68 164.52 1097.65 164.632C1097.37 165.839 1098.1 167.075 1100.26 167.58C1102.43 168.114 1103.63 167.355 1103.94 166.148C1104.28 164.857 1103.15 163.986 1101.56 163.537Z" fill="black"/>
<path d="M1001.59 128.609C1001.81 128.301 1002.12 128.076 1002.48 128.02C1003.27 127.879 1004 128.497 1004.17 129.396C1004.31 130.013 1004.34 130.771 1004.25 131.333C1004.25 131.473 1004.22 131.586 1004.17 131.726C1003.72 132.905 1002.43 133.467 1000.35 132.681C998.246 131.894 997.712 130.603 998.133 129.424C998.582 128.132 1000.01 128.048 1001.59 128.609Z" fill="black"/>
<path d="M1038.72 142.732C1038.63 142.732 1038.55 142.732 1038.46 142.704L1001.95 132.372C1001.47 132.232 1001.19 131.726 1001.3 131.249C1001.45 130.772 1001.95 130.491 1002.43 130.603L1038.97 140.935C1039.44 141.076 1039.73 141.581 1039.61 142.058C1039.47 142.48 1039.11 142.732 1038.72 142.732Z" fill="black"/>
</g>
</g>
<g clip-path="url(#clip3_585_32679)">
<mask id="mask3_585_32679" style="mask-type:luminance" maskUnits="userSpaceOnUse" x="788" y="134" width="140" height="103">
<path d="M928 134H788V237H928V134Z" fill="white"/>
</mask>
<g mask="url(#mask3_585_32679)">
<path d="M808.31 173.603L807.868 173.654V174.099V196.901V197.354L808.318 197.398L834.815 200.027V209.198C830.119 209.786 824.386 210.082 817.611 210.082C810.981 210.082 802.615 208.885 792.503 206.479L791.983 206.355L791.894 206.882L787.507 232.828L787.428 233.293L787.887 233.399C799.725 236.132 811.356 237.5 822.781 237.5C828.436 237.5 834.038 237.237 839.588 236.712C845.175 236.288 850.196 235.017 854.645 232.891C859.115 230.754 862.685 227.599 865.347 223.433C868.134 219.129 869.5 213.256 869.5 205.864C869.5 200.074 868.189 195.164 865.539 191.16C862.941 187.236 859.08 184.22 853.989 182.098V181.946C858.265 179.619 861.501 176.563 863.676 172.776C865.895 168.912 866.993 164.314 866.993 159.003C866.993 152.869 865.836 148.038 863.459 144.568C861.108 141.135 858.004 138.61 854.158 137.001C850.337 135.297 845.997 134.29 841.145 133.973C836.434 133.658 831.67 133.5 826.855 133.5C814.996 133.5 802.621 135.501 789.732 139.498L789.312 139.628L789.388 140.062L793.461 163.335L793.55 163.844L794.056 163.738C804.588 161.54 813.272 160.447 820.118 160.447C823.661 160.447 826.675 160.551 829.163 160.759L829.174 160.76L829.184 160.761C831.456 160.856 833.332 160.993 834.815 161.173V170.509L808.31 173.603Z" fill="#002FA8" stroke="white"/>
<path d="M927.5 211.656V211.156H927H909.804V138V137.5H909.304H884.34H884.284L884.229 137.512L847.889 145.749L847.5 145.837V146.237V171.581V172.116L848.034 172.08L875.624 170.215V211.156H848H847.5V211.656V237V237.5H848H927H927.5V237V211.656Z" fill="#002FA8" stroke="white"/>
<path d="M876.913 211.358C876.425 211.358 875.998 210.991 875.937 210.47C875.876 209.918 876.273 209.428 876.822 209.367C888.378 207.988 907.405 205.354 909.326 204.19C913.412 201.648 909.936 192.703 908.259 189.456C908.015 188.966 908.198 188.353 908.686 188.108C909.174 187.863 909.783 188.047 910.027 188.537C910.302 189.088 916.857 201.893 910.363 205.906C907.435 207.713 880.176 211.021 877.065 211.389C877.004 211.358 876.974 211.358 876.913 211.358Z" fill="black"/>
<path d="M873.528 208.969C873.498 208.571 877.645 208.172 877.645 209.52C877.736 209.643 877.797 209.765 877.828 209.918C878.224 211.236 877.492 212.583 875.175 213.319C872.857 214.054 871.516 213.288 871.089 211.971C870.662 210.562 871.821 209.551 873.528 208.969Z" fill="black"/>
<path d="M862.003 209.203C861.728 209.203 861.454 209.08 861.24 208.866C860.874 208.437 860.935 207.824 861.362 207.457C868.04 201.728 875.236 195.051 875.724 193.764C876.547 191.589 877.249 186.872 877.249 186.841C877.34 186.29 877.828 185.922 878.377 186.014C878.926 186.106 879.291 186.596 879.2 187.147C879.17 187.362 878.468 192.141 877.553 194.499C876.639 196.919 864.93 206.967 862.612 208.988C862.46 209.111 862.216 209.203 862.003 209.203Z" fill="black"/>
<path d="M862.759 206.814C862.881 206.905 862.972 207.028 863.033 207.151C863.765 208.284 863.43 209.816 861.417 211.133C859.374 212.481 857.88 212.113 857.118 210.98C856.325 209.754 859.679 205.251 862.759 206.814Z" fill="black"/>
<path d="M900 178C893.373 178 888 172.627 888 166C888 159.373 893.373 154 900 154C906.627 154 912 159.373 912 166C912 172.627 906.627 178 900 178Z" fill="white"/>
<path d="M896 174C891.582 174 888 170.418 888 166C888 161.582 891.582 158 896 158C900.418 158 904 161.582 904 166C904 170.418 900.418 174 896 174Z" fill="#171717"/>
<path d="M891.5 164C890.672 164 890 163.328 890 162.5C890 161.672 890.672 161 891.5 161C892.328 161 893 161.672 893 162.5C893 163.328 892.328 164 891.5 164Z" fill="white"/>
<path d="M875 178C868.373 178 863 172.627 863 166C863 159.373 868.373 154 875 154C881.627 154 887 159.373 887 166C887 172.627 881.627 178 875 178Z" fill="white"/>
<path d="M871 174C866.582 174 863 170.418 863 166C863 161.582 866.582 158 871 158C875.418 158 879 161.582 879 166C879 170.418 875.418 174 871 174Z" fill="#171717"/>
<path d="M866.5 164C865.672 164 865 163.328 865 162.5C865 161.672 865.672 161 866.5 161C867.328 161 868 161.672 868 162.5C868 163.328 867.328 164 866.5 164Z" fill="white"/>
<path fill-rule="evenodd" clip-rule="evenodd" d="M891.67 173.329C891.231 172.89 890.519 172.89 890.08 173.329L887.5 175.909L884.921 173.329C884.481 172.89 883.769 172.89 883.33 173.329C882.89 173.769 882.89 174.481 883.33 174.92L886.705 178.295C887.144 178.735 887.856 178.735 888.295 178.295L891.67 174.92C892.11 174.481 892.11 173.769 891.67 173.329Z" fill="#171717"/>
</g>
</g>
<g clip-path="url(#clip4_585_32679)">
<mask id="mask4_585_32679" style="mask-type:luminance" maskUnits="userSpaceOnUse" x="472" y="86" width="156" height="99">
<path d="M628 86H472V185H628V86Z" fill="white"/>
</mask>
<g mask="url(#mask4_585_32679)">
<path d="M551.5 159.656V159.156H551H533.804V86V85.5H533.304H508.34H508.284L508.229 85.5124L471.889 93.7492L471.5 93.8374V94.2368V119.581V120.116L472.034 120.08L499.624 118.215V159.156H472H471.5V159.656V185V185.5H472H551H551.5V185V159.656Z" fill="#76D200" stroke="white"/>
<path d="M571.988 152.86H571.99L579.425 153.008V161.198C574.681 161.786 569.037 162.082 562.491 162.082C556.1 162.082 547.795 160.885 537.564 158.478L537.046 158.356L536.956 158.881L532.519 184.827L532.439 185.294L532.9 185.399C544.883 188.135 558.34 189.5 573.268 189.5C580.916 189.5 587.373 188.499 592.625 186.479C597.884 184.455 602.136 181.308 605.365 177.036C608.588 172.771 610.885 167.353 612.27 160.802C613.759 154.256 614.5 146.461 614.5 137.421C614.5 128.383 613.812 120.64 612.429 114.201C611.043 107.645 608.692 102.224 605.36 97.9579C602.023 93.6855 597.612 90.5402 592.143 88.5188C586.682 86.5003 579.963 85.5 572 85.5C565.848 85.5 560.167 85.9734 554.957 86.9225C549.724 87.7708 545.217 89.4699 541.451 92.0312C537.67 94.4974 534.708 97.9775 532.561 102.452L532.556 102.461C530.509 106.952 529.5 112.743 529.5 119.809C529.5 125.19 530.085 129.904 531.263 133.945L531.267 133.956C532.562 138.024 534.777 141.456 537.909 144.242L537.915 144.248C541.16 147.038 545.517 149.11 550.957 150.486L550.959 150.487C556.501 151.862 563.514 152.65 571.988 152.86ZM566.371 111.444L566.384 111.437L566.396 111.43C567.642 110.669 569.947 110.245 573.426 110.245H579.425V120.91C579.425 123.689 578.747 125.28 577.616 125.98C576.358 126.645 574.044 127.014 570.574 127.014H564.576V116.35C564.576 113.551 565.261 112.037 566.371 111.444Z" fill="#76D200" stroke="white"/>
<path d="M560 126C566.627 126 572 120.627 572 114C572 107.373 566.627 102 560 102C553.373 102 548 107.373 548 114C548 120.627 553.373 126 560 126Z" fill="white"/>
<path d="M564 122C568.418 122 572 118.418 572 114C572 109.582 568.418 106 564 106C559.582 106 556 109.582 556 114C556 118.418 559.582 122 564 122Z" fill="#171717"/>
<path d="M568.5 112C569.328 112 570 111.328 570 110.5C570 109.672 569.328 109 568.5 109C567.672 109 567 109.672 567 110.5C567 111.328 567.672 112 568.5 112Z" fill="white"/>
<path d="M585 126C591.627 126 597 120.627 597 114C597 107.373 591.627 102 585 102C578.373 102 573 107.373 573 114C573 120.627 578.373 126 585 126Z" fill="white"/>
<path d="M589 122C593.418 122 597 118.418 597 114C597 109.582 593.418 106 589 106C584.582 106 581 109.582 581 114C581 118.418 584.582 122 589 122Z" fill="#171717"/>
<path d="M593.5 112C594.328 112 595 111.328 595 110.5C595 109.672 594.328 109 593.5 109C592.672 109 592 109.672 592 110.5C592 111.328 592.672 112 593.5 112Z" fill="white"/>
<path fill-rule="evenodd" clip-rule="evenodd" d="M568.33 121.329C568.769 120.89 569.481 120.89 569.921 121.329L572.5 123.909L575.08 121.329C575.519 120.89 576.231 120.89 576.67 121.329C577.11 121.769 577.11 122.481 576.67 122.92L573.295 126.295C572.856 126.735 572.144 126.735 571.705 126.295L568.33 122.92C567.89 122.481 567.89 121.769 568.33 121.329Z" fill="#171717"/>
<path d="M535.692 149.105C529.94 149.105 520.663 140.202 519.56 139.117C519.171 138.726 519.171 138.118 519.539 137.727C519.928 137.336 520.534 137.336 520.923 137.705C523.864 140.593 532.362 147.889 536.233 147.064C541.012 146.087 546.418 137.401 546.462 137.315C546.743 136.859 547.348 136.707 547.824 136.989C548.278 137.271 548.429 137.879 548.148 138.357C547.91 138.748 542.245 147.845 536.666 148.996C536.363 149.083 536.038 149.105 535.692 149.105Z" fill="black"/>
<path d="M521.247 136.88C521.55 136.62 521.939 136.468 522.35 136.511C523.215 136.598 523.799 137.445 523.734 138.422C523.691 139.117 523.539 139.898 523.28 140.485C523.236 140.615 523.172 140.745 523.085 140.876C522.307 141.983 520.771 142.222 518.825 140.832C516.857 139.421 516.641 137.901 517.419 136.794C518.263 135.578 519.755 135.882 521.247 136.88Z" fill="black"/>
<path d="M606.705 146.901C606.575 146.901 606.467 146.901 606.337 146.88C600.65 146.489 593.795 138.281 593.514 137.934C593.168 137.521 593.233 136.892 593.644 136.544C594.054 136.197 594.682 136.262 595.028 136.675C595.092 136.762 601.623 144.6 606.467 144.926C610.554 145.186 619.442 138.846 622.513 136.371C622.945 136.023 623.551 136.088 623.897 136.523C624.242 136.957 624.178 137.565 623.745 137.912C623.291 138.281 612.479 146.901 606.705 146.901Z" fill="black"/>
<path d="M623.486 134.568C623.226 134.265 622.88 134.047 622.469 134.004C621.604 133.939 620.869 134.677 620.761 135.632C620.674 136.327 620.674 137.109 620.826 137.739C620.847 137.869 620.891 138.021 620.956 138.151C621.539 139.367 622.988 139.888 625.151 138.868C627.335 137.847 627.811 136.392 627.248 135.155C626.664 133.83 625.129 133.852 623.486 134.568Z" fill="black"/>
</g>
</g>
<g clip-path="url(#clip5_585_32679)">
<mask id="mask5_585_32679" style="mask-type:luminance" maskUnits="userSpaceOnUse" x="317" y="105" width="147" height="99">
<path d="M464 105H317V204H464V105Z" fill="white"/>
</mask>
<g mask="url(#mask5_585_32679)">
<path d="M396.5 178.656V178.156H396H378.804V105V104.5H378.304H353.34H353.284L353.229 104.512L316.889 112.749L316.5 112.837V113.237V138.581V139.116L317.034 139.08L344.624 137.215V178.156H317H316.5V178.656V204V204.5H317H396H396.5V204V178.656Z" fill="#FBE41A" stroke="white"/>
<path d="M391.309 144.603L390.867 144.654V145.099V167.901V168.354L391.318 168.398L417.815 171.027V180.198C413.119 180.786 407.386 181.082 400.611 181.082C393.981 181.082 385.615 179.885 375.503 177.479L374.983 177.355L374.894 177.882L370.507 203.828L370.428 204.293L370.887 204.399C382.725 207.132 394.356 208.5 405.781 208.5C411.435 208.5 417.038 208.237 422.588 207.712C428.175 207.288 433.196 206.017 437.645 203.891C442.115 201.754 445.685 198.599 448.347 194.433C451.134 190.129 452.5 184.256 452.5 176.864C452.5 171.074 451.189 166.164 448.539 162.16C445.941 158.236 442.08 155.22 436.989 153.098V152.946C441.265 150.619 444.501 147.563 446.676 143.776C448.895 139.912 449.993 135.314 449.993 130.003C449.993 123.869 448.836 119.038 446.459 115.568C444.108 112.135 441.004 109.61 437.158 108.001C433.337 106.297 428.997 105.29 424.145 104.973C419.434 104.658 414.67 104.5 409.855 104.5C397.996 104.5 385.621 106.501 372.732 110.498L372.312 110.628L372.388 111.062L376.461 134.335L376.55 134.844L377.056 134.738C387.588 132.54 396.272 131.447 403.118 131.447C406.66 131.447 409.675 131.551 412.163 131.759L412.174 131.76L412.184 131.761C414.456 131.856 416.332 131.993 417.815 132.173V141.509L391.309 144.603Z" fill="#FBE41A" stroke="white"/>
<path d="M399 145C405.627 145 411 139.627 411 133C411 126.373 405.627 121 399 121C392.373 121 387 126.373 387 133C387 139.627 392.373 145 399 145Z" fill="white"/>
<path d="M403 141C407.418 141 411 137.418 411 133C411 128.582 407.418 125 403 125C398.582 125 395 128.582 395 133C395 137.418 398.582 141 403 141Z" fill="#171717"/>
<path d="M407.5 131C408.328 131 409 130.328 409 129.5C409 128.672 408.328 128 407.5 128C406.672 128 406 128.672 406 129.5C406 130.328 406.672 131 407.5 131Z" fill="white"/>
<path d="M424 145C430.627 145 436 139.627 436 133C436 126.373 430.627 121 424 121C417.373 121 412 126.373 412 133C412 139.627 417.373 145 424 145Z" fill="white"/>
<path d="M428 141C432.418 141 436 137.418 436 133C436 128.582 432.418 125 428 125C423.582 125 420 128.582 420 133C420 137.418 423.582 141 428 141Z" fill="#171717"/>
<path d="M432.5 131C433.328 131 434 130.328 434 129.5C434 128.672 433.328 128 432.5 128C431.672 128 431 128.672 431 129.5C431 130.328 431.672 131 432.5 131Z" fill="white"/>
<path fill-rule="evenodd" clip-rule="evenodd" d="M407.329 140.329C407.769 139.89 408.481 139.89 408.921 140.329L411.5 142.909L414.079 140.329C414.519 139.89 415.231 139.89 415.671 140.329C416.11 140.769 416.11 141.481 415.671 141.92L412.296 145.295C411.856 145.735 411.144 145.735 410.704 145.295L407.329 141.92C406.89 141.481 406.89 140.769 407.329 140.329Z" fill="#171717"/>
<path d="M392.303 157.002C392.001 157.002 391.722 156.885 391.513 156.649C391.095 156.179 381.47 145.191 378.959 139.473C376.518 133.92 379.494 114.626 379.61 113.802C379.703 113.214 380.238 112.814 380.819 112.908C381.4 113.002 381.795 113.544 381.702 114.132C380.865 119.544 379.075 134.461 380.888 138.602C383.26 144.014 392.978 155.12 393.071 155.214C393.466 155.661 393.419 156.344 392.978 156.72C392.815 156.908 392.559 157.002 392.303 157.002Z" fill="black"/>
<path d="M382.934 112.367C383.353 112.461 383.725 112.697 383.957 113.073C384.445 113.873 384.097 114.932 383.236 115.544C382.632 115.967 381.865 116.344 381.191 116.508C381.051 116.555 380.888 116.579 380.726 116.579C379.308 116.626 378.099 115.473 378.006 112.885C377.913 110.249 379.075 109.073 380.516 109.002C382.097 108.932 382.818 110.438 382.934 112.367Z" fill="black"/>
<path d="M439.07 157.12C438.791 157.12 438.512 157.002 438.302 156.791C437.884 156.367 437.907 155.685 438.326 155.285C438.419 155.191 448.508 145.285 451.345 140.485C453.623 136.649 451.879 121.614 451.042 116.132C450.949 115.544 451.345 115.002 451.926 114.908C452.507 114.814 453.042 115.214 453.135 115.802C453.46 117.897 456.25 136.391 453.181 141.591C450.182 146.626 440.232 156.414 439.814 156.838C439.604 157.026 439.349 157.12 439.07 157.12Z" fill="black"/>
<path d="M449.834 114.367C449.415 114.461 449.043 114.697 448.811 115.073C448.322 115.873 448.671 116.932 449.531 117.544C450.136 117.967 450.903 118.344 451.577 118.508C451.717 118.555 451.879 118.579 452.042 118.579C453.484 118.626 454.692 117.473 454.785 114.861C454.878 112.249 453.716 111.049 452.275 111.002C450.671 110.932 449.95 112.438 449.834 114.367Z" fill="black"/>
</g>
</g>
<g clip-path="url(#clip6_585_32679)">
<path d="M171.836 115.057L171.834 115.063C170.944 121.017 170.5 127.805 170.5 135.426C170.5 142.948 170.944 149.736 171.834 155.787L171.836 155.795C172.829 161.875 174.771 167.08 177.673 171.395L177.676 171.4C180.589 175.63 184.652 178.895 189.846 181.199L189.856 181.204C195.157 183.41 202.072 184.5 210.574 184.5C219.075 184.5 225.942 183.41 231.147 181.202L231.151 181.2C236.442 178.897 240.509 175.632 243.326 171.396C246.231 167.176 248.123 162.019 249.017 155.939C250.007 149.886 250.5 143.097 250.5 135.574C250.5 127.953 250.056 121.116 249.166 115.065C248.271 108.984 246.379 103.824 243.474 99.6038C240.657 95.3671 236.589 92.1508 231.297 89.9467C226.09 87.6383 219.172 86.5 210.574 86.5C202.071 86.5 195.154 87.6392 189.851 89.9467C184.655 92.1518 180.59 95.3681 177.676 99.6004C174.771 103.819 172.829 108.977 171.836 115.057ZM207.621 159.657H201.919V118.692C201.919 115.256 202.711 113.353 204.027 112.611C204.738 112.21 205.801 111.889 207.252 111.67C208.696 111.453 210.49 111.343 212.641 111.343H219.081V152.308C219.081 155.602 218.212 157.528 216.689 158.382C215.029 159.211 212.037 159.657 207.621 159.657Z" fill="#F49300" stroke="white"/>
<path d="M274 125C267.373 125 262 119.627 262 113C262 106.373 267.373 101 274 101C280.627 101 286 106.373 286 113C286 119.627 280.627 125 274 125Z" fill="white"/>
<path d="M270 121C265.582 121 262 117.418 262 113C262 108.582 265.582 105 270 105C274.418 105 278 108.582 278 113C278 117.418 274.418 121 270 121Z" fill="#171717"/>
<path d="M265.5 111C264.672 111 264 110.328 264 109.5C264 108.672 264.672 108 265.5 108C266.328 108 267 108.672 267 109.5C267 110.328 266.328 111 265.5 111Z" fill="white"/>
<path d="M249 125C242.373 125 237 119.627 237 113C237 106.373 242.373 101 249 101C255.627 101 261 106.373 261 113C261 119.627 255.627 125 249 125Z" fill="white"/>
<path d="M245 121C240.582 121 237 117.418 237 113C237 108.582 240.582 105 245 105C249.418 105 253 108.582 253 113C253 117.418 249.418 121 245 121Z" fill="#171717"/>
<path d="M240.5 111C239.672 111 239 110.328 239 109.5C239 108.672 239.672 108 240.5 108C241.328 108 242 108.672 242 109.5C242 110.328 241.328 111 240.5 111Z" fill="white"/>
<path fill-rule="evenodd" clip-rule="evenodd" d="M265.671 120.329C265.231 119.89 264.519 119.89 264.08 120.329L261.5 122.909L258.921 120.329C258.481 119.89 257.769 119.89 257.33 120.329C256.89 120.769 256.89 121.481 257.33 121.92L260.705 125.295C261.144 125.735 261.856 125.735 262.296 125.295L265.671 121.92C266.11 121.481 266.11 120.769 265.671 120.329Z" fill="#171717"/>
<path d="M302.5 86V85.5H302H224H223.456L223.502 86.042L225.865 114.079L225.904 114.543L226.37 114.537L263.443 114.071L235.511 184.816L235.241 185.5H235.976H271.588H271.931L272.055 185.179L302.467 105.979L302.5 105.893V105.8V86Z" fill="#F49300" stroke="white"/>
<path d="M251 126C257.627 126 263 120.627 263 114C263 107.373 257.627 102 251 102C244.373 102 239 107.373 239 114C239 120.627 244.373 126 251 126Z" fill="white"/>
<path d="M255 122C259.418 122 263 118.418 263 114C263 109.582 259.418 106 255 106C250.582 106 247 109.582 247 114C247 118.418 250.582 122 255 122Z" fill="#171717"/>
<path d="M259.5 112C260.328 112 261 111.328 261 110.5C261 109.672 260.328 109 259.5 109C258.672 109 258 109.672 258 110.5C258 111.328 258.672 112 259.5 112Z" fill="white"/>
<path d="M276 126C282.627 126 288 120.627 288 114C288 107.373 282.627 102 276 102C269.373 102 264 107.373 264 114C264 120.627 269.373 126 276 126Z" fill="white"/>
<path d="M280 122C284.418 122 288 118.418 288 114C288 109.582 284.418 106 280 106C275.582 106 272 109.582 272 114C272 118.418 275.582 122 280 122Z" fill="#171717"/>
<path d="M284.5 112C285.328 112 286 111.328 286 110.5C286 109.672 285.328 109 284.5 109C283.672 109 283 109.672 283 110.5C283 111.328 283.672 112 284.5 112Z" fill="white"/>
<path fill-rule="evenodd" clip-rule="evenodd" d="M259.33 121.329C259.769 120.89 260.481 120.89 260.921 121.329L263.5 123.909L266.08 121.329C266.519 120.89 267.231 120.89 267.671 121.329C268.11 121.769 268.11 122.481 267.671 122.92L264.296 126.295C263.856 126.735 263.144 126.735 262.705 126.295L259.33 122.92C258.89 122.481 258.89 121.769 259.33 121.329Z" fill="#171717"/>
<path d="M257.07 132.669C256.785 132.669 256.501 132.553 256.29 132.321C255.889 131.869 246.413 121.204 243.946 115.65C241.543 110.254 244.463 91.5418 244.579 90.7424C244.663 90.1744 245.201 89.7853 245.77 89.8799C246.339 89.9641 246.729 90.5005 246.634 91.0685C245.812 96.3066 244.052 110.79 245.844 114.808C248.184 120.068 257.744 130.828 257.839 130.933C258.219 131.364 258.187 132.016 257.755 132.406C257.565 132.584 257.312 132.669 257.07 132.669Z" fill="black"/>
<path d="M247.456 90.5214C247.973 91.3313 247.751 92.4568 246.993 93.1194C246.465 93.5822 247.267 93.0984 246.666 93.2877C246.539 93.3403 246.392 93.3824 246.244 93.3929C244.926 93.5086 243.725 92.3621 243.419 89.6589C243.124 86.9346 243.598 84.0105 245.38 84C247.193 83.9895 247.214 90.1322 247.456 90.5214Z" fill="black"/>
<path d="M293.413 161.38C293.061 161.38 292.73 161.205 292.534 160.885C292.245 160.4 292.4 159.771 292.885 159.482C300.266 155.088 305.631 149.941 306.231 146.692C306.376 145.908 306.241 145.268 305.817 144.732C301.662 139.44 289.97 132.034 286.487 129.888C286.001 129.589 285.856 128.96 286.156 128.486C286.456 128.001 287.086 127.856 287.562 128.155C291.118 130.342 303.068 137.913 307.43 143.473C308.226 144.484 308.495 145.691 308.247 147.063C307.378 151.746 300.277 157.45 293.94 161.236C293.774 161.339 293.588 161.38 293.413 161.38Z" fill="black"/>
<path d="M294.26 161.422C294.684 160.576 294.333 159.503 293.526 158.936C292.958 158.533 293.795 158.936 293.196 158.802C293.061 158.76 292.927 158.74 292.772 158.74C291.459 158.771 290.415 160.019 290.415 162.69C290.415 165.372 291.19 168.168 292.937 167.992C294.715 167.817 294.064 161.824 294.26 161.422Z" fill="black"/>
</g>
<g clip-path="url(#clip7_585_32679)">
<path d="M19.8355 59.0567L19.8345 59.0634C18.944 65.0171 18.5 71.8054 18.5 79.426C18.5 86.9483 18.9441 93.736 19.8342 99.7873L19.8355 99.7952C20.8293 105.875 22.771 111.08 25.6729 115.395L25.676 115.4C28.5889 119.63 32.6522 122.895 37.8459 125.199L37.8564 125.204C43.1573 127.41 50.0716 128.5 58.5738 128.5C67.0754 128.5 73.9423 127.41 79.1467 125.202L79.1509 125.2C84.4423 122.897 88.5094 119.632 91.3263 115.396C94.2307 111.176 96.1226 106.019 97.0174 99.9395C98.0067 93.8862 98.5 87.0969 98.5 79.5741C98.5 71.9534 98.056 65.1162 97.1657 59.0646C96.2711 52.9838 94.379 47.8245 91.4739 43.6038C88.6566 39.3671 84.5886 36.1508 79.2966 33.9467C74.0896 31.6383 67.1719 30.5 58.5738 30.5C50.0708 30.5 43.1543 31.6392 37.8512 33.9467C32.6552 36.1518 28.5899 39.3681 25.676 43.6004C22.7714 47.8193 20.8294 52.9767 19.8355 59.0567ZM55.6206 103.657H49.9187V62.6916C49.9187 59.2562 50.7112 57.3534 52.027 56.6111C52.7381 56.2099 53.8015 55.8886 55.252 55.6704C56.6957 55.4532 58.4903 55.3428 60.6411 55.3428H67.0813V96.3084C67.0813 99.6016 66.2121 101.528 64.6893 102.382C63.0295 103.211 60.0372 103.657 55.6206 103.657Z" fill="#D00019" stroke="white"/>
<path d="M158.5 102.656V102.156H158H140.804V29V28.5H140.304H115.34H115.284L115.229 28.5124L78.8895 36.7492L78.5 36.8374V37.2368V62.5808V63.1157L79.0337 63.0797L106.624 61.2149V102.156H79H78.5V102.656V128V128.5H79H158H158.5V128V102.656Z" fill="#D00019" stroke="white"/>
<path d="M148.239 102.582C147.861 102.21 147.634 101.728 147.624 101.192C147.624 100.054 148.649 99.1783 149.923 99.1235C150.818 99.0907 151.844 99.1892 152.621 99.4519C152.804 99.4957 152.977 99.5723 153.15 99.6708C154.661 100.568 155.157 102.527 153.603 105.253C152.038 108 150.117 108.471 148.584 107.606C146.933 106.654 147.138 104.651 148.239 102.582Z" fill="black"/>
<path d="M152.016 102.615C151.779 102.615 151.53 102.549 151.315 102.396C150.721 102.002 150.559 101.192 150.948 100.601C154.919 94.4826 160.683 83.5048 159.226 80.068C157.402 75.7557 144.666 71.0056 139.906 69.5389C139.226 69.331 138.849 68.6086 139.054 67.9191C139.259 67.2405 139.971 66.8465 140.651 67.0544C142.518 67.6345 158.967 72.8443 161.579 79.0501C162.69 81.6879 161.59 86.2629 158.2 93.0379C155.815 97.8208 153.193 101.859 153.085 102.035C152.836 102.418 152.437 102.615 152.016 102.615Z" fill="black"/>
<path d="M101.091 101.653C101.387 101.266 101.559 100.783 101.511 100.27C101.415 99.1794 100.433 98.4456 99.3159 98.519C98.5239 98.5714 97.6268 98.7601 96.9684 99.0955C96.8157 99.1584 96.663 99.2423 96.5294 99.3471C95.2793 100.343 95.0121 102.261 96.6057 104.715C98.2185 107.189 99.9553 107.451 101.225 106.476C102.589 105.406 102.236 103.519 101.091 101.653Z" fill="black"/>
<path d="M97.6648 102.052C97.3117 102.052 96.9586 101.874 96.7391 101.528C95.7943 100.07 87.5588 87.1236 89.2193 81.3578C90.9752 75.2671 104.765 67.0587 106.33 66.1466C106.883 65.8217 107.57 66.0523 107.857 66.6603C108.152 67.2683 107.942 68.0231 107.389 68.3376C103.362 70.6964 92.6261 77.7621 91.376 82.1126C90.3835 85.5721 95.2695 94.9756 98.5809 100.091C98.9435 100.647 98.8195 101.423 98.3137 101.821C98.1228 101.978 97.8938 102.052 97.6648 102.052Z" fill="black"/>
<path d="M131 69C124.373 69 119 63.6274 119 57C119 50.3726 124.373 45 131 45C137.627 45 143 50.3726 143 57C143 63.6274 137.627 69 131 69Z" fill="white"/>
<path d="M127 65C122.582 65 119 61.4183 119 57C119 52.5817 122.582 49 127 49C131.418 49 135 52.5817 135 57C135 61.4183 131.418 65 127 65Z" fill="#171717"/>
<path d="M122.5 55C121.672 55 121 54.3284 121 53.5C121 52.6716 121.672 52 122.5 52C123.328 52 124 52.6716 124 53.5C124 54.3284 123.328 55 122.5 55Z" fill="white"/>
<path d="M106 69C99.3726 69 94 63.6274 94 57C94 50.3726 99.3726 45 106 45C112.627 45 118 50.3726 118 57C118 63.6274 112.627 69 106 69Z" fill="white"/>
<path d="M102 65C97.5817 65 94 61.4183 94 57C94 52.5817 97.5817 49 102 49C106.418 49 110 52.5817 110 57C110 61.4183 106.418 65 102 65Z" fill="#171717"/>
<path d="M97.5 55C96.6716 55 96 54.3284 96 53.5C96 52.6716 96.6716 52 97.5 52C98.3284 52 99 52.6716 99 53.5C99 54.3284 98.3284 55 97.5 55Z" fill="white"/>
<path fill-rule="evenodd" clip-rule="evenodd" d="M122.67 64.3295C122.231 63.8902 121.519 63.8902 121.08 64.3295L118.5 66.909L115.921 64.3295C115.481 63.8902 114.769 63.8902 114.33 64.3295C113.89 64.7688 113.89 65.4812 114.33 65.9205L117.705 69.2955C118.144 69.7348 118.856 69.7348 119.295 69.2955L122.67 65.9205C123.11 65.4812 123.11 64.7688 122.67 64.3295Z" fill="#171717"/>
</g>
<g clip-path="url(#clip8_585_32679)">
<mask id="mask6_585_32679" style="mask-type:luminance" maskUnits="userSpaceOnUse" x="636" y="107" width="142" height="101">
<path d="M778 107H636V208H778V107Z" fill="white"/>
</mask>
<g mask="url(#mask6_585_32679)">
<path d="M641.856 136.597L641.947 137.122L642.465 136.997C652.054 134.692 661.802 133.539 671.708 133.539C673.7 133.539 675.747 133.643 677.847 133.852L677.86 133.854L677.873 133.854C679.949 133.952 682.117 134.097 684.38 134.287V142.03C683.077 142.632 681.64 143.324 680.066 144.106C678.374 144.842 676.472 145.683 674.36 146.628C672.246 147.574 669.973 148.573 667.542 149.624L667.534 149.627C665.202 150.681 662.871 151.788 660.539 152.947C658.307 154.004 656.181 155.114 654.16 156.278L654.149 156.284C652.226 157.452 650.512 158.677 649.008 159.958C646.348 162.181 644.105 164.357 642.285 166.486L642.284 166.488C640.565 168.517 639.166 170.657 638.088 172.908L638.084 172.916L638.08 172.925C637.111 175.174 636.412 177.58 635.983 180.142L635.982 180.151L635.98 180.16C635.66 182.605 635.5 185.31 635.5 188.273V208V208.5H636H717.413H717.913V208V182.75V182.25H717.413H673.16V178.692C682.534 175.577 690.211 172.717 696.188 170.11C702.246 167.468 707.004 164.656 710.441 161.665C713.88 158.673 716.264 155.342 717.567 151.67L717.568 151.666C718.861 147.917 719.5 143.441 719.5 138.247C719.5 131.265 718.491 125.659 716.436 121.461C714.493 117.278 711.678 114.096 707.989 111.937C704.322 109.685 699.916 108.248 694.786 107.609C689.786 106.869 684.209 106.5 678.056 106.5C664.99 106.5 651.665 108.507 638.08 112.517L637.652 112.644L637.729 113.083L641.856 136.597Z" fill="#008EDE" stroke="white"/>
<path d="M692.507 203.813L692.428 204.278L692.888 204.384C704.793 207.129 717.483 208.5 730.956 208.5C733.692 208.5 736.743 208.447 740.107 208.342C743.49 208.236 746.821 207.865 750.1 207.23C753.484 206.7 756.662 205.904 759.631 204.841L759.639 204.838L759.646 204.836C762.635 203.659 765.208 202.103 767.358 200.165L767.367 200.156L767.377 200.147C769.856 197.663 771.987 194.124 773.788 189.562C775.602 184.962 776.5 179.32 776.5 172.65C776.5 167.981 775.865 163.873 774.583 160.336C773.401 156.679 771.358 153.556 768.462 150.975C765.567 148.291 761.778 146.105 757.114 144.405C752.447 142.705 746.632 141.436 739.679 140.591L739.678 140.591L730.826 139.539V132.465L767.623 134.643L768.109 134.672L768.151 134.187L770.513 107.043L770.561 106.5H770.015H698.355H697.874L697.855 106.98C697.33 120.131 696.91 130.124 696.595 136.961L696.595 136.969C696.385 143.8 696.28 147.495 696.28 148.031C696.28 152.07 696.81 155.501 697.888 158.31L697.89 158.317C698.979 161.044 700.829 163.328 703.42 165.167L703.43 165.174L703.44 165.18C706.126 166.903 709.648 168.288 713.986 169.348C718.321 170.408 723.753 171.252 730.275 171.885C730.276 171.885 730.277 171.885 730.278 171.885L741.639 173.099V180.1C736.905 180.691 730.932 180.988 723.712 180.988C716.413 180.988 707.687 179.786 697.525 177.371L697.006 177.248L696.917 177.774L692.507 203.813Z" fill="#008EDE" stroke="white"/>
<path d="M722 147C728.627 147 734 141.627 734 135C734 128.373 728.627 123 722 123C715.373 123 710 128.373 710 135C710 141.627 715.373 147 722 147Z" fill="white"/>
<path d="M726 143C730.418 143 734 139.418 734 135C734 130.582 730.418 127 726 127C721.582 127 718 130.582 718 135C718 139.418 721.582 143 726 143Z" fill="#171717"/>
<path d="M730.5 133C731.328 133 732 132.328 732 131.5C732 130.672 731.328 130 730.5 130C729.672 130 729 130.672 729 131.5C729 132.328 729.672 133 730.5 133Z" fill="white"/>
<path d="M747 147C753.627 147 759 141.627 759 135C759 128.373 753.627 123 747 123C740.373 123 735 128.373 735 135C735 141.627 740.373 147 747 147Z" fill="white"/>
<path d="M751 143C755.418 143 759 139.418 759 135C759 130.582 755.418 127 751 127C746.582 127 743 130.582 743 135C743 139.418 746.582 143 751 143Z" fill="#171717"/>
<path d="M755.5 133C756.328 133 757 132.328 757 131.5C757 130.672 756.328 130 755.5 130C754.672 130 754 130.672 754 131.5C754 132.328 754.672 133 755.5 133Z" fill="white"/>
<path fill-rule="evenodd" clip-rule="evenodd" d="M730.33 142.329C730.769 141.89 731.481 141.89 731.921 142.329L734.5 144.909L737.08 142.329C737.519 141.89 738.231 141.89 738.67 142.329C739.11 142.769 739.11 143.481 738.67 143.92L735.296 147.295C734.856 147.735 734.144 147.735 733.705 147.295L730.33 143.92C729.89 143.481 729.89 142.769 730.33 142.329Z" fill="#171717"/>
<path d="M712.788 188.401C712.343 187.699 712.507 186.738 713.163 186.153C713.608 185.754 712.929 186.176 713.444 186.012C713.561 185.965 713.679 185.918 713.796 185.918C714.944 185.801 715.974 186.785 716.255 189.104C716.536 191.447 716.162 193.977 714.639 194C713.093 194.023 712.999 188.729 712.788 188.401Z" fill="black"/>
<path d="M698.522 149C698.288 149 698.031 149.117 697.89 149.328C692.643 156.965 690.324 168.935 697.609 177.227C701.544 181.702 708.127 185.801 713.608 187.23C714.007 187.324 714.428 187.09 714.545 186.691C714.662 186.293 714.405 185.871 714.007 185.754C708.783 184.396 702.528 180.484 698.757 176.22C692.01 168.537 694.212 157.363 699.132 150.195C699.366 149.843 699.272 149.375 698.944 149.141C698.804 149.047 698.663 149 698.522 149Z" fill="black"/>
<path d="M750.553 188.401C750.998 187.699 750.834 186.738 750.178 186.153C749.733 185.754 750.412 186.176 749.897 186.012C749.78 185.965 749.663 185.918 749.546 185.918C748.398 185.801 747.367 186.785 747.086 189.104C746.805 191.447 747.18 193.977 748.702 194C750.248 194.023 750.342 188.729 750.553 188.401Z" fill="black"/>
<path d="M764.819 149C765.053 149 765.311 149.117 765.451 149.328C770.699 156.965 773.018 168.935 765.733 177.227C761.797 181.702 755.215 185.801 749.733 187.23C749.335 187.324 748.913 187.09 748.796 186.691C748.679 186.293 748.937 185.871 749.335 185.754C754.559 184.396 760.813 180.484 764.585 176.22C771.331 168.537 769.129 157.363 764.21 150.195C763.976 149.843 764.069 149.375 764.397 149.141C764.538 149.047 764.678 149 764.819 149Z" fill="black"/>
</g>
</g>
<defs>
<clipPath id="clip0_585_32679">
<rect width="159" height="103" fill="white" transform="translate(1257 22)"/>
</clipPath>
<clipPath id="clip1_585_32679">
<rect width="161" height="103" fill="white" transform="translate(1092 29)"/>
</clipPath>
<clipPath id="clip2_585_32679">
<rect width="162" height="103" fill="white" transform="translate(942 94)"/>
</clipPath>
<clipPath id="clip3_585_32679">
<rect width="140" height="103" fill="white" transform="translate(788 134)"/>
</clipPath>
<clipPath id="clip4_585_32679">
<rect width="156" height="99" fill="white" transform="translate(472 86)"/>
</clipPath>
<clipPath id="clip5_585_32679">
<rect width="147" height="99" fill="white" transform="translate(317 105)"/>
</clipPath>
<clipPath id="clip6_585_32679">
<rect width="139" height="102" fill="white" transform="translate(170 84)"/>
</clipPath>
<clipPath id="clip7_585_32679">
<rect width="144" height="101" fill="white" transform="translate(18 28)"/>
</clipPath>
<clipPath id="clip8_585_32679">
<rect width="142" height="101" fill="white" transform="translate(636 107)"/>
</clipPath>
</defs>
</svg>
