<svg width="111" height="111" viewBox="0 0 111 111" fill="none" xmlns="http://www.w3.org/2000/svg">
    <circle cx="55.25" cy="55.25" r="46.25" fill="#1C319F"/>
    <path d="M54.9311 26.332C56.3359 26.332 57.4938 27.4737 57.4938 28.9009C57.4938 30.309 56.3548 31.4697 54.9311 31.4697C53.5073 31.4697 52.3683 30.328 52.3683 28.9009C52.3683 27.4737 53.5263 26.332 54.9311 26.332ZM66.3591 33.4867C66.7198 33.4867 67.0235 33.1823 67.0235 32.8207V30.1948C67.0235 29.2243 66.2452 28.4442 65.277 28.4442H59.1074C58.7088 26.4842 57.0003 25 54.9311 25C52.8619 25 51.1534 26.4842 50.7737 28.4442H44.6801C43.7119 28.4442 42.9336 29.2243 42.9336 30.1948V32.8207C42.9336 33.1823 43.2373 33.4867 43.598 33.4867H66.3591Z" fill="#EEF5FF"/>
    <path d="M69.8914 60.1838H64.3293C63.7029 60.1838 63.1903 59.6701 63.1903 59.0421C63.1903 58.4142 63.7029 57.9004 64.3293 57.9004H69.8914C70.5179 57.9004 71.0304 58.4142 71.0304 59.0421C71.0304 59.6701 70.5179 60.1838 69.8914 60.1838ZM69.8914 65.588H40.1635C39.537 65.588 39.0245 65.0742 39.0245 64.4462C39.0245 63.8183 39.537 63.3045 40.1635 63.3045H69.8914C70.5179 63.3045 71.0304 63.8183 71.0304 64.4462C71.0304 65.0742 70.5179 65.588 69.8914 65.588ZM69.8914 70.973H64.3293C63.7029 70.973 63.1903 70.4593 63.1903 69.8313C63.1903 69.2034 63.7029 68.6896 64.3293 68.6896H69.8914C70.5179 68.6896 71.0304 69.2034 71.0304 69.8313C71.0304 70.4593 70.5179 70.973 69.8914 70.973ZM52.161 69.8313C52.161 69.2034 52.6735 68.6896 53.3 68.6896H58.8621C59.4886 68.6896 60.0011 69.2034 60.0011 69.8313C60.0011 70.4593 59.4886 70.973 58.8621 70.973H53.3C52.6735 70.973 52.161 70.4593 52.161 69.8313ZM39.0055 69.8313C39.0055 69.2034 39.518 68.6896 40.1445 68.6896H47.8138C48.4402 68.6896 48.9528 69.2034 48.9528 69.8313C48.9528 70.4593 48.4402 70.973 47.8138 70.973H40.1635C39.518 70.973 39.0055 70.4593 39.0055 69.8313ZM69.8914 76.3581H40.1635C39.537 76.3581 39.0245 75.8444 39.0245 75.2164C39.0245 74.5885 39.537 74.0747 40.1635 74.0747H69.8914C70.5179 74.0747 71.0304 74.5885 71.0304 75.2164C71.0304 75.8444 70.5179 76.3581 69.8914 76.3581ZM40.1635 57.8814H47.8328C48.4592 57.8814 48.9718 58.3952 48.9718 59.0231C48.9718 59.651 48.4592 60.1648 47.8328 60.1648H40.1635C39.537 60.1648 39.0245 59.651 39.0245 59.0231C39.0055 58.3952 39.518 57.8814 40.1635 57.8814ZM60.0011 59.0421C60.0011 59.6701 59.4886 60.1838 58.8621 60.1838H53.3C52.6735 60.1838 52.161 59.6701 52.161 59.0421C52.161 58.4142 52.6735 57.9004 53.3 57.9004H58.8621C59.4886 57.8814 60.0011 58.3952 60.0011 59.0421ZM43.1629 46.8829H46.0104C46.1432 46.8829 46.2761 46.8068 46.3331 46.6736L48.4023 42.0116C48.687 41.3836 49.3135 40.984 49.9969 41.0221C50.6803 41.0601 51.2688 41.5168 51.4966 42.1638L53.9264 49.661L57.0397 40.1848C57.2675 39.5188 57.856 39.0621 58.5773 39.0431C59.2797 39.0241 59.9062 39.4427 60.172 40.1087L61.9944 44.8278C62.0513 44.961 62.1842 45.0561 62.3171 45.0561H66.7971C67.4046 45.0561 67.8982 45.5509 67.8982 46.1598C67.8982 46.7687 67.4046 47.2634 66.7971 47.2634H62.3171C61.273 47.2634 60.3048 46.5974 59.9442 45.627L58.6723 42.335L55.502 51.9445C55.2742 52.6295 54.6478 53.0862 53.9264 53.0862C53.2051 53.0862 52.5786 52.6295 52.3508 51.9445L49.845 44.1998L48.3453 47.5679C47.9277 48.4813 47.0165 49.0902 46.0104 49.0902H43.1629C42.5554 49.0902 42.0618 48.5954 42.0618 47.9865C42.0618 47.3776 42.5554 46.8829 43.1629 46.8829ZM74.96 82.1238V33.7341C74.96 32.1738 73.7071 30.9179 72.1505 30.9179H69.227V32.8208C69.227 34.4001 67.9362 35.6941 66.3605 35.6941H43.5995C42.0238 35.6941 40.733 34.4001 40.733 32.8208V30.9179H37.8095C36.2529 30.9179 35 32.1928 35 33.7341V82.1238C35 83.6841 36.2529 84.94 37.8095 84.94H72.1505C73.6881 84.94 74.96 83.6841 74.96 82.1238Z" fill="#EEF5FF"/>
    </svg>
    