<svg width="93" height="93" viewBox="0 0 93 93" fill="none" xmlns="http://www.w3.org/2000/svg">
    <circle cx="46.25" cy="46.25" r="46.25" fill="#1C319F"/>
    <path d="M58.3166 20.5242C46.8104 19.3921 44.3108 28.1252 44.3108 28.1252C43.6291 23.1724 37.8863 20.7466 37.8863 20.7466C27.3097 17.7344 21.9594 24.3247 19.6251 28.0039C17.2701 31.6832 16.9603 37.4648 19.811 42.5187C22.6617 47.5928 31.2139 53.8394 33.7135 55.7194C33.8168 55.8003 33.9201 55.8812 34.044 55.962C34.106 55.1332 34.1473 54.4054 34.168 53.8394C34.2299 52.0604 34.6224 49.1292 35.1182 46.5416C36.0685 41.7303 36.8328 40.6386 38.0929 40.1333C38.3614 40.0322 38.6507 39.9513 38.9192 39.9109L39.0018 39.0416C39.1258 37.8489 40.0347 36.454 41.708 36.2114C41.8526 36.1912 42.0178 36.171 42.1624 36.171C42.2864 36.171 42.431 36.171 42.5549 36.1912C43.03 35.2209 43.9183 34.4729 45.2197 34.3718C45.3024 34.3718 45.385 34.3718 45.4676 34.3718C46.1906 34.3718 46.8517 34.6144 47.3681 35.0389C47.6573 34.9379 47.9672 34.8974 48.2771 34.8772H48.401C49.9503 34.8772 51.2311 36.0497 51.417 37.6265C51.5823 38.8192 52.7184 49.4122 53.4621 56.4472C55.0114 55.4364 56.664 54.3448 58.4612 53.0914C65.2989 48.3206 68.8313 45.0456 70.5872 39.082C72.2811 33.0982 69.8228 21.6563 58.3166 20.5242Z" fill="#EEF5FF"/>
    <path d="M46.1271 76.4404C46.1271 76.4404 50.6511 73.4485 53.8324 66.9189C55.2991 63.9068 57.1376 61.2181 61.4963 56.7302C61.4963 56.7302 60.2362 54.8704 56.4352 57.4984C52.6342 60.1265 51.7253 62.7545 51.7253 62.7545C51.7253 62.7545 49.2051 38.981 49.0398 37.8894C49.0398 37.8894 48.9779 37.1818 48.3788 37.202C47.5318 37.2425 47.5938 38.2128 47.5938 38.2128L47.5525 50.3017C47.5525 50.3017 47.4905 50.7464 46.9741 50.7869C46.3337 50.8273 46.4163 50.1804 46.4163 50.1804L46.2717 37.667C46.2717 37.667 46.1891 36.6562 45.4454 36.7169C44.5985 36.7775 44.5985 37.9096 44.5985 37.9096L43.6895 50.7869C43.6895 50.7869 43.5449 51.2518 43.1937 51.2316C42.7186 51.2114 42.8013 50.706 42.8013 50.706L42.8426 39.2236C42.8426 39.2236 42.7393 38.4352 42.0989 38.5363C41.4585 38.6373 41.3965 39.3247 41.3965 39.3247L40.2397 52.1211C40.2397 52.1211 40.1984 52.6871 39.7233 52.6871C39.2482 52.6669 39.3928 51.9189 39.3928 51.9189L39.6407 42.7209C39.6407 42.7209 39.7026 42.074 39.0003 42.3368C38.05 42.7007 36.6866 50.5645 36.5627 53.9607C36.4387 57.3569 35.4265 65.807 36.3974 70.3757C36.3974 70.3757 37.2857 74.0752 39.0209 76.4404C39.0003 76.3798 41.066 79.2908 46.1271 76.4404Z" fill="#EEF5FF"/>
    </svg>
    