<?xml version="1.0" encoding="utf-8"?>
<!-- Generator: Adobe Illustrator 25.2.0, SVG Export Plug-In . SVG Version: 6.00 Build 0)  -->
<svg version="1.1" id="Layer_1" xmlns="http://www.w3.org/2000/svg" xmlns:xlink="http://www.w3.org/1999/xlink" x="0px" y="0px"
	 viewBox="0 0 1080 540" style="enable-background:new 0 0 1080 540;" xml:space="preserve">
<style type="text/css">
	.st0{fill:#FEF3F5;}
	.st1{fill:#FFFFFF;fill-opacity:0.7;}
	.st2{clip-path:url(#SVGID_2_);}
	.st3{fill:#CF2027;stroke:#FFFFFF;}
	.st4{fill:#FFFFFF;filter:url(#Adobe_OpacityMaskFilter);}
	.st5{mask:url(#mask0_1217_36920_2_);}
	.st6{fill:#010101;}
	.st7{fill:#FFFFFF;filter:url(#Adobe_OpacityMaskFilter_1_);}
	.st8{mask:url(#mask1_1217_36920_2_);}
	.st9{fill:#FFFFFF;}
	.st10{fill:#181818;}
	.st11{fill-rule:evenodd;clip-rule:evenodd;fill:#181818;}
</style>
<rect x="-242.41" y="1.41" class="st0" width="1619.41" height="540"/>
<path class="st1" d="M215.66,481.15h-67.61V61.67h67.61V481.15z"/>
<path class="st1" d="M324.41,481.15H256.8V61.67h67.61V481.15z"/>
<path class="st1" d="M516.11,305.6H367.36v-68.37h148.74V305.6z"/>
<path class="st1" d="M540.57,481.15L653.71,61.67h86.99l112.69,419.48h-72.57l-24.57-96.76H638.16l-24.57,96.76H540.57z
	 M739.13,316.6l-40.79-160.49h-2.25L655.29,316.6H739.13z"/>
<g>
	<defs>
		<rect id="SVGID_1_" x="387.36" y="138.15" width="359.87" height="305.92"/>
	</defs>
	<clipPath id="SVGID_2_">
		<use xlink:href="#SVGID_1_"  style="overflow:visible;"/>
	</clipPath>
	<g class="st2">
		<path class="st3" d="M391.68,232.22l0,0.02c-2.09,18.03-3.14,38.6-3.14,61.68c0,22.78,1.04,43.34,3.14,61.67l0,0.02
			c2.34,18.42,6.9,34.18,13.73,47.25l0.01,0.01c6.85,12.82,16.41,22.7,28.63,29.68l0.02,0.01c12.47,6.68,28.73,9.99,48.73,9.99
			c20,0,36.15-3.3,48.39-9.99l0.01-0.01c12.45-6.98,22.01-16.87,28.64-29.7c6.83-12.78,11.28-28.4,13.39-46.82
			c2.33-18.33,3.49-38.9,3.49-61.69c0-23.08-1.04-43.79-3.14-62.12c-2.11-18.42-6.55-34.05-13.39-46.83
			c-6.63-12.83-16.2-22.57-28.64-29.25c-12.25-6.99-28.52-10.44-48.74-10.44c-20,0-36.27,3.45-48.74,10.44
			c-12.22,6.68-21.78,16.42-28.64,29.24C398.58,198.18,394.02,213.8,391.68,232.22z M475.85,367.31h-13.41V243.23
			c0-10.41,1.86-16.17,4.96-18.42c1.67-1.22,4.17-2.19,7.59-2.85c3.4-0.66,7.62-0.99,12.67-0.99h15.15v124.08
			c0,9.97-2.04,15.81-5.63,18.4C493.27,365.96,486.24,367.31,475.85,367.31z"/>
		<path class="st3" d="M709.1,442.56h1.18v-1.52v-46.46h22.84h1.18v-1.52v-82.52v-1.51h-1.18h-22.84V141.18v-1.51h-1.18H578.32
			h-0.81l-0.29,0.97l-56.89,191.91l-0.08,0.26v0.28v59.97v1.52h1.18h112.61v46.46v1.52h1.18H709.1z M634.04,214.66v94.37h-33.6
			l31.86-94.37H634.04z"/>
		<defs>
			<filter id="Adobe_OpacityMaskFilter" filterUnits="userSpaceOnUse" x="693.13" y="286.56" width="54.09" height="124.19">
				<feColorMatrix  type="matrix" values="1 0 0 0 0  0 1 0 0 0  0 0 1 0 0  0 0 0 1 0"/>
			</filter>
		</defs>
		<mask maskUnits="userSpaceOnUse" x="693.13" y="286.56" width="54.09" height="124.19" id="mask0_1217_36920_2_">
			<path class="st4" d="M747.23,286.57h-54.1v124.19h54.1V286.57z"/>
		</mask>
		<g class="st5">
			<path class="st6" d="M714.86,394.34c-0.89-1.13-1.42-2.59-1.45-4.21c0-3.45,2.41-6.1,5.41-6.26c2.11-0.1,4.52,0.2,6.35,0.99
				c0.43,0.13,0.84,0.36,1.24,0.66c3.55,2.72,4.72,8.65,1.07,16.91c-3.68,8.32-8.2,9.75-11.8,7.13
				C711.79,406.68,712.27,400.61,714.86,394.34z"/>
			<path class="st6" d="M723.75,394.44c-0.56,0-1.14-0.2-1.65-0.67c-1.4-1.19-1.78-3.65-0.86-5.43
				c9.34-18.53,22.9-51.78,19.47-62.19c-4.29-13.06-34.25-27.45-45.44-31.89c-1.6-0.63-2.49-2.82-2-4.91
				c0.48-2.06,2.16-3.25,3.76-2.62c4.39,1.76,43.08,17.54,49.22,36.33c2.61,7.99,0.03,21.85-7.95,42.37
				c-5.61,14.49-11.78,26.72-12.03,27.25C725.67,393.85,724.74,394.44,723.75,394.44z"/>
		</g>
		<defs>
			<filter id="Adobe_OpacityMaskFilter_1_" filterUnits="userSpaceOnUse" x="507.31" y="280.51" width="44.67" height="124.2">
				<feColorMatrix  type="matrix" values="1 0 0 0 0  0 1 0 0 0  0 0 1 0 0  0 0 0 1 0"/>
			</filter>
		</defs>
		<mask maskUnits="userSpaceOnUse" x="507.31" y="280.51" width="44.67" height="124.2" id="mask1_1217_36920_2_">
			<path class="st7" d="M552.01,280.51h-44.69V404.7h44.69V280.51z"/>
		</mask>
		<g class="st8">
			<path class="st6" d="M535.75,388.5c0.7-1.18,1.1-2.64,0.99-4.19c-0.22-3.3-2.54-5.53-5.16-5.3c-1.86,0.16-3.97,0.73-5.52,1.75
				c-0.36,0.19-0.72,0.44-1.03,0.76c-2.94,3.02-3.57,8.83,0.18,16.26c3.79,7.49,7.88,8.29,10.86,5.34
				C539.28,399.87,538.45,394.15,535.75,388.5z"/>
			<path class="st6" d="M527.7,389.71c-0.83,0-1.66-0.54-2.18-1.59c-2.22-4.42-21.59-43.63-17.69-61.09
				c4.13-18.45,36.56-43.31,40.25-46.07c1.3-0.98,2.92-0.29,3.59,1.56c0.69,1.84,0.2,4.13-1.1,5.08
				c-9.47,7.15-34.72,28.55-37.66,41.72c-2.33,10.48,9.16,38.96,16.95,54.46c0.85,1.68,0.56,4.03-0.63,5.24
				C528.77,389.49,528.23,389.71,527.7,389.71z"/>
		</g>
		<path class="st9" d="M596.7,262.34c15.59,0,28.22-16.27,28.22-36.35c0-20.07-12.64-36.35-28.22-36.35s-28.22,16.27-28.22,36.35
			C568.47,246.06,581.11,262.34,596.7,262.34z"/>
		<path class="st10" d="M606.1,250.22c10.39,0,18.82-10.85,18.82-24.23c0-13.38-8.42-24.23-18.82-24.23
			c-10.39,0-18.82,10.85-18.82,24.23C587.29,239.37,595.71,250.22,606.1,250.22z"/>
		<path class="st9" d="M616.69,219.93c1.95,0,3.53-2.03,3.53-4.54c0-2.51-1.58-4.54-3.53-4.54c-1.95,0-3.53,2.03-3.53,4.54
			C613.16,217.9,614.74,219.93,616.69,219.93z"/>
		<path class="st9" d="M655.5,262.34c15.59,0,28.22-16.27,28.22-36.35c0-20.07-12.64-36.35-28.22-36.35
			c-15.59,0-28.23,16.27-28.23,36.35C627.27,246.06,639.91,262.34,655.5,262.34z"/>
		<path class="st10" d="M664.91,250.22c10.39,0,18.82-10.85,18.82-24.23c0-13.38-8.42-24.23-18.82-24.23
			c-10.39,0-18.82,10.85-18.82,24.23C646.09,239.37,654.51,250.22,664.91,250.22z"/>
		<path class="st9" d="M675.49,219.93c1.95,0,3.53-2.03,3.53-4.54c0-2.51-1.58-4.54-3.53-4.54c-1.95,0-3.53,2.03-3.53,4.54
			C671.96,217.9,673.54,219.93,675.49,219.93z"/>
		<path class="st11" d="M616.29,248.19c1.03-1.33,2.71-1.33,3.74,0l6.07,7.81l6.07-7.81c1.03-1.33,2.71-1.33,3.74,0
			c1.03,1.33,1.03,3.49,0,4.82l-7.94,10.22c-1.03,1.33-2.71,1.33-3.74,0l-7.94-10.22C615.25,251.68,615.25,249.52,616.29,248.19z"/>
	</g>
</g>
</svg>
