<svg width="403" height="250" viewBox="0 0 403 250" fill="none" xmlns="http://www.w3.org/2000/svg">
    <circle cx="280.021" cy="174.688" r="75.3116" fill="#DFFBFF"/>
    <circle cx="246.565" cy="75.3116" r="75.3116" fill="#E9FFF4"/>
    <circle cx="73.0151" cy="102.919" r="25.0205" fill="#FFE9F9"/>
    <g clip-path="url(#clip0_994_19311)">
    <mask id="mask0_994_19311" style="mask-type:luminance" maskUnits="userSpaceOnUse" x="0" y="117" width="123" height="102">
    <path d="M103.009 117.5L0 145.101L19.7152 218.679L122.725 191.078L103.009 117.5Z" fill="white"/>
    </mask>
    <g mask="url(#mask0_994_19311)">
    <path d="M10.025 165.524L10.194 165.888L10.545 165.697C17.0513 162.154 23.8972 159.419 31.0832 157.494C32.5287 157.106 34.0337 156.785 35.5982 156.528L35.6078 156.527L35.6173 156.525C37.142 156.193 38.7435 155.877 40.4217 155.576L41.9331 161.216C41.106 161.908 40.1981 162.691 39.2093 163.567C38.1257 164.432 36.91 165.414 35.5622 166.513C34.2134 167.613 32.7597 168.783 31.2008 170.021L31.196 170.025C29.7102 171.246 28.2348 172.506 26.7697 173.803C25.3571 175.007 24.0313 176.229 22.7922 177.47L22.786 177.476C21.6191 178.701 20.6145 179.927 19.7739 181.152C18.2776 183.289 17.0757 185.309 16.171 187.215L16.1703 187.216C15.3198 189.028 14.7223 190.859 14.3799 192.708L14.3785 192.716L14.3774 192.723C14.1133 194.549 14.0763 196.438 14.2649 198.388L14.2655 198.395L14.2664 198.401C14.5111 200.245 14.9233 202.247 15.5017 204.405L19.3524 218.776L19.45 219.14L19.8127 219.043L78.8712 203.219L79.2339 203.121L79.1363 202.757L74.2075 184.363L74.1099 183.998L73.7472 184.095L41.645 192.697L40.9505 190.105C47.1426 186.014 52.1537 182.438 55.9807 179.377C59.8593 176.275 62.7616 173.301 64.6713 170.454C66.5817 167.606 67.661 164.717 67.8896 161.788L67.8898 161.785C68.0957 158.803 67.6855 155.417 66.6717 151.634C65.3089 146.548 63.4826 142.659 61.1724 140.001C58.9467 137.331 56.2835 135.56 53.186 134.704C50.0862 133.777 46.6094 133.586 42.7635 134.118C38.9919 134.551 34.8739 135.366 30.4101 136.562C20.9323 139.102 11.6575 143.154 2.58588 148.716L2.30003 148.891L2.4418 149.196L10.025 165.524Z" fill="#008EDE" stroke="white"/>
    <path d="M59.8891 204.645L59.9227 204.999L60.2767 204.987C69.4486 204.673 78.9218 203.205 88.6958 200.586C90.6806 200.054 92.8832 199.423 95.303 198.692C97.7364 197.957 100.08 197.04 102.335 195.94C104.686 194.896 106.836 193.698 108.783 192.347L108.788 192.343L108.792 192.34C110.731 190.902 112.294 189.268 113.475 187.438L113.48 187.43L113.485 187.422C114.799 185.13 115.654 182.138 116.07 178.464C116.488 174.761 116.038 170.476 114.736 165.617C113.825 162.215 112.562 159.346 110.942 157.019C109.37 154.584 107.279 152.707 104.674 151.389C102.05 149.996 98.8748 149.14 95.1597 148.809C91.4422 148.477 86.9762 148.683 81.7675 149.419L81.7668 149.419L75.1403 150.373L73.7594 145.22L100.878 139.654L101.236 139.581L101.172 139.22L97.5866 118.986L97.5153 118.581L97.1192 118.687L45.1356 132.616L44.7871 132.71L44.8669 133.063C47.0532 142.745 48.6992 150.107 49.8054 155.149L49.8067 155.155C50.9879 160.172 51.6327 162.884 51.7373 163.275C52.5256 166.217 53.5798 168.614 54.9104 170.451L54.9134 170.455C56.2358 172.23 58.0235 173.534 60.262 174.37L60.2703 174.374L60.2788 174.376C62.5638 175.109 65.3889 175.434 68.7425 175.363C72.0944 175.292 76.1998 174.851 81.0546 174.044C81.0553 174.044 81.056 174.044 81.0566 174.044L89.535 172.72L90.9016 177.821C87.5827 179.171 83.3074 180.548 78.0699 181.951C72.7756 183.37 66.2106 184.191 58.3681 184.407L57.9672 184.418L58.0053 184.819L59.8891 204.645Z" fill="#008EDE" stroke="white"/>
    <path d="M70.194 157.524C75.0017 156.236 77.8503 151.278 76.5566 146.45C75.263 141.622 70.3169 138.752 65.5092 140.04C60.7016 141.329 57.8529 146.287 59.1466 151.115C60.4403 155.943 65.3864 158.813 70.194 157.524Z" fill="white"/>
    <path d="M72.3147 153.833C75.5198 152.974 77.4189 149.669 76.5565 146.45C75.694 143.231 72.3966 141.318 69.1915 142.177C65.9864 143.036 64.0873 146.341 64.9498 149.56C65.8122 152.779 69.1096 154.692 72.3147 153.833Z" fill="#171717"/>
    <path d="M73.6273 145.673C74.2283 145.512 74.5844 144.892 74.4227 144.289C74.261 143.685 73.6427 143.327 73.0417 143.488C72.4408 143.649 72.0847 144.269 72.2464 144.872C72.4081 145.476 73.0264 145.834 73.6273 145.673Z" fill="white"/>
    <path d="M88.3293 152.665C93.1369 151.377 95.9856 146.419 94.6919 141.591C93.3982 136.762 88.4521 133.893 83.6445 135.181C78.8368 136.469 75.9882 141.427 77.2819 146.256C78.5755 151.084 83.5216 153.953 88.3293 152.665Z" fill="white"/>
    <path d="M90.45 148.974C93.6551 148.115 95.5542 144.809 94.6917 141.591C93.8293 138.372 90.5319 136.459 87.3268 137.318C84.1217 138.176 82.2226 141.482 83.085 144.701C83.9475 147.919 87.2449 149.832 90.45 148.974Z" fill="#171717"/>
    <path d="M91.7626 140.814C92.3636 140.653 92.7196 140.033 92.5579 139.43C92.3962 138.826 91.778 138.467 91.177 138.628C90.576 138.789 90.22 139.409 90.3817 140.013C90.5434 140.616 91.1616 140.975 91.7626 140.814Z" fill="white"/>
    <path fill-rule="evenodd" clip-rule="evenodd" d="M75.3243 152.503C75.5572 152.097 76.074 151.959 76.4785 152.194L78.8532 153.571L80.2213 151.191C80.454 150.785 80.9705 150.647 81.3747 150.882C81.7796 151.116 81.9187 151.635 81.6852 152.041L79.8961 155.155C79.6632 155.561 79.1464 155.699 78.742 155.465L75.6349 153.662C75.2305 153.427 75.0914 152.908 75.3243 152.503Z" fill="#171717"/>
    <path d="M71.5932 189.476C71.1331 189.05 71.0646 188.319 71.4261 187.765C71.6712 187.388 71.2607 187.827 71.6025 187.607C71.6784 187.551 71.7542 187.494 71.8392 187.471C72.6489 187.162 73.5887 187.679 74.2453 189.314C74.9065 190.966 75.1284 192.881 74.0285 193.195C72.9115 193.512 71.8101 189.674 71.5932 189.476Z" fill="black"/>
    <path d="M53.5534 163.545C53.3835 163.59 53.2194 163.726 53.1586 163.907C50.8428 170.49 51.4971 179.661 58.4006 184.286C62.1289 186.781 67.7042 188.487 71.9595 188.463C72.2666 188.454 72.5268 188.201 72.534 187.888C72.5413 187.575 72.272 187.318 71.9603 187.31C67.9056 187.336 62.6048 185.702 59.0367 183.329C52.6429 179.043 52.0591 170.475 54.2285 164.297C54.3298 163.995 54.1703 163.672 53.8868 163.565C53.7665 163.524 53.6554 163.518 53.5534 163.545Z" fill="black"/>
    <path d="M98.9882 182.135C99.1739 181.537 98.8674 180.869 98.2772 180.57C97.8767 180.366 98.4515 180.541 98.0459 180.522C97.9519 180.511 97.8579 180.499 97.773 180.522C96.9174 180.66 96.3615 181.577 96.6104 183.321C96.8638 185.082 97.6297 186.852 98.7383 186.574C99.8644 186.29 98.8992 182.415 98.9882 182.135Z" fill="black"/>
    <path d="M101.646 150.658C101.816 150.613 102.026 150.648 102.168 150.775C107.466 155.318 111.485 163.587 107.819 171.044C105.837 175.069 101.863 179.335 98.1647 181.441C97.8943 181.587 97.5425 181.498 97.3798 181.231C97.2172 180.963 97.3221 180.606 97.5879 180.443C101.112 178.438 104.885 174.373 106.79 170.534C110.183 163.625 106.405 155.913 101.437 151.647C101.199 151.437 101.175 151.077 101.367 150.843C101.451 150.747 101.544 150.686 101.646 150.658Z" fill="black"/>
    </g>
    </g>
    <g clip-path="url(#clip1_994_19311)">
    <mask id="mask1_994_19311" style="mask-type:luminance" maskUnits="userSpaceOnUse" x="212" y="35" width="103" height="81">
    <path d="M314.408 54.9595L225.227 35.4713L212.102 95.5324L301.284 115.021L314.408 54.9595Z" fill="white"/>
    </mask>
    <g mask="url(#mask1_994_19311)">
    <path d="M263.693 90.6963L263.759 90.393L263.456 90.3267L253.023 88.047L262.722 43.6648L262.788 43.3615L262.485 43.2952L247.34 39.9856L247.306 39.9782L247.271 39.9785L224.132 40.1579L223.884 40.1598L223.831 40.4021L220.472 55.7777L220.401 56.1022L220.729 56.1511L237.715 58.6775L232.287 83.5156L215.528 79.8534L215.225 79.7871L215.159 80.0905L211.799 95.4661L211.732 95.7695L212.036 95.8358L259.963 106.309L260.267 106.375L260.333 106.072L263.693 90.6963Z" fill="#FBE41A" stroke="white"/>
    <path d="M265.059 69.3488L264.784 69.3215L264.725 69.5914L261.702 83.4247L261.642 83.6994L261.909 83.7862L277.636 88.8937L276.42 94.4577C273.493 94.192 269.975 93.6111 265.866 92.713C261.843 91.834 256.926 89.9989 251.11 87.1983L250.811 87.0543L250.688 87.3621L244.586 102.522L244.477 102.793L244.742 102.918C251.561 106.146 258.436 108.518 265.367 110.033C268.797 110.782 272.231 111.365 275.668 111.783C279.114 112.266 282.328 112.161 285.309 111.46C288.304 110.757 290.889 109.316 293.056 107.141C295.317 104.9 296.925 101.518 297.905 97.0333C298.672 93.5208 298.528 90.3678 297.451 87.5877C296.395 84.8624 294.452 82.5207 291.645 80.5589L291.665 80.4664C294.568 79.6213 296.936 78.1968 298.758 76.1872C300.616 74.1372 301.892 71.4936 302.596 68.2714C303.409 64.5499 303.348 61.4655 302.366 59.0453C301.395 56.6511 299.846 54.7078 297.726 53.2214C295.634 51.6812 293.134 50.4953 290.233 49.6593C287.417 48.8435 284.548 48.1164 281.626 47.478C274.431 45.9058 266.658 45.4794 258.309 46.1953L258.037 46.2187L258.026 46.4917L257.412 61.1512L257.398 61.4716L257.719 61.4746C264.4 61.5374 269.813 62.0252 273.967 62.9328C276.116 63.4024 277.931 63.8655 279.413 64.3217L279.419 64.3236L279.425 64.3252C280.791 64.684 281.911 65.0164 282.787 65.322L281.549 70.986L265.059 69.3488Z" fill="#FBE41A" stroke="white"/>
    <path d="M269.672 70.6094C273.692 71.488 277.664 68.9408 278.543 64.9201C279.421 60.8994 276.874 56.9277 272.853 56.0491C268.833 55.1705 264.861 57.7177 263.982 61.7384C263.104 65.7591 265.651 69.7308 269.672 70.6094Z" fill="white"/>
    <path d="M272.629 68.713C275.309 69.2987 277.957 67.6006 278.543 64.9201C279.129 62.2397 277.43 59.5919 274.75 59.0061C272.069 58.4204 269.422 60.1185 268.836 62.799C268.25 65.4794 269.948 68.1272 272.629 68.713Z" fill="#171717"/>
    <path d="M276.684 63.2428C277.187 63.3526 277.683 63.0342 277.793 62.5316C277.903 62.029 277.584 61.5326 277.082 61.4227C276.579 61.3129 276.083 61.6313 275.973 62.1339C275.863 62.6365 276.182 63.1329 276.684 63.2428Z" fill="white"/>
    <path d="M284.839 73.9237C288.859 74.8023 292.831 72.2552 293.71 68.2345C294.588 64.2137 292.041 60.242 288.02 59.3634C284 58.4848 280.028 61.032 279.149 65.0527C278.271 69.0734 280.818 73.0451 284.839 73.9237Z" fill="white"/>
    <path d="M287.796 72.0273C290.476 72.613 293.124 70.9149 293.71 68.2345C294.295 65.554 292.597 62.9062 289.917 62.3204C287.236 61.7347 284.589 63.4328 284.003 66.1133C283.417 68.7938 285.115 71.4416 287.796 72.0273Z" fill="#171717"/>
    <path d="M291.851 66.5571C292.354 66.6669 292.85 66.3485 292.96 65.8459C293.07 65.3434 292.751 64.8469 292.249 64.7371C291.746 64.6272 291.25 64.9456 291.14 65.4482C291.03 65.9508 291.349 66.4473 291.851 66.5571Z" fill="white"/>
    <path fill-rule="evenodd" clip-rule="evenodd" d="M275.344 68.8802C275.669 68.6719 276.101 68.7663 276.309 69.0911L277.532 70.998L279.439 69.775C279.764 69.5668 280.196 69.6612 280.405 69.986C280.613 70.3107 280.518 70.7429 280.194 70.9512L277.699 72.5513C277.374 72.7596 276.942 72.6651 276.733 72.3404L275.133 69.8454C274.925 69.5206 275.019 69.0884 275.344 68.8802Z" fill="#171717"/>
    <path d="M264.018 77.0032C263.834 76.9631 263.681 76.8547 263.585 76.6842C263.393 76.3433 259.011 68.401 258.246 64.5994C257.501 60.9069 261.864 49.5961 262.044 49.1119C262.178 48.7673 262.556 48.5955 262.896 48.7297C263.236 48.8638 263.404 49.2445 263.27 49.5891C262.044 52.7613 258.981 61.5742 259.532 64.327C260.253 67.9245 264.676 75.9506 264.72 76.02C264.901 76.3436 264.782 76.7514 264.464 76.9213C264.34 77.0139 264.173 77.0371 264.018 77.0032Z" fill="black"/>
    <path d="M264.251 48.6818C264.492 48.7944 264.687 48.9865 264.778 49.2457C264.968 49.7957 264.616 50.3919 264.013 50.649C263.59 50.8258 263.075 50.9525 262.644 50.963C262.553 50.9731 262.451 50.9658 262.353 50.9442C261.486 50.7847 260.906 49.925 261.192 48.3425C261.485 46.7314 262.346 46.1717 263.23 46.32C264.199 46.4868 264.436 47.4959 264.251 48.6818Z" fill="black"/>
    <path d="M292.374 83.2746C292.205 83.2376 292.052 83.1293 291.952 82.9729C291.755 82.6606 291.859 82.2496 292.166 82.0625C292.235 82.0177 299.669 77.3456 302.027 74.8096C303.917 72.7848 304.853 63.432 305.072 59.9951C305.093 59.6258 305.405 59.3501 305.77 59.37C306.135 59.3899 306.407 59.7035 306.385 60.0727C306.305 61.3862 305.545 72.9761 302.994 75.724C300.507 78.3812 293.173 83.0004 292.863 83.2019C292.711 83.2883 292.544 83.3116 292.374 83.2746Z" fill="black"/>
    <path d="M304.573 58.7643C304.306 58.7659 304.049 58.8593 303.858 59.057C303.456 59.4775 303.527 60.1661 303.968 60.6513C304.279 60.9884 304.694 61.3185 305.081 61.5078C305.16 61.5548 305.255 61.5906 305.354 61.6123C306.222 61.8319 307.108 61.2926 307.511 59.7205C307.913 58.1483 307.368 57.2662 306.5 57.0466C305.536 56.7912 304.899 57.6092 304.573 58.7643Z" fill="black"/>
    </g>
    </g>
    <g clip-path="url(#clip2_994_19311)">
    <path d="M83.2263 56.5458L83.2267 56.5498C83.6257 60.0545 84.4038 63.964 85.5595 68.2771C86.7003 72.5346 87.9811 76.309 89.4026 79.599L89.4045 79.6032C90.8891 82.8937 92.7773 85.5449 95.0742 87.5473L95.0767 87.5494C97.3669 89.5022 100.162 90.7338 103.451 91.2501L103.457 91.2511C106.792 91.6961 110.871 91.2643 115.683 89.9749C120.495 88.6856 124.216 87.0275 126.827 84.9884L126.829 84.9867C129.475 82.8809 131.281 80.416 132.233 77.5912C133.237 74.7624 133.526 71.5563 133.11 67.9799C132.752 64.4038 132.002 60.4863 130.861 56.2285C129.705 51.9153 128.417 48.1129 126.995 44.8228C125.567 41.5168 123.713 38.8836 121.429 36.9354C119.192 34.9647 116.402 33.7613 113.072 33.3164C109.775 32.7995 105.687 33.2043 100.821 34.5083C96.0083 35.7978 92.2664 37.4915 89.6149 39.6018C87.0084 41.6378 85.1953 44.0747 84.1879 46.9121C83.1838 49.7404 82.8668 52.9539 83.2263 56.5458ZM110.244 76.3621L107.017 77.2268L100.804 54.0409C100.283 52.0965 100.443 50.8993 101.075 50.2797C101.417 49.9447 101.97 49.6016 102.758 49.2581C103.542 48.9163 104.541 48.5816 105.758 48.2554L109.404 47.2787L115.616 70.4647C116.116 72.3286 115.916 73.5508 115.183 74.2652C114.37 74.9857 112.744 75.6923 110.244 76.3621Z" fill="#D00019" stroke="white"/>
    <path d="M168.32 60.1932L168.245 59.9102L167.962 59.986L158.229 62.5939L147.134 21.1886L147.059 20.9056L146.776 20.9815L132.646 24.7674L132.615 24.7759L132.586 24.7911L113.267 34.9642L113.06 35.0732L113.12 35.2993L116.964 49.6436L117.045 49.9464L117.342 49.8451L132.675 44.6054L138.884 67.7775L123.249 71.9668L122.966 72.0426L123.042 72.3256L126.885 86.67L126.961 86.9529L127.244 86.8771L171.957 74.8963L172.24 74.8205L172.164 74.5375L168.32 60.1932Z" fill="#D00019" stroke="white"/>
    <path d="M162.502 61.7075C162.231 61.5542 162.03 61.3161 161.943 61.014C161.77 60.3698 162.217 59.7188 162.93 59.4946C163.432 59.3403 164.027 59.2404 164.507 59.2713C164.617 59.2683 164.727 59.2854 164.84 59.315C165.831 59.5938 166.409 60.6274 165.942 62.4055C165.473 64.1978 164.457 64.7555 163.459 64.4986C162.38 64.21 162.192 63.0453 162.502 61.7075Z" fill="black"/>
    <path d="M164.644 61.1531C164.51 61.1891 164.359 61.1897 164.214 61.1356C163.818 61.0026 163.604 60.5688 163.734 60.1753C165.054 56.1102 166.652 49.0228 165.306 47.2986C163.619 45.1345 155.691 44.3775 152.774 44.2693C152.358 44.2547 152.035 43.903 152.046 43.4817C152.059 43.0665 152.402 42.7355 152.819 42.7501C153.964 42.7953 164.064 43.2494 166.483 46.3656C167.512 47.6901 167.583 50.4463 166.692 54.795C166.067 57.8637 165.196 60.5472 165.161 60.6628C165.078 60.9173 164.883 61.0893 164.644 61.1531Z" fill="black"/>
    <path d="M135.676 68.3322C135.784 68.0678 135.808 67.7687 135.703 67.4853C135.484 66.8827 134.817 66.6164 134.196 66.8273C133.755 66.9771 133.276 67.2199 132.954 67.5096C132.878 67.5683 132.804 67.639 132.744 67.7186C132.188 68.4718 132.327 69.5982 133.601 70.7449C134.889 71.9006 135.912 71.7855 136.483 71.0412C137.093 70.2291 136.607 69.2146 135.676 68.3322Z" fill="black"/>
    <path d="M133.797 69.0772C133.597 69.1308 133.37 69.0835 133.194 68.9209C132.438 68.2394 125.813 62.1607 125.879 58.6455C125.949 54.932 132.509 48.1949 133.256 47.4413C133.52 47.1735 133.944 47.1998 134.198 47.5005C134.458 47.7997 134.454 48.2588 134.188 48.5207C132.266 50.4665 127.262 56.0937 127.214 58.7456C127.177 60.8542 131.368 65.4354 134.018 67.8287C134.308 68.0882 134.355 68.5461 134.129 68.8482C134.045 68.9662 133.927 69.0425 133.797 69.0772Z" fill="black"/>
    <path d="M147.652 45.3149C143.901 46.32 140.045 44.094 139.04 40.3429C138.035 36.5919 140.261 32.7363 144.012 31.7312C147.763 30.7262 151.618 32.9522 152.624 36.7032C153.629 40.4542 151.403 44.3098 147.652 45.3149Z" fill="white"/>
    <path d="M144.781 43.6576C142.281 44.3277 139.71 42.8436 139.04 40.343C138.37 37.8423 139.854 35.2719 142.355 34.6018C144.856 33.9318 147.426 35.4158 148.096 37.9165C148.766 40.4171 147.282 42.9875 144.781 43.6576Z" fill="#171717"/>
    <path d="M140.718 38.6802C140.249 38.8058 139.767 38.5276 139.641 38.0587C139.516 37.5898 139.794 37.1078 140.263 36.9822C140.732 36.8566 141.214 37.1348 141.339 37.6037C141.465 38.0726 141.187 38.5545 140.718 38.6802Z" fill="white"/>
    <path d="M133.502 49.1063C129.751 50.1114 125.896 47.8853 124.891 44.1343C123.885 40.3833 126.111 36.5277 129.862 35.5226C133.613 34.5175 137.469 36.7436 138.474 40.4946C139.479 44.2456 137.253 48.1012 133.502 49.1063Z" fill="white"/>
    <path d="M130.632 47.449C128.131 48.119 125.56 46.635 124.89 44.1343C124.22 41.6337 125.704 39.0633 128.205 38.3932C130.706 37.7231 133.276 39.2072 133.946 41.7078C134.616 44.2085 133.132 46.7789 130.632 47.449Z" fill="#171717"/>
    <path d="M126.568 42.4716C126.099 42.5972 125.617 42.3189 125.491 41.8501C125.366 41.3812 125.644 40.8992 126.113 40.7736C126.582 40.648 127.064 40.9262 127.189 41.3951C127.315 41.864 127.037 42.3459 126.568 42.4716Z" fill="white"/>
    <path fill-rule="evenodd" clip-rule="evenodd" d="M142.229 43.9348C141.914 43.7527 141.511 43.8607 141.329 44.1759L140.26 46.0271L138.409 44.9584C138.094 44.7764 137.69 44.8844 137.508 45.1997C137.326 45.5149 137.434 45.9181 137.75 46.1001L140.172 47.4985C140.487 47.6805 140.89 47.5725 141.072 47.2573L142.47 44.8353C142.653 44.5199 142.545 44.1167 142.229 43.9348Z" fill="#171717"/>
    </g>
    <g clip-path="url(#clip3_994_19311)">
    <mask id="mask2_994_19311" style="mask-type:luminance" maskUnits="userSpaceOnUse" x="259" y="145" width="144" height="99">
    <path d="M402.13 157.908L267.828 145.061L259.659 230.451L393.962 243.298L402.13 157.908Z" fill="white"/>
    </mask>
    <g mask="url(#mask2_994_19311)">
    <path d="M281.524 179.503L281.154 179.511L281.118 179.88L279.31 198.783L279.274 199.159L279.644 199.231L301.403 203.512L300.675 211.115C296.735 211.23 291.959 211.02 286.343 210.483C280.846 209.957 274.005 208.302 265.813 205.505L265.392 205.361L265.276 205.791L259.582 226.953L259.48 227.332L259.852 227.456C269.448 230.661 278.983 232.718 288.454 233.624C293.142 234.072 297.807 234.298 302.45 234.303C307.115 234.395 311.379 233.739 315.236 232.329C319.111 230.913 322.321 228.58 324.858 225.337C327.51 221.99 329.108 217.23 329.694 211.102C330.153 206.302 329.456 202.127 327.577 198.598C325.734 195.138 322.773 192.332 318.72 190.169L318.732 190.043C322.461 188.452 325.386 186.176 327.49 183.209C329.636 180.181 330.911 176.457 331.332 172.054C331.819 166.968 331.242 162.871 329.547 159.806C327.87 156.774 325.497 154.435 322.436 152.795C319.404 151.08 315.886 149.901 311.889 149.253C308.008 148.618 304.071 148.11 300.079 147.728C290.247 146.788 279.83 147.465 268.828 149.756L268.469 149.831L268.497 150.197L270.029 169.814L270.062 170.243L270.49 170.195C279.396 169.208 286.682 168.99 292.357 169.533C295.294 169.814 297.785 170.14 299.831 170.51L299.84 170.511L299.848 170.512C301.724 170.771 303.268 171.034 304.484 171.301L303.744 179.041L281.524 179.503Z" fill="#9A00D0" stroke="white"/>
    <path d="M383.16 159.44L383.199 159.026L382.785 158.986L318.121 152.8L317.67 152.757L317.665 153.21L317.401 176.641L317.397 177.028L317.783 177.061L348.554 179.614L319.787 236.049L319.509 236.594L320.119 236.653L349.642 239.477L349.926 239.504L350.055 239.248L381.548 176.001L381.582 175.932L381.59 175.855L383.16 159.44Z" fill="#9A00D0" stroke="white"/>
    <path d="M337.293 188.517C342.787 189.043 347.667 185.015 348.193 179.52C348.718 174.026 344.69 169.146 339.196 168.62C333.702 168.095 328.821 172.123 328.296 177.617C327.77 183.111 331.798 187.991 337.293 188.517Z" fill="white"/>
    <path d="M340.926 185.518C344.589 185.869 347.842 183.183 348.192 179.52C348.543 175.858 345.858 172.604 342.195 172.254C338.532 171.903 335.278 174.589 334.928 178.252C334.578 181.914 337.263 185.168 340.926 185.518Z" fill="#171717"/>
    <path d="M345.449 177.585C346.136 177.65 346.746 177.147 346.812 176.46C346.878 175.773 346.374 175.163 345.687 175.098C345.001 175.032 344.391 175.536 344.325 176.222C344.259 176.909 344.763 177.519 345.449 177.585Z" fill="white"/>
    <path d="M358.018 190.5C363.512 191.025 368.393 186.997 368.918 181.503C369.444 176.009 365.416 171.129 359.921 170.603C354.427 170.077 349.547 174.105 349.021 179.6C348.496 185.094 352.524 189.974 358.018 190.5Z" fill="white"/>
    <path d="M361.651 187.501C365.314 187.851 368.568 185.166 368.918 181.503C369.268 177.84 366.583 174.587 362.92 174.236C359.257 173.886 356.004 176.571 355.654 180.234C355.303 183.897 357.989 187.15 361.651 187.501Z" fill="#171717"/>
    <path d="M366.176 179.567C366.862 179.633 367.472 179.13 367.538 178.443C367.604 177.756 367.1 177.146 366.413 177.08C365.727 177.015 365.117 177.518 365.051 178.205C364.985 178.892 365.489 179.502 366.176 179.567Z" fill="white"/>
    <path fill-rule="evenodd" clip-rule="evenodd" d="M344.568 185.306C344.967 184.976 345.558 185.033 345.887 185.432L347.821 187.775L350.165 185.841C350.563 185.512 351.154 185.568 351.483 185.967C351.813 186.366 351.756 186.957 351.357 187.286L348.291 189.816C347.892 190.146 347.302 190.089 346.972 189.69L344.442 186.625C344.113 186.226 344.169 185.635 344.568 185.306Z" fill="#171717"/>
    <path d="M392.21 217.155C392.14 217.148 392.049 217.116 391.982 217.086L357.635 201.586C357.253 201.409 357.083 200.97 357.261 200.587C357.438 200.205 357.877 200.036 358.259 200.213L392.608 215.69C392.99 215.867 393.16 216.307 392.983 216.689C392.835 217.004 392.535 217.186 392.21 217.155Z" fill="black"/>
    <path d="M394.588 215.363C394.617 215.06 394.529 214.746 394.341 214.517C393.896 214.004 393.096 214.022 392.512 214.483C392.105 214.82 391.664 215.247 391.413 215.67C391.357 215.758 391.3 215.87 391.268 215.961C390.939 216.94 391.446 218.022 393.198 218.612C394.947 219.226 396.007 218.693 396.359 217.716C396.74 216.672 395.878 215.862 394.588 215.363Z" fill="black"/>
    <path d="M314.481 178.479C314.691 178.241 314.965 178.079 315.272 178.061C315.934 178.007 316.49 178.577 316.559 179.335C316.626 179.858 316.589 180.489 316.475 180.948C316.464 181.064 316.432 181.155 316.374 181.267C315.908 182.209 314.793 182.572 313.134 181.756C311.451 180.937 311.112 179.824 311.554 178.88C312.029 177.845 313.222 177.889 314.481 178.479Z" fill="black"/>
    <path d="M344.142 193.131C344.073 193.125 344.003 193.118 343.935 193.088L314.485 181.627C314.101 181.473 313.908 181.031 314.039 180.644C314.193 180.26 314.634 180.067 315.021 180.198L344.494 191.662C344.879 191.816 345.071 192.257 344.94 192.644C344.791 192.982 344.468 193.162 344.142 193.131Z" fill="black"/>
    </g>
    </g>
    <defs>
    <clipPath id="clip0_994_19311">
    <rect width="106.643" height="76.1737" fill="white" transform="translate(0 145.101) rotate(-15)"/>
    </clipPath>
    <clipPath id="clip1_994_19311">
    <rect width="91.2862" height="61.4785" fill="white" transform="translate(225.227 35.4713) rotate(12.3267)"/>
    </clipPath>
    <clipPath id="clip2_994_19311">
    <rect width="84.377" height="59.1811" fill="white" transform="translate(77.4775 39.2466) rotate(-15)"/>
    </clipPath>
    <clipPath id="clip3_994_19311">
    <rect width="134.915" height="85.7795" fill="white" transform="translate(267.828 145.061) rotate(5.46424)"/>
    </clipPath>
    </defs>
    </svg>
    