<svg width="350" height="350" viewBox="0 0 474 523" fill="none" xmlns="http://www.w3.org/2000/svg">
<circle cx="150.5" cy="372.5" r="150.5" fill="#DFFBFF"/>
<g clip-path="url(#clip0_585_31721)">
<mask id="mask0_585_31721" style="mask-type:luminance" maskUnits="userSpaceOnUse" x="0" y="215" width="210" height="173">
<path d="M175.798 215L0 262.105L33.6465 387.675L209.445 340.57L175.798 215Z" fill="white"/>
</mask>
<g mask="url(#mask0_585_31721)">
<path d="M17.1091 296.96L17.3976 297.581L17.9967 297.255C29.1004 291.208 40.7838 286.541 53.0476 283.255C55.5146 282.594 58.083 282.045 60.7531 281.608L60.7695 281.605L60.7856 281.601C63.3878 281.035 66.1209 280.495 68.985 279.982L71.5643 289.608C70.1528 290.788 68.6033 292.125 66.9158 293.62C65.0666 295.096 62.9918 296.772 60.6915 298.648C58.3897 300.526 55.9087 302.521 53.2484 304.635L53.2402 304.641C50.7045 306.725 48.1865 308.875 45.6861 311.089C43.2754 313.143 41.0127 315.229 38.898 317.346L38.8874 317.357C36.8959 319.448 35.1814 321.539 33.7469 323.631C31.1933 327.277 29.1421 330.726 27.5981 333.977L27.5969 333.98C26.1453 337.073 25.1257 340.198 24.5413 343.353L24.5389 343.366L24.5371 343.378C24.0864 346.495 24.0232 349.718 24.3451 353.046L24.3462 353.058L24.3477 353.069C24.7652 356.216 25.4687 359.631 26.4559 363.316L33.0275 387.841L33.194 388.463L33.813 388.297L134.604 361.29L135.223 361.124L135.056 360.503L126.645 329.11L126.478 328.488L125.859 328.654L71.0726 343.334L69.8874 338.911C80.455 331.929 89.0071 325.825 95.5383 320.602C102.158 315.307 107.111 310.233 110.37 305.374C113.63 300.513 115.472 295.582 115.862 290.585L115.863 290.579C116.214 285.489 115.514 279.711 113.784 273.254C111.458 264.574 108.341 257.938 104.399 253.401C100.6 248.845 96.0551 245.823 90.7687 244.362C85.4785 242.779 79.5451 242.453 72.9815 243.361C66.5449 244.1 59.5169 245.491 51.8989 247.532C35.7238 251.867 19.8952 258.782 4.41336 268.274L3.92552 268.574L4.16747 269.094L17.1091 296.96Z" fill="#008EDE" stroke="white"/>
<path d="M102.208 363.725L102.266 364.329L102.87 364.309C118.523 363.772 134.69 361.267 151.371 356.797C154.758 355.89 158.517 354.812 162.647 353.565C166.8 352.311 170.8 350.745 174.648 348.868C178.661 347.086 182.33 345.042 185.651 342.736L185.66 342.73L185.668 342.724C188.977 340.27 191.644 337.483 193.66 334.359L193.668 334.346L193.677 334.331C195.919 330.42 197.378 325.314 198.088 319.043C198.802 312.723 198.034 305.41 195.812 297.118C194.256 291.313 192.102 286.416 189.336 282.445C186.655 278.29 183.085 275.085 178.64 272.837C174.162 270.46 168.742 268.999 162.402 268.433C156.058 267.867 148.436 268.218 139.547 269.475L139.545 269.475L128.236 271.103L125.88 262.308L172.16 252.81L172.772 252.684L172.662 252.068L166.544 217.537L166.422 216.846L165.746 217.027L77.0298 240.799L76.435 240.958L76.5712 241.561C80.3023 258.085 83.1115 270.649 84.9993 279.254L85.0015 279.264C87.0174 287.826 88.1178 292.455 88.2964 293.121C89.6418 298.142 91.4408 302.233 93.7116 305.368L93.7168 305.375C95.9736 308.405 99.0246 310.63 102.845 312.057L102.859 312.063L102.873 312.067C106.773 313.318 111.595 313.872 117.318 313.751C123.038 313.63 130.045 312.878 138.33 311.501C138.331 311.501 138.332 311.5 138.333 311.5L152.803 309.241L155.135 317.945C149.471 320.25 142.175 322.6 133.236 324.995C124.201 327.416 112.997 328.817 99.6126 329.186L98.9285 329.205L98.9935 329.889L102.208 363.725Z" fill="#008EDE" stroke="white"/>
<path d="M119.795 283.307C128 281.109 132.861 272.647 130.653 264.407C128.446 256.168 120.004 251.27 111.8 253.469C103.595 255.667 98.7332 264.129 100.941 272.369C103.149 280.609 111.59 285.506 119.795 283.307Z" fill="white"/>
<path d="M123.414 277.007C128.884 275.542 132.125 269.9 130.653 264.407C129.182 258.914 123.554 255.649 118.084 257.115C112.614 258.581 109.373 264.222 110.845 269.715C112.317 275.208 117.944 278.473 123.414 277.007Z" fill="#171717"/>
<path d="M125.654 263.082C126.68 262.807 127.287 261.749 127.011 260.719C126.735 259.69 125.68 259.077 124.655 259.352C123.629 259.627 123.021 260.685 123.297 261.715C123.573 262.745 124.628 263.357 125.654 263.082Z" fill="white"/>
<path d="M150.745 275.014C158.95 272.816 163.812 264.354 161.604 256.114C159.396 247.875 150.955 242.977 142.75 245.176C134.545 247.374 129.684 255.836 131.891 264.076C134.099 272.315 142.54 277.213 150.745 275.014Z" fill="white"/>
<path d="M154.365 268.714C159.835 267.249 163.076 261.607 161.604 256.114C160.132 250.621 154.505 247.356 149.035 248.822C143.565 250.288 140.324 255.929 141.796 261.422C143.267 266.915 148.895 270.18 154.365 268.714Z" fill="#171717"/>
<path d="M156.605 254.789C157.63 254.514 158.238 253.456 157.962 252.426C157.686 251.396 156.631 250.784 155.605 251.059C154.58 251.334 153.972 252.391 154.248 253.421C154.524 254.451 155.579 255.064 156.605 254.789Z" fill="white"/>
<path fill-rule="evenodd" clip-rule="evenodd" d="M128.551 274.738C128.948 274.046 129.83 273.809 130.521 274.21L134.573 276.561L136.908 272.498C137.305 271.806 138.187 271.57 138.877 271.971C139.568 272.371 139.805 273.257 139.407 273.949L136.353 279.264C135.956 279.956 135.074 280.193 134.384 279.792L129.081 276.716C128.391 276.315 128.153 275.429 128.551 274.738Z" fill="#171717"/>
<path d="M122.183 337.836C121.398 337.11 121.281 335.862 121.898 334.916C122.316 334.273 121.615 335.023 122.199 334.648C122.328 334.551 122.458 334.454 122.603 334.415C123.985 333.888 125.589 334.77 126.709 337.56C127.837 340.379 128.216 343.649 126.339 344.183C124.433 344.725 122.553 338.174 122.183 337.836Z" fill="black"/>
<path d="M91.3954 293.582C91.1055 293.66 90.8255 293.891 90.7217 294.2C86.7695 305.435 87.8862 321.086 99.6679 328.979C106.031 333.237 115.546 336.15 122.808 336.108C123.332 336.092 123.776 335.661 123.788 335.127C123.801 334.593 123.341 334.155 122.809 334.141C115.889 334.185 106.843 331.396 100.753 327.346C89.8415 320.032 88.8453 305.409 92.5475 294.865C92.7204 294.351 92.4483 293.799 91.9643 293.617C91.7591 293.547 91.5695 293.535 91.3954 293.582Z" fill="black"/>
<path d="M168.936 325.309C169.253 324.287 168.73 323.148 167.723 322.637C167.039 322.29 168.02 322.589 167.328 322.556C167.168 322.536 167.007 322.517 166.862 322.555C165.402 322.791 164.453 324.356 164.878 327.332C165.311 330.338 166.618 333.359 168.51 332.883C170.431 332.4 168.784 325.786 168.936 325.309Z" fill="black"/>
<path d="M173.472 271.59C173.761 271.512 174.12 271.572 174.363 271.788C183.405 279.541 190.263 293.654 184.007 306.381C180.625 313.249 173.842 320.529 167.531 324.124C167.069 324.373 166.469 324.222 166.191 323.765C165.914 323.309 166.093 322.699 166.546 322.422C172.561 319 179 312.061 182.25 305.509C188.042 293.719 181.594 280.557 173.116 273.277C172.709 272.918 172.668 272.305 172.996 271.905C173.14 271.741 173.297 271.637 173.472 271.59Z" fill="black"/>
</g>
</g>
<circle cx="317.5" cy="150.5" r="150.5" fill="#E9FFF4"/>
<g clip-path="url(#clip1_585_31721)">
<mask id="mask1_585_31721" style="mask-type:luminance" maskUnits="userSpaceOnUse" x="257" y="106" width="176" height="136">
<path d="M432.599 139.259L280.399 106L258 208.502L410.2 241.761L432.599 139.259Z" fill="white"/>
</mask>
<g mask="url(#mask1_585_31721)">
<path d="M346.046 200.249L346.159 199.731L345.642 199.618L327.837 195.727L344.389 119.983L344.502 119.466L343.985 119.353L318.138 113.704L318.08 113.692L318.02 113.692L278.531 113.998L278.108 114.002L278.018 114.415L272.284 140.656L272.162 141.209L272.723 141.293L301.711 145.604L292.448 187.994L263.847 181.744L263.33 181.631L263.216 182.148L257.482 208.389L257.369 208.907L257.887 209.02L339.681 226.894L340.199 227.007L340.312 226.489L346.046 200.249Z" fill="#FBE41A" stroke="white"/>
<path d="M348.377 163.816L347.907 163.77L347.807 164.23L342.648 187.839L342.545 188.307L343.002 188.456L369.841 197.172L367.766 206.668C362.771 206.214 356.768 205.223 349.754 203.69C342.889 202.19 334.498 199.058 324.572 194.279L324.062 194.033L323.851 194.558L313.439 220.43L313.252 220.893L313.703 221.107C325.341 226.615 337.074 230.663 348.904 233.248C354.758 234.527 360.618 235.523 366.483 236.235C372.364 237.06 377.85 236.88 382.937 235.685C388.049 234.484 392.459 232.025 396.158 228.314C400.017 224.488 402.76 218.717 404.433 211.063C405.743 205.069 405.496 199.688 403.658 194.943C401.856 190.292 398.541 186.296 393.75 182.948L393.784 182.79C398.738 181.348 402.78 178.917 405.889 175.487C409.061 171.988 411.238 167.477 412.439 161.978C413.827 155.626 413.722 150.362 412.046 146.232C410.389 142.146 407.746 138.83 404.128 136.293C400.558 133.664 396.292 131.64 391.34 130.214C386.534 128.821 381.637 127.581 376.652 126.491C364.373 123.808 351.107 123.08 336.858 124.302L336.394 124.342L336.374 124.808L335.326 149.826L335.303 150.373L335.851 150.378C347.253 150.485 356.492 151.318 363.58 152.867C367.247 153.668 370.345 154.458 372.874 155.237L372.885 155.24L372.895 155.243C375.226 155.855 377.137 156.422 378.632 156.944L376.52 166.61L348.377 163.816Z" fill="#FBE41A" stroke="white"/>
<path d="M356.249 165.968C363.111 167.467 369.889 163.12 371.389 156.258C372.888 149.396 368.541 142.618 361.679 141.119C354.818 139.619 348.039 143.966 346.54 150.828C345.04 157.69 349.388 164.468 356.249 165.968Z" fill="white"/>
<path d="M361.296 162.731C365.871 163.731 370.389 160.833 371.389 156.258C372.389 151.684 369.491 147.165 364.916 146.165C360.341 145.166 355.823 148.064 354.823 152.638C353.823 157.213 356.721 161.732 361.296 162.731Z" fill="#171717"/>
<path d="M368.218 153.396C369.075 153.583 369.923 153.04 370.11 152.182C370.297 151.324 369.754 150.477 368.896 150.29C368.039 150.102 367.191 150.645 367.004 151.503C366.817 152.361 367.36 153.208 368.218 153.396Z" fill="white"/>
<path d="M382.134 171.624C388.996 173.123 395.774 168.776 397.273 161.915C398.773 155.053 394.426 148.275 387.564 146.775C380.702 145.276 373.924 149.623 372.424 156.484C370.925 163.346 375.272 170.125 382.134 171.624Z" fill="white"/>
<path d="M387.18 168.388C391.755 169.387 396.274 166.489 397.273 161.915C398.273 157.34 395.375 152.821 390.8 151.822C386.226 150.822 381.707 153.72 380.707 158.295C379.708 162.869 382.606 167.388 387.18 168.388Z" fill="#171717"/>
<path d="M394.102 159.052C394.96 159.239 395.807 158.696 395.994 157.838C396.182 156.981 395.638 156.133 394.781 155.946C393.923 155.758 393.076 156.302 392.888 157.16C392.701 158.017 393.244 158.865 394.102 159.052Z" fill="white"/>
<path fill-rule="evenodd" clip-rule="evenodd" d="M365.93 163.017C366.485 162.661 367.222 162.822 367.578 163.377L369.665 166.631L372.919 164.544C373.473 164.188 374.211 164.35 374.566 164.904C374.922 165.458 374.761 166.196 374.206 166.551L369.948 169.282C369.394 169.637 368.657 169.476 368.301 168.922L365.57 164.664C365.215 164.11 365.376 163.372 365.93 163.017Z" fill="#171717"/>
<path d="M346.6 176.88C346.287 176.811 346.025 176.626 345.862 176.335C345.535 175.753 338.056 162.199 336.75 155.711C335.479 149.409 342.925 130.106 343.232 129.279C343.461 128.691 344.105 128.398 344.686 128.627C345.266 128.856 345.553 129.506 345.324 130.094C343.233 135.508 338.004 150.548 338.945 155.246C340.176 161.386 347.724 175.083 347.799 175.202C348.107 175.754 347.905 176.45 347.362 176.74C347.151 176.898 346.865 176.937 346.6 176.88Z" fill="black"/>
<path d="M346.999 128.545C347.411 128.738 347.742 129.065 347.898 129.508C348.222 130.447 347.622 131.464 346.593 131.903C345.871 132.204 344.992 132.421 344.256 132.439C344.101 132.456 343.928 132.443 343.759 132.407C342.28 132.134 341.289 130.667 341.779 127.966C342.279 125.217 343.748 124.262 345.257 124.515C346.909 124.799 347.315 126.522 346.999 128.545Z" fill="black"/>
<path d="M394.995 187.582C394.706 187.519 394.444 187.334 394.274 187.068C393.937 186.534 394.115 185.833 394.64 185.514C394.757 185.437 407.444 177.464 411.468 173.136C414.694 169.68 416.29 153.719 416.664 147.853C416.701 147.223 417.233 146.752 417.856 146.786C418.479 146.82 418.942 147.355 418.905 147.985C418.768 150.227 417.472 170.007 413.118 174.696C408.874 179.231 396.357 187.114 395.829 187.458C395.569 187.606 395.284 187.645 394.995 187.582Z" fill="black"/>
<path d="M415.812 145.753C415.357 145.755 414.919 145.915 414.593 146.252C413.906 146.97 414.028 148.145 414.78 148.973C415.311 149.548 416.019 150.112 416.68 150.435C416.814 150.515 416.977 150.576 417.146 150.613C418.628 150.988 420.139 150.067 420.827 147.384C421.514 144.701 420.582 143.196 419.101 142.821C417.456 142.385 416.369 143.781 415.812 145.753Z" fill="black"/>
</g>
</g>
<circle cx="66" cy="174" r="50" fill="#FFE9F9"/>
<g clip-path="url(#clip2_585_31721)">
<path d="M75.194 99.8791L75.1948 99.8859C75.8756 105.867 77.2036 112.539 79.176 119.9C81.1229 127.166 83.3086 133.607 85.7346 139.222L85.7379 139.229C88.2715 144.845 91.494 149.37 95.414 152.787L95.4181 152.791C99.3268 156.123 104.097 158.225 109.71 159.106L109.721 159.108C115.412 159.867 122.373 159.131 130.586 156.93C138.797 154.73 145.148 151.9 149.604 148.42L149.608 148.417C154.123 144.823 157.206 140.617 158.831 135.796C160.544 130.968 161.036 125.496 160.327 119.393C159.716 113.29 158.435 106.604 156.488 99.3375C154.516 91.9765 152.318 85.4872 149.891 79.8722C147.453 74.2302 144.29 69.7364 140.392 66.4114C136.574 63.0482 131.812 60.9944 126.13 60.2351C120.503 59.353 113.526 60.0439 105.221 62.2693C97.0081 64.47 90.6221 67.3605 86.0969 70.9619C81.6487 74.4367 78.5543 78.5956 76.8351 83.4378C75.1214 88.2647 74.5804 93.7491 75.194 99.8791ZM121.303 133.698L115.796 135.174L105.193 95.6041C104.304 92.2857 104.577 90.2426 105.656 89.1851C106.239 88.6135 107.183 88.0279 108.527 87.4417C109.866 86.8583 111.57 86.2872 113.648 85.7305L119.869 84.0636L130.471 123.633C131.324 126.814 130.983 128.9 129.733 130.12C128.344 131.349 125.569 132.555 121.303 133.698Z" fill="#D00019" stroke="white"/>
<path d="M220.418 106.104L220.289 105.621L219.806 105.75L203.196 110.201L184.261 39.5376L184.132 39.0547L183.649 39.1841L159.536 45.6452L159.482 45.6597L159.432 45.6858L126.462 63.0474L126.109 63.2335L126.212 63.6192L132.772 88.0996L132.91 88.6163L133.416 88.4434L159.584 79.5013L170.18 119.047L143.497 126.197L143.015 126.326L143.144 126.809L149.703 151.29L149.833 151.773L150.316 151.643L226.624 131.197L227.107 131.067L226.977 130.584L220.418 106.104Z" fill="#D00019" stroke="white"/>
<path d="M210.487 108.688C210.026 108.427 209.682 108.02 209.534 107.505C209.239 106.405 210.003 105.294 211.219 104.912C212.075 104.648 213.091 104.478 213.91 104.53C214.098 104.525 214.285 104.555 214.478 104.605C216.169 105.081 217.156 106.845 216.36 109.879C215.559 112.938 213.826 113.89 212.121 113.451C210.28 112.959 209.959 110.971 210.487 108.688Z" fill="black"/>
<path d="M214.144 107.742C213.915 107.803 213.658 107.804 213.41 107.712C212.735 107.485 212.369 106.745 212.591 106.073C214.844 99.1357 217.57 87.0401 215.273 84.0975C212.395 80.4043 198.864 79.1123 193.886 78.9276C193.176 78.9028 192.624 78.3026 192.644 77.5835C192.666 76.875 193.252 76.3101 193.963 76.3349C195.916 76.4121 213.153 77.187 217.282 82.5053C219.038 84.7657 219.16 89.4695 217.639 96.8911C216.573 102.128 215.086 106.708 215.027 106.905C214.885 107.34 214.551 107.633 214.144 107.742Z" fill="black"/>
<path d="M164.706 119.994C164.891 119.543 164.932 119.032 164.753 118.549C164.379 117.52 163.239 117.066 162.18 117.426C161.428 117.681 160.611 118.096 160.061 118.59C159.93 118.69 159.804 118.811 159.703 118.947C158.753 120.232 158.991 122.155 161.165 124.112C163.364 126.084 165.109 125.888 166.083 124.617C167.124 123.231 166.295 121.5 164.706 119.994Z" fill="black"/>
<path d="M161.499 121.265C161.158 121.357 160.771 121.276 160.469 120.999C159.18 119.836 147.874 109.462 147.986 103.462C148.105 97.1248 159.3 85.6272 160.576 84.3411C161.027 83.884 161.75 83.9289 162.184 84.4421C162.627 84.9528 162.62 85.7362 162.166 86.1833C158.887 89.504 150.346 99.1075 150.264 103.633C150.201 107.232 157.354 115.05 161.877 119.135C162.371 119.578 162.452 120.359 162.066 120.875C161.923 121.076 161.721 121.206 161.499 121.265Z" fill="black"/>
<path d="M185.144 80.7121C178.743 82.4274 172.163 78.6284 170.447 72.2268C168.732 65.8252 172.531 59.2452 178.933 57.5299C185.334 55.8146 191.914 59.6136 193.629 66.0152C195.345 72.4168 191.546 78.9968 185.144 80.7121Z" fill="white"/>
<path d="M180.245 77.8837C175.978 79.0272 171.591 76.4946 170.447 72.2268C169.304 67.9591 171.836 63.5724 176.104 62.4289C180.372 61.2854 184.759 63.818 185.902 68.0857C187.046 72.3535 184.513 76.7402 180.245 77.8837Z" fill="#171717"/>
<path d="M173.31 69.3891C172.51 69.6035 171.688 69.1286 171.473 68.3284C171.259 67.5282 171.734 66.7057 172.534 66.4913C173.334 66.2769 174.157 66.7518 174.371 67.552C174.585 68.3522 174.111 69.1747 173.31 69.3891Z" fill="white"/>
<path d="M160.996 87.1826C154.594 88.8979 148.014 85.0989 146.299 78.6973C144.584 72.2957 148.383 65.7157 154.784 64.0004C161.186 62.2851 167.766 66.084 169.481 72.4856C171.197 78.8872 167.398 85.4673 160.996 87.1826Z" fill="white"/>
<path d="M156.097 84.3542C151.829 85.4977 147.443 82.965 146.299 78.6973C145.156 74.4296 147.688 70.0429 151.956 68.8993C156.224 67.7558 160.61 70.2885 161.754 74.5562C162.897 78.8239 160.365 83.2106 156.097 84.3542Z" fill="#171717"/>
<path d="M149.162 75.8596C148.362 76.074 147.54 75.5992 147.325 74.799C147.111 73.9988 147.586 73.1762 148.386 72.9618C149.186 72.7474 150.008 73.2223 150.223 74.0225C150.437 74.8227 149.962 75.6452 149.162 75.8596Z" fill="white"/>
<path fill-rule="evenodd" clip-rule="evenodd" d="M175.889 78.3567C175.351 78.046 174.664 78.2303 174.353 78.7682L172.529 81.9276L169.37 80.1036C168.832 79.793 168.144 79.9774 167.833 80.5154C167.522 81.0534 167.707 81.7415 168.245 82.0522L172.378 84.4387C172.916 84.7492 173.604 84.565 173.915 84.027L176.301 79.8935C176.612 79.3553 176.428 78.6672 175.889 78.3567Z" fill="#171717"/>
</g>
<g clip-path="url(#clip3_585_31721)">
<mask id="mask2_585_31721" style="mask-type:luminance" maskUnits="userSpaceOnUse" x="230" y="316" width="244" height="168">
<path d="M473.144 337.925L243.94 316L230 461.728L459.204 483.654L473.144 337.925Z" fill="white"/>
</mask>
<g mask="url(#mask2_585_31721)">
<path d="M267.315 374.78L266.683 374.793L266.622 375.423L263.536 407.683L263.475 408.324L264.107 408.448L301.24 415.753L299.999 428.729C293.274 428.926 285.123 428.568 275.538 427.651C266.157 426.754 254.482 423.928 240.501 419.155L239.783 418.909L239.585 419.642L229.867 455.759L229.693 456.406L230.328 456.618C246.706 462.087 262.978 465.597 279.142 467.143C287.142 467.908 295.104 468.294 303.027 468.303C310.989 468.459 318.266 467.34 324.848 464.934C331.462 462.517 336.94 458.536 341.269 453.001C345.795 447.289 348.523 439.164 349.523 428.706C350.307 420.515 349.117 413.39 345.909 407.367C342.765 401.463 337.71 396.673 330.795 392.983L330.815 392.767C337.179 390.053 342.171 386.168 345.761 381.103C349.424 375.937 351.6 369.581 352.319 362.066C353.149 353.388 352.165 346.395 349.272 341.164C346.41 335.989 342.361 331.997 337.137 329.199C331.961 326.272 325.957 324.26 319.136 323.154C312.513 322.071 305.794 321.203 298.981 320.551C282.202 318.946 264.423 320.103 245.647 324.013L245.034 324.141L245.083 324.764L247.696 358.243L247.754 358.975L248.483 358.894C263.682 357.21 276.117 356.838 285.803 357.765C290.815 358.244 295.065 358.8 298.558 359.431L298.572 359.434L298.587 359.436C301.789 359.878 304.424 360.327 306.499 360.782L305.235 373.991L267.315 374.78Z" fill="#9A00D0" stroke="white"/>
<path d="M440.769 340.54L440.836 339.832L440.129 339.764L329.772 329.208L329.002 329.134L328.993 329.907L328.543 369.895L328.535 370.556L329.195 370.611L381.71 374.969L332.616 471.282L332.141 472.213L333.181 472.312L383.567 477.132L384.052 477.179L384.271 476.741L438.018 368.802L438.076 368.684L438.089 368.553L440.769 340.54Z" fill="#9A00D0" stroke="white"/>
<path d="M362.491 390.163C371.868 391.06 380.196 384.186 381.093 374.809C381.99 365.432 375.116 357.104 365.739 356.207C356.362 355.31 348.034 362.184 347.137 371.561C346.24 380.938 353.114 389.266 362.491 390.163Z" fill="white"/>
<path d="M368.692 385.045C374.943 385.643 380.495 381.06 381.093 374.809C381.691 368.558 377.108 363.006 370.857 362.408C364.606 361.81 359.054 366.392 358.456 372.644C357.858 378.895 362.44 384.447 368.692 385.045Z" fill="#171717"/>
<path d="M376.412 371.506C377.584 371.618 378.625 370.758 378.737 369.586C378.849 368.414 377.99 367.373 376.818 367.261C375.646 367.149 374.605 368.008 374.492 369.18C374.38 370.352 375.24 371.394 376.412 371.506Z" fill="white"/>
<path d="M397.862 393.547C407.239 394.443 415.567 387.569 416.464 378.193C417.361 368.816 410.487 360.487 401.11 359.59C391.733 358.693 383.405 365.568 382.508 374.944C381.611 384.321 388.485 392.65 397.862 393.547Z" fill="white"/>
<path d="M404.062 388.429C410.314 389.026 415.866 384.444 416.464 378.193C417.062 371.941 412.479 366.389 406.228 365.791C399.977 365.193 394.424 369.776 393.827 376.027C393.229 382.278 397.811 387.831 404.062 388.429Z" fill="#171717"/>
<path d="M411.783 374.889C412.955 375.001 413.996 374.142 414.108 372.97C414.22 371.798 413.361 370.757 412.189 370.645C411.017 370.533 409.976 371.392 409.863 372.564C409.751 373.736 410.611 374.777 411.783 374.889Z" fill="white"/>
<path fill-rule="evenodd" clip-rule="evenodd" d="M374.908 384.682C375.589 384.12 376.597 384.217 377.159 384.898L380.459 388.896L384.459 385.596C385.139 385.034 386.147 385.13 386.708 385.811C387.271 386.492 387.175 387.5 386.493 388.062L381.261 392.38C380.581 392.943 379.573 392.846 379.011 392.165L374.692 386.933C374.13 386.252 374.227 385.244 374.908 384.682Z" fill="#171717"/>
<path d="M456.214 439.037C456.094 439.026 455.939 438.971 455.824 438.92L397.207 412.467C396.555 412.164 396.265 411.415 396.569 410.763C396.871 410.11 397.62 409.821 398.272 410.124L456.893 436.537C457.545 436.84 457.835 437.589 457.532 438.242C457.28 438.779 456.769 439.09 456.214 439.037Z" fill="black"/>
<path d="M460.273 435.978C460.323 435.462 460.173 434.926 459.85 434.535C459.092 433.66 457.727 433.69 456.73 434.477C456.034 435.052 455.282 435.781 454.853 436.502C454.759 436.653 454.661 436.844 454.606 437C454.045 438.67 454.91 440.516 457.9 441.524C460.885 442.571 462.694 441.662 463.294 439.995C463.946 438.214 462.475 436.83 460.273 435.978Z" fill="black"/>
<path d="M323.559 373.031C323.919 372.625 324.386 372.349 324.91 372.319C326.041 372.226 326.989 373.199 327.106 374.493C327.221 375.386 327.158 376.462 326.963 377.245C326.944 377.444 326.889 377.599 326.791 377.79C325.996 379.398 324.093 380.017 321.261 378.624C318.39 377.227 317.81 375.327 318.565 373.716C319.375 371.949 321.412 372.024 323.559 373.031Z" fill="black"/>
<path d="M374.181 398.038C374.062 398.026 373.942 398.015 373.827 397.964L323.567 378.404C322.911 378.141 322.582 377.388 322.806 376.727C323.069 376.071 323.821 375.742 324.481 375.966L374.781 395.53C375.437 395.793 375.766 396.546 375.543 397.206C375.287 397.783 374.737 398.091 374.181 398.038Z" fill="black"/>
</g>
</g>
<defs>
<clipPath id="clip0_585_31721">
<rect width="182" height="130" fill="white" transform="translate(0 262.105) rotate(-15)"/>
</clipPath>
<clipPath id="clip1_585_31721">
<rect width="155.791" height="104.921" fill="white" transform="translate(280.399 106) rotate(12.3267)"/>
</clipPath>
<clipPath id="clip2_585_31721">
<rect width="144" height="101" fill="white" transform="translate(65.383 70.3557) rotate(-15)"/>
</clipPath>
<clipPath id="clip3_585_31721">
<rect width="230.25" height="146.394" fill="white" transform="translate(243.94 316) rotate(5.46424)"/>
</clipPath>
</defs>
</svg>
