<svg width="1024" height="939" viewBox="0 0 1024 939" fill="none" xmlns="http://www.w3.org/2000/svg">
    <path fill-rule="evenodd" clip-rule="evenodd" d="M2278.47 813.494C2300.27 741.956 2313.43 649.529 2303.8 607.822C2300.52 593.57 2294.86 581.135 2287.76 573.73C2275.59 560.945 2259.5 563.041 2243.91 595.526C2226.33 632.204 2209.45 602.024 2216.35 561.504C2222.16 527.551 2236.21 475.784 2242.87 421.152C2260.89 272.837 2185.46 171.887 2089.87 195.291C2008.38 215.271 1966.12 185.999 1932.71 150.789C1877.44 92.5946 1799.77 38.4521 1752.45 83.1633C1699.31 133.324 1709.2 290.931 1586.54 294.284C1495.12 296.799 1460.16 238.535 1407.62 190.82C1319.23 110.619 1186.05 106.078 1102.87 193.405C1055.2 243.425 1038.67 286.041 915.962 156.937C860.693 98.8123 783.028 44.5999 735.705 89.3111C682.571 139.472 692.453 297.079 569.798 300.432C414.518 304.624 386.511 -3.39488 194.087 0.0283239C102.171 1.63513 10.85 87.9139 64.8776 244.333C81.1157 291.42 99.4394 339.764 81.1654 387.06C57.7766 447.7 10.2541 487.87 64.828 546.763C83.5986 567.023 82.7544 599.578 59.4649 621.585C38.41 641.495 22.1223 668.601 13.1839 698.432C-20.5834 811.188 13.9784 892.996 77.4907 923.036C145.472 955.173 245.632 930.861 296.035 913.605C504.697 842.277 518.005 899.563 702.186 937.009C774.388 951.68 907.967 880.351 967.01 884.054C1042.79 888.735 1096.62 928.276 1144.14 930.791C1204.82 938.476 1273.7 920.871 1312.78 907.527C1521.44 836.199 1534.75 893.485 1718.93 930.931C1791.13 945.602 1924.71 874.273 1983.75 877.976C2068.82 883.215 2126.22 932.398 2178.06 923.805C2220.97 916.609 2259.2 876.718 2278.47 813.494Z" fill="#005BE2" fill-opacity="0.04"/>
    </svg>
    