<!-- Generator: Adobe Illustrator 25.2.0, SVG Export Plug-In  -->
<svg version="1.1" xmlns="http://www.w3.org/2000/svg" xmlns:xlink="http://www.w3.org/1999/xlink" x="0px" y="0px"
	 width="277.21px" height="172.34px" viewBox="0 0 277.21 172.34"
	 style="overflow:visible;enable-background:new 0 0 277.21 172.34;" xml:space="preserve">
<style type="text/css">
	.st0{fill:#DFFBFF;}
	.st1{fill:#E9FFF4;}
	.st2{fill:#FFE9F9;}
	.st3{clip-path:url(#SVGID_2_);}
	.st4{fill:#FFFFFF;filter:url(#Adobe_OpacityMaskFilter);}
	.st5{mask:url(#mask0_575_18445_1_);}
	.st6{fill:#008EDE;stroke:#FFFFFF;}
	.st7{fill:#FFFFFF;}
	.st8{fill:#171717;}
	.st9{fill-rule:evenodd;clip-rule:evenodd;fill:#171717;}
	.st10{clip-path:url(#SVGID_4_);}
	.st11{fill:#FFFFFF;filter:url(#Adobe_OpacityMaskFilter_1_);}
	.st12{mask:url(#mask1_575_18445_1_);}
	.st13{fill:#FBE41A;stroke:#FFFFFF;}
	.st14{clip-path:url(#SVGID_6_);}
	.st15{fill:#D00019;stroke:#FFFFFF;}
	.st16{clip-path:url(#SVGID_8_);}
	.st17{fill:#FFFFFF;filter:url(#Adobe_OpacityMaskFilter_2_);}
	.st18{mask:url(#mask2_575_18445_1_);}
	.st19{fill:#9A00D0;stroke:#FFFFFF;}
	.st20{fill:#FF4A4A;}
	.st21{clip-path:url(#SVGID_10_);}
	.st22{fill:#FFFFFF;filter:url(#Adobe_OpacityMaskFilter_3_);}
	.st23{mask:url(#mask0_575_18445_2_);}
	.st24{clip-path:url(#SVGID_12_);}
	.st25{fill:#FFFFFF;filter:url(#Adobe_OpacityMaskFilter_4_);}
	.st26{mask:url(#mask1_575_18445_2_);}
	.st27{clip-path:url(#SVGID_14_);}
	.st28{clip-path:url(#SVGID_16_);}
	.st29{fill:#FFFFFF;filter:url(#Adobe_OpacityMaskFilter_5_);}
	.st30{mask:url(#mask2_575_18445_2_);}
</style>
<defs>
</defs>
<circle class="st0" cx="193.04" cy="120.42" r="51.92"/>
<circle class="st1" cx="169.97" cy="51.92" r="51.92"/>
<circle class="st2" cx="50.33" cy="70.95" r="17.25"/>
<g>
	<defs>
		
			<rect id="SVGID_1_" x="5.54" y="89.62" transform="matrix(0.9659 -0.2588 0.2588 0.9659 -28.5491 14.8966)" width="73.52" height="52.51"/>
	</defs>
	<clipPath id="SVGID_2_">
		<use xlink:href="#SVGID_1_"  style="overflow:visible;"/>
	</clipPath>
	<g class="st3">
		<defs>
			<filter id="Adobe_OpacityMaskFilter" filterUnits="userSpaceOnUse" x="0.95" y="81.12" width="79.67" height="70.56">
				<feColorMatrix  type="matrix" values="1 0 0 0 0  0 1 0 0 0  0 0 1 0 0  0 0 0 1 0"/>
			</filter>
		</defs>
		<mask maskUnits="userSpaceOnUse" x="0.95" y="81.12" width="79.67" height="70.56" id="mask0_575_18445_1_">
			<path class="st4" d="M71.01,81L0,100.03l13.59,50.72l71.01-19.03L71.01,81z"/>
		</mask>
		<g class="st5">
			<path class="st6" d="M6.91,114.11l0.12,0.25l0.24-0.13c4.49-2.44,9.2-4.33,14.16-5.65c1-0.27,2.03-0.49,3.11-0.67l0.01,0l0.01,0
				c1.05-0.23,2.16-0.45,3.31-0.65l1.04,3.89c-0.57,0.48-1.2,1.02-1.88,1.62c-0.75,0.6-1.58,1.27-2.51,2.03
				c-0.93,0.76-1.93,1.56-3.01,2.42l0,0c-1.02,0.84-2.04,1.71-3.05,2.61c-0.97,0.83-1.89,1.67-2.74,2.53l0,0
				c-0.8,0.84-1.5,1.69-2.08,2.53c-1.03,1.47-1.86,2.87-2.48,4.18l0,0c-0.59,1.25-1,2.51-1.23,3.79l0,0.01l0,0.01
				c-0.18,1.26-0.21,2.56-0.08,3.91l0,0l0,0c0.17,1.27,0.45,2.65,0.85,4.14l2.65,9.91l0.07,0.25l0.25-0.07l40.71-10.91l0.25-0.07
				l-0.07-0.25l-3.4-12.68l-0.07-0.25l-0.25,0.07l-22.13,5.93l-0.48-1.79c4.27-2.82,7.72-5.29,10.36-7.4
				c2.67-2.14,4.67-4.19,5.99-6.15c1.32-1.96,2.06-3.95,2.22-5.97l0,0c0.14-2.06-0.14-4.39-0.84-7c-0.94-3.51-2.2-6.19-3.79-8.02
				c-1.53-1.84-3.37-3.06-5.51-3.65c-2.14-0.64-4.53-0.77-7.18-0.4c-2.6,0.3-5.44,0.86-8.52,1.68c-6.53,1.75-12.93,4.54-19.18,8.38
				l-0.2,0.12l0.1,0.21L6.91,114.11z"/>
			<path class="st6" d="M41.29,141.08l0.02,0.24l0.24-0.01c6.32-0.22,12.85-1.23,19.59-3.03c1.37-0.37,2.89-0.8,4.55-1.3
				c1.68-0.51,3.29-1.14,4.85-1.9c1.62-0.72,3.1-1.54,4.44-2.48l0,0l0,0c1.34-0.99,2.41-2.12,3.23-3.38l0-0.01l0-0.01
				c0.91-1.58,1.49-3.64,1.78-6.17c0.29-2.55-0.02-5.51-0.92-8.86c-0.63-2.35-1.5-4.32-2.62-5.93c-1.08-1.68-2.53-2.97-4.32-3.88
				c-1.81-0.96-4-1.55-6.56-1.78c-2.56-0.23-5.64-0.09-9.23,0.42l0,0l-4.57,0.66l-0.95-3.55l18.69-3.84l0.25-0.05l-0.04-0.25
				l-2.47-13.95l-0.05-0.28l-0.27,0.07l-35.84,9.6l-0.24,0.06l0.06,0.24c1.51,6.67,2.64,11.75,3.4,15.23l0,0
				c0.81,3.46,1.26,5.33,1.33,5.6c0.54,2.03,1.27,3.68,2.19,4.95l0,0c0.91,1.22,2.14,2.12,3.69,2.7l0.01,0l0.01,0
				c1.58,0.5,3.52,0.73,5.83,0.68c2.31-0.05,5.14-0.35,8.49-0.91c0,0,0,0,0,0l5.84-0.91l0.94,3.51c-2.29,0.93-5.24,1.88-8.85,2.85
				c-3.65,0.98-8.18,1.54-13.58,1.69l-0.28,0.01l0.03,0.28L41.29,141.08z"/>
			<path class="st7" d="M48.39,108.59c3.31-0.89,5.28-4.31,4.39-7.64c-0.89-3.33-4.3-5.31-7.62-4.42c-3.31,0.89-5.28,4.31-4.39,7.63
				C41.67,107.5,45.07,109.48,48.39,108.59z"/>
			<path class="st8" d="M49.85,106.05c2.21-0.59,3.52-2.87,2.92-5.09c-0.59-2.22-2.87-3.54-5.08-2.95
				c-2.21,0.59-3.52,2.87-2.92,5.09C45.37,105.32,47.64,106.64,49.85,106.05z"/>
			<path class="st7" d="M50.76,100.42c0.41-0.11,0.66-0.54,0.55-0.95c-0.11-0.42-0.54-0.66-0.95-0.55
				c-0.41,0.11-0.66,0.54-0.55,0.95C49.92,100.29,50.34,100.53,50.76,100.42z"/>
			<path class="st7" d="M60.89,105.24c3.31-0.89,5.28-4.31,4.39-7.63c-0.89-3.33-4.3-5.31-7.62-4.42c-3.31,0.89-5.28,4.31-4.39,7.63
				C54.17,104.15,57.58,106.13,60.89,105.24z"/>
			<path class="st8" d="M62.35,102.7c2.21-0.59,3.52-2.87,2.92-5.09c-0.59-2.22-2.87-3.54-5.08-2.95c-2.21,0.59-3.52,2.87-2.92,5.09
				C57.87,101.97,60.14,103.29,62.35,102.7z"/>
			<path class="st7" d="M63.26,97.07c0.41-0.11,0.66-0.54,0.55-0.95c-0.11-0.42-0.54-0.66-0.95-0.55s-0.66,0.54-0.55,0.95
				C62.42,96.94,62.84,97.18,63.26,97.07z"/>
			<path class="st9" d="M51.93,105.13c0.16-0.28,0.52-0.38,0.8-0.21l1.64,0.95l0.94-1.64c0.16-0.28,0.52-0.38,0.8-0.21
				c0.28,0.16,0.38,0.52,0.21,0.8l-1.23,2.15c-0.16,0.28-0.52,0.38-0.8,0.21l-2.14-1.24C51.86,105.77,51.77,105.41,51.93,105.13z"/>
			<path d="M49.35,130.62c-0.32-0.29-0.36-0.8-0.12-1.18c0.17-0.26-0.11,0.04,0.12-0.11c0.05-0.04,0.1-0.08,0.16-0.09
				c0.56-0.21,1.21,0.14,1.66,1.27c0.46,1.14,0.61,2.46-0.15,2.68C50.26,133.4,49.5,130.75,49.35,130.62z"/>
			<path d="M36.92,112.74c-0.12,0.03-0.23,0.12-0.27,0.25c-1.6,4.54-1.15,10.86,3.61,14.05c2.57,1.72,6.41,2.9,9.35,2.88
				c0.21-0.01,0.39-0.18,0.4-0.4c0.01-0.21-0.18-0.39-0.4-0.4c-2.8,0.02-6.45-1.11-8.91-2.75c-4.41-2.95-4.81-8.86-3.31-13.12
				c0.07-0.21-0.04-0.43-0.24-0.5C37.06,112.73,36.99,112.72,36.92,112.74z"/>
			<path d="M68.24,125.56c0.13-0.41-0.08-0.87-0.49-1.08c-0.28-0.14,0.12-0.02-0.16-0.03c-0.06-0.01-0.13-0.01-0.19,0
				c-0.59,0.1-0.97,0.73-0.8,1.93c0.17,1.21,0.7,2.43,1.47,2.24C68.84,128.42,68.18,125.75,68.24,125.56z"/>
			<path d="M70.07,103.86c0.12-0.03,0.26-0.01,0.36,0.08c3.65,3.13,6.42,8.83,3.9,13.97c-1.37,2.77-4.11,5.71-6.66,7.17
				c-0.19,0.1-0.43,0.04-0.54-0.15s-0.04-0.43,0.14-0.54c2.43-1.38,5.03-4.18,6.34-6.83c2.34-4.76-0.27-10.08-3.69-13.02
				c-0.16-0.15-0.18-0.39-0.05-0.55C69.94,103.92,70,103.88,70.07,103.86z"/>
		</g>
	</g>
</g>
<g>
	<defs>
		
			<rect id="SVGID_3_" x="160.29" y="20.41" transform="matrix(0.2135 -0.9769 0.9769 0.2135 92.0594 218.0927)" width="42.38" height="62.93"/>
	</defs>
	<clipPath id="SVGID_4_">
		<use xlink:href="#SVGID_3_"  style="overflow:visible;"/>
	</clipPath>
	<g class="st10">
		<defs>
			<filter id="Adobe_OpacityMaskFilter_1_" filterUnits="userSpaceOnUse" x="145.36" y="27.06" width="66.72" height="50.7">
				<feColorMatrix  type="matrix" values="1 0 0 0 0  0 1 0 0 0  0 0 1 0 0  0 0 0 1 0"/>
			</filter>
		</defs>
		<mask maskUnits="userSpaceOnUse" x="145.36" y="27.06" width="66.72" height="50.7" id="mask1_575_18445_1_">
			<path class="st11" d="M216.74,37.89l-61.48-13.43l-9.05,41.4l61.48,13.43L216.74,37.89z"/>
		</mask>
		<g class="st12">
			<path class="st13" d="M181.78,62.52l0.05-0.21l-0.21-0.05l-7.19-1.57l6.69-30.6l0.05-0.21l-0.21-0.05l-10.44-2.28l-0.02-0.01
				l-0.02,0l-15.95,0.12l-0.17,0l-0.04,0.17l-2.32,10.6l-0.05,0.22l0.23,0.03l11.71,1.74l-3.74,17.12l-11.55-2.52L148.37,55
				l-0.05,0.21l-2.32,10.6l-0.05,0.21l0.21,0.05l33.04,7.22l0.21,0.05l0.05-0.21L181.78,62.52z"/>
			<path class="st13" d="M182.72,47.81l-0.19-0.02l-0.04,0.19l-2.08,9.54l-0.04,0.19l0.18,0.06l10.84,3.52l-0.84,3.84
				c-2.02-0.18-4.44-0.58-7.28-1.2c-2.77-0.61-6.16-1.87-10.17-3.8l-0.21-0.1l-0.08,0.21l-4.21,10.45l-0.07,0.19l0.18,0.09
				c4.7,2.22,9.44,3.86,14.22,4.9c2.36,0.52,4.73,0.92,7.1,1.21c2.38,0.33,4.59,0.26,6.65-0.22c2.06-0.49,3.85-1.48,5.34-2.98
				c1.56-1.55,2.67-3.88,3.34-6.97c0.53-2.42,0.43-4.6-0.31-6.51c-0.73-1.88-2.07-3.49-4-4.85l0.01-0.06c2-0.58,3.63-1.56,4.89-2.95
				c1.28-1.41,2.16-3.24,2.65-5.46c0.56-2.57,0.52-4.69-0.16-6.36c-0.67-1.65-1.74-2.99-3.2-4.01c-1.44-1.06-3.17-1.88-5.17-2.46
				c-1.94-0.56-3.92-1.06-5.93-1.5c-4.96-1.08-10.32-1.38-16.07-0.88l-0.19,0.02l-0.01,0.19l-0.42,10.11l-0.01,0.22l0.22,0
				c4.61,0.04,8.34,0.38,11.2,1.01c1.48,0.32,2.73,0.64,3.75,0.96l0,0l0.01,0c0.94,0.25,1.71,0.48,2.32,0.69l-0.85,3.9L182.72,47.81
				z"/>
			<path class="st7" d="M185.9,48.68c2.77,0.61,5.51-1.15,6.12-3.92c0.61-2.77-1.15-5.51-3.92-6.12c-2.77-0.61-5.51,1.15-6.12,3.92
				C181.37,45.33,183.13,48.07,185.9,48.68z"/>
			<path class="st8" d="M187.94,47.37c1.85,0.4,3.67-0.77,4.08-2.61c0.4-1.85-0.77-3.67-2.62-4.08c-1.85-0.4-3.67,0.77-4.08,2.61
				C184.92,45.14,186.09,46.96,187.94,47.37z"/>
			<path class="st7" d="M190.74,43.6c0.35,0.08,0.69-0.14,0.76-0.49c0.08-0.35-0.14-0.69-0.49-0.76c-0.35-0.08-0.69,0.14-0.76,0.49
				C190.17,43.18,190.39,43.52,190.74,43.6z"/>
			<path class="st7" d="M196.36,50.96c2.77,0.61,5.51-1.15,6.12-3.92c0.61-2.77-1.15-5.51-3.92-6.12c-2.77-0.61-5.51,1.15-6.12,3.92
				C191.83,47.62,193.59,50.35,196.36,50.96z"/>
			<path class="st8" d="M198.4,49.65c1.85,0.4,3.67-0.77,4.08-2.61c0.4-1.85-0.77-3.67-2.62-4.08c-1.85-0.4-3.67,0.77-4.08,2.61
				C195.38,47.42,196.55,49.25,198.4,49.65z"/>
			<path class="st7" d="M201.19,45.88c0.35,0.08,0.69-0.14,0.76-0.49c0.08-0.35-0.14-0.69-0.49-0.76c-0.35-0.08-0.69,0.14-0.76,0.49
				C200.63,45.46,200.85,45.81,201.19,45.88z"/>
			<path class="st9" d="M189.81,47.48c0.22-0.14,0.52-0.08,0.67,0.15l0.84,1.31l1.31-0.84c0.22-0.14,0.52-0.08,0.67,0.15
				c0.14,0.22,0.08,0.52-0.15,0.67l-1.72,1.1c-0.22,0.14-0.52,0.08-0.66-0.15l-1.1-1.72C189.52,47.92,189.59,47.63,189.81,47.48z"/>
			<path d="M182,53.08c-0.13-0.03-0.23-0.1-0.3-0.22c-0.13-0.24-3.15-5.71-3.68-8.33c-0.51-2.55,2.5-10.34,2.62-10.68
				c0.09-0.24,0.35-0.36,0.59-0.26c0.23,0.09,0.35,0.35,0.26,0.59c-0.84,2.19-2.96,8.26-2.58,10.16c0.5,2.48,3.55,8.01,3.58,8.06
				c0.12,0.22,0.04,0.5-0.18,0.62C182.23,53.09,182.11,53.11,182,53.08z"/>
			<path d="M182.17,33.56c0.17,0.08,0.3,0.21,0.36,0.39c0.13,0.38-0.11,0.79-0.53,0.97c-0.29,0.12-0.65,0.21-0.94,0.22
				c-0.06,0.01-0.13,0-0.2-0.01c-0.6-0.11-1-0.7-0.8-1.79c0.2-1.11,0.8-1.5,1.4-1.39C182.13,32.05,182.29,32.74,182.17,33.56z"/>
			<path d="M201.55,57.41c-0.12-0.03-0.22-0.1-0.29-0.21c-0.14-0.22-0.06-0.5,0.15-0.63c0.05-0.03,5.17-3.25,6.8-5
				c1.3-1.4,1.95-7.84,2.1-10.21c0.02-0.25,0.23-0.44,0.48-0.43c0.25,0.01,0.44,0.23,0.42,0.48c-0.06,0.91-0.58,8.9-2.34,10.79
				c-1.71,1.83-6.77,5.02-6.98,5.15C201.78,57.42,201.67,57.43,201.55,57.41z"/>
			<path d="M209.96,40.51c-0.18,0-0.36,0.07-0.49,0.2c-0.28,0.29-0.23,0.76,0.08,1.1c0.21,0.23,0.5,0.46,0.77,0.59
				c0.05,0.03,0.12,0.06,0.19,0.07c0.6,0.15,1.21-0.22,1.49-1.3c0.28-1.08-0.1-1.69-0.7-1.84
				C210.63,39.15,210.19,39.71,209.96,40.51z"/>
		</g>
	</g>
</g>
<g>
	<defs>
		
			<rect id="SVGID_5_" x="57.7" y="18.83" transform="matrix(0.9659 -0.2588 0.2588 0.9659 -7.1968 23.7977)" width="58.17" height="40.8"/>
	</defs>
	<clipPath id="SVGID_6_">
		<use xlink:href="#SVGID_5_"  style="overflow:visible;"/>
	</clipPath>
	<g class="st14">
		<path class="st15" d="M57.37,38.98L57.37,38.98c0.28,2.42,0.81,5.11,1.61,8.09c0.79,2.93,1.67,5.54,2.65,7.8l0,0
			c1.02,2.27,2.33,4.1,3.91,5.48l0,0c1.58,1.35,3.51,2.2,5.77,2.55l0,0c2.3,0.31,5.11,0.01,8.43-0.88c3.32-0.89,5.88-2.03,7.68-3.44
			l0,0c1.82-1.45,3.07-3.15,3.73-5.1c0.69-1.95,0.89-4.16,0.6-6.63c-0.25-2.47-0.76-5.17-1.55-8.1c-0.8-2.97-1.68-5.59-2.66-7.86
			c-0.98-2.28-2.26-4.09-3.84-5.44c-1.54-1.36-3.47-2.19-5.76-2.49c-2.27-0.36-5.09-0.08-8.45,0.82c-3.32,0.89-5.9,2.06-7.72,3.51
			c-1.8,1.4-3.05,3.08-3.74,5.04C57.34,34.29,57.13,36.5,57.37,38.98z M76,52.64l-2.22,0.6l-4.28-15.98
			c-0.36-1.34-0.25-2.17,0.19-2.59c0.24-0.23,0.62-0.47,1.16-0.7c0.54-0.24,1.23-0.47,2.07-0.69l2.51-0.67l4.28,15.98
			c0.34,1.28,0.21,2.13-0.3,2.62C78.84,51.69,77.72,52.18,76,52.64z"/>
		<path class="st15" d="M116.04,41.5l-0.05-0.2l-0.19,0.05l-6.71,1.8l-7.65-28.54l-0.05-0.2l-0.2,0.05l-9.74,2.61l-0.02,0.01
			l-0.02,0.01L78.08,24.1l-0.14,0.08l0.04,0.16l2.65,9.89l0.06,0.21l0.2-0.07l10.57-3.61l4.28,15.97l-10.78,2.89l-0.2,0.05l0.05,0.2
			l2.65,9.89l0.05,0.19l0.2-0.05l30.82-8.26l0.19-0.05l-0.05-0.2L116.04,41.5z"/>
		<path d="M112.02,42.54c-0.19-0.11-0.33-0.27-0.39-0.48c-0.12-0.44,0.19-0.89,0.68-1.05c0.35-0.11,0.76-0.18,1.09-0.15
			c0.08,0,0.15,0.01,0.23,0.03c0.68,0.19,1.08,0.9,0.76,2.13c-0.32,1.24-1.02,1.62-1.71,1.44
			C111.94,44.26,111.81,43.46,112.02,42.54z"/>
		<path d="M113.5,42.16c-0.09,0.02-0.2,0.03-0.3-0.01c-0.27-0.09-0.42-0.39-0.33-0.66c0.91-2.8,2.01-7.69,1.08-8.88
			c-1.16-1.49-6.63-2.01-8.64-2.09c-0.29-0.01-0.51-0.25-0.5-0.54c0.01-0.29,0.24-0.51,0.53-0.5c0.79,0.03,7.75,0.34,9.42,2.49
			c0.71,0.91,0.76,2.81,0.14,5.81c-0.43,2.12-1.03,3.97-1.06,4.05C113.8,41.99,113.67,42.11,113.5,42.16z"/>
		<path d="M93.53,47.11c0.07-0.18,0.09-0.39,0.02-0.58c-0.15-0.42-0.61-0.6-1.04-0.45c-0.3,0.1-0.63,0.27-0.86,0.47
			c-0.05,0.04-0.1,0.09-0.14,0.14c-0.38,0.52-0.29,1.3,0.59,2.09c0.89,0.8,1.59,0.72,1.99,0.2C94.51,48.41,94.17,47.71,93.53,47.11z
			"/>
		<path d="M92.24,47.62c-0.14,0.04-0.29,0-0.42-0.11c-0.52-0.47-5.09-4.66-5.04-7.08c0.05-2.56,4.57-7.2,5.09-7.72
			c0.18-0.18,0.47-0.17,0.65,0.04c0.18,0.21,0.18,0.52-0.01,0.7c-1.32,1.34-4.77,5.22-4.81,7.05c-0.03,1.45,2.86,4.61,4.69,6.26
			c0.2,0.18,0.23,0.49,0.08,0.7C92.41,47.54,92.32,47.6,92.24,47.62z"/>
		<path class="st7" d="M101.79,31.24c-2.59,0.69-5.24-0.84-5.94-3.43c-0.69-2.59,0.84-5.24,3.43-5.94c2.59-0.69,5.24,0.84,5.94,3.43
			C105.91,27.89,104.37,30.55,101.79,31.24z"/>
		<path class="st8" d="M99.81,30.1c-1.72,0.46-3.5-0.56-3.96-2.29c-0.46-1.72,0.56-3.5,2.28-3.96c1.72-0.46,3.5,0.56,3.96,2.28
			C102.55,27.86,101.53,29.63,99.81,30.1z"/>
		<path class="st7" d="M97.01,26.66c-0.32,0.09-0.66-0.11-0.74-0.43s0.11-0.66,0.43-0.74c0.32-0.09,0.66,0.11,0.74,0.43
			C97.52,26.25,97.33,26.58,97.01,26.66z"/>
		<path class="st7" d="M92.03,33.85c-2.59,0.69-5.24-0.84-5.94-3.43c-0.69-2.59,0.84-5.24,3.43-5.94c2.59-0.69,5.24,0.84,5.94,3.43
			C96.15,30.5,94.62,33.16,92.03,33.85z"/>
		<path class="st8" d="M90.05,32.71c-1.72,0.46-3.5-0.56-3.96-2.28c-0.46-1.72,0.56-3.5,2.29-3.96c1.72-0.46,3.5,0.56,3.96,2.28
			C92.8,30.48,91.78,32.25,90.05,32.71z"/>
		<path class="st7" d="M87.25,29.28c-0.32,0.09-0.66-0.11-0.74-0.43c-0.09-0.32,0.11-0.66,0.43-0.74c0.32-0.09,0.66,0.11,0.74,0.43
			C87.77,28.86,87.57,29.19,87.25,29.28z"/>
		<path class="st9" d="M98.05,30.29c-0.22-0.13-0.5-0.05-0.62,0.17l-0.74,1.28l-1.28-0.74c-0.22-0.13-0.5-0.05-0.62,0.17
			c-0.13,0.22-0.05,0.5,0.17,0.62l1.67,0.96c0.22,0.13,0.5,0.05,0.62-0.17l0.96-1.67C98.34,30.69,98.27,30.41,98.05,30.29z"/>
	</g>
</g>
<g>
	<defs>
		
			<rect id="SVGID_7_" x="198.54" y="87.36" transform="matrix(0.0952 -0.9955 0.9955 0.0952 73.1335 348.1844)" width="59.13" height="93.01"/>
	</defs>
	<clipPath id="SVGID_8_">
		<use xlink:href="#SVGID_7_"  style="overflow:visible;"/>
	</clipPath>
	<g class="st16">
		<defs>
			<filter id="Adobe_OpacityMaskFilter_2_" filterUnits="userSpaceOnUse" x="178.27" y="101.06" width="95.03" height="64.58">
				<feColorMatrix  type="matrix" values="1 0 0 0 0  0 1 0 0 0  0 0 1 0 0  0 0 0 1 0"/>
			</filter>
		</defs>
		<mask maskUnits="userSpaceOnUse" x="178.27" y="101.06" width="95.03" height="64.58" id="mask2_575_18445_1_">
			<path class="st17" d="M277.21,108.86L184.63,100L179,158.87l92.58,8.86L277.21,108.86z"/>
		</mask>
		<g class="st18">
			<path class="st19" d="M194.07,123.74l-0.26,0.01l-0.02,0.25l-1.25,13.03l-0.02,0.26l0.25,0.05l15,2.95l-0.5,5.24
				c-2.72,0.08-6.01-0.07-9.88-0.43c-3.79-0.36-8.5-1.5-14.15-3.43l-0.29-0.1l-0.08,0.3l-3.93,14.59l-0.07,0.26l0.26,0.09
				c6.62,2.21,13.19,3.63,19.72,4.25c3.23,0.31,6.45,0.46,9.65,0.47c3.22,0.06,6.16-0.39,8.81-1.36c2.67-0.98,4.89-2.59,6.63-4.82
				c1.83-2.31,2.93-5.59,3.33-9.81c0.32-3.31-0.16-6.19-1.46-8.62c-1.27-2.39-3.31-4.32-6.11-5.81l0.01-0.09
				c2.57-1.1,4.59-2.67,6.04-4.71c1.48-2.09,2.36-4.65,2.65-7.69c0.34-3.51-0.06-6.33-1.23-8.44c-1.16-2.09-2.79-3.7-4.9-4.83
				c-2.09-1.18-4.52-2-7.27-2.44c-2.68-0.44-5.39-0.79-8.14-1.05c-6.78-0.65-13.96-0.18-21.54,1.4l-0.25,0.05l0.02,0.25l1.06,13.52
				l0.02,0.29l0.29-0.03c6.14-0.68,11.16-0.83,15.07-0.46c2.02,0.19,3.74,0.42,5.15,0.67l0.01,0h0.01c1.29,0.18,2.36,0.36,3.19,0.54
				l-0.51,5.34L194.07,123.74z"/>
			<path class="st19" d="M264.14,109.91l0.03-0.29l-0.29-0.03l-44.58-4.26l-0.31-0.03l0,0.31l-0.18,16.15l0,0.27l0.27,0.02
				l21.21,1.76l-19.83,38.9l-0.19,0.38l0.42,0.04l20.35,1.95l0.2,0.02l0.09-0.18l21.71-43.6l0.02-0.05l0-0.05L264.14,109.91z"/>
			<path class="st7" d="M232.52,129.96c3.79,0.36,7.15-2.41,7.51-6.2c0.36-3.79-2.41-7.15-6.2-7.51c-3.79-0.36-7.15,2.41-7.51,6.2
				C225.95,126.23,228.73,129.6,232.52,129.96z"/>
			<path class="st8" d="M235.02,127.89c2.52,0.24,4.77-1.61,5.01-4.14c0.24-2.52-1.61-4.77-4.13-5.01
				c-2.53-0.24-4.77,1.61-5.01,4.13C230.65,125.41,232.5,127.65,235.02,127.89z"/>
			<path class="st7" d="M238.14,122.42c0.47,0.05,0.89-0.3,0.94-0.78c0.04-0.47-0.3-0.89-0.78-0.94c-0.47-0.04-0.89,0.3-0.94,0.78
				C237.32,121.96,237.67,122.38,238.14,122.42z"/>
			<path class="st7" d="M246.8,131.32c3.79,0.36,7.15-2.42,7.51-6.2c0.36-3.79-2.41-7.15-6.2-7.51c-3.79-0.36-7.15,2.41-7.51,6.2
				C240.24,127.6,243.02,130.96,246.8,131.32z"/>
			<path class="st8" d="M249.31,129.26c2.53,0.24,4.77-1.61,5.01-4.14s-1.61-4.77-4.13-5.01c-2.53-0.24-4.77,1.61-5.01,4.13
				C244.93,126.77,246.78,129.01,249.31,129.26z"/>
			<path class="st7" d="M252.43,123.79c0.47,0.05,0.89-0.3,0.94-0.78c0.05-0.47-0.3-0.89-0.78-0.94c-0.47-0.05-0.89,0.3-0.94,0.78
				S251.95,123.74,252.43,123.79z"/>
			<path class="st9" d="M237.53,127.74c0.27-0.23,0.68-0.19,0.91,0.09l1.33,1.62l1.62-1.33c0.27-0.23,0.68-0.19,0.91,0.09
				c0.23,0.28,0.19,0.68-0.09,0.91l-2.11,1.74c-0.27,0.23-0.68,0.19-0.91-0.09l-1.74-2.11
				C237.22,128.38,237.26,127.97,237.53,127.74z"/>
			<path d="M270.38,149.7c-0.05-0.01-0.11-0.03-0.16-0.05l-23.68-10.68c-0.26-0.12-0.38-0.43-0.26-0.69
				c0.12-0.26,0.42-0.38,0.69-0.26l23.68,10.67c0.26,0.12,0.38,0.43,0.26,0.69C270.81,149.6,270.6,149.72,270.38,149.7z"/>
			<path d="M272.02,148.46c0.02-0.21-0.04-0.43-0.17-0.58c-0.31-0.35-0.86-0.34-1.26-0.02c-0.28,0.23-0.59,0.53-0.76,0.82
				c-0.04,0.06-0.08,0.14-0.1,0.2c-0.23,0.67,0.12,1.42,1.33,1.83c1.21,0.42,1.94,0.06,2.18-0.62
				C273.5,149.37,272.9,148.81,272.02,148.46z"/>
			<path d="M216.79,123.04c0.14-0.16,0.33-0.28,0.54-0.29c0.46-0.04,0.84,0.36,0.89,0.88c0.05,0.36,0.02,0.8-0.06,1.11
				c-0.01,0.08-0.03,0.14-0.07,0.22c-0.32,0.65-1.09,0.9-2.23,0.34c-1.16-0.56-1.39-1.33-1.09-1.98
				C215.1,122.6,215.92,122.63,216.79,123.04z"/>
			<path d="M237.24,133.14c-0.05-0.01-0.1-0.01-0.14-0.03l-20.3-7.9c-0.26-0.11-0.4-0.41-0.31-0.68c0.11-0.26,0.41-0.4,0.68-0.31
				l20.32,7.9c0.26,0.11,0.4,0.41,0.31,0.68C237.69,133.04,237.46,133.16,237.24,133.14z"/>
		</g>
	</g>
</g>
<path class="st20" d="M124.06,39.17c2.68-4.66,9.39-4.66,12.07,0l24.89,43.28l24.89,43.28c2.68,4.66-0.68,10.5-6.03,10.5h-49.77
	H80.28c-5.36,0-8.71-5.84-6.03-10.5l24.89-43.28L124.06,39.17z"/>
<path class="st7" d="M137.77,64.07h-15.39c0,21.5,3.39,46.33,3.39,46.33h8.57C134.38,110.36,137.77,85.53,137.77,64.07z"/>
</svg>
