<svg width="1379" height="206" viewBox="0 0 1379 206" fill="none" style="background-color: rgba(0, 91, 226, 0.04);" xmlns="http://www.w3.org/2000/svg">
<circle cx="688" cy="2400" r="2310" fill="#D9D9D9"/>
<g clip-path="url(#clip0_12_15)">
<mask id="mask0_12_15" style="mask-type:luminance" maskUnits="userSpaceOnUse" x="1050" y="25" width="174" height="125">
<path d="M1223.98 47.8254L1064.6 25L1050 126.96L1209.37 149.785L1223.98 47.8254Z" fill="white"/>
</mask>
<g mask="url(#mask0_12_15)">
<path d="M1130.67 139.018L1131.16 139.089L1131.23 138.594L1133.45 123.092L1143.29 124.501L1143.79 124.572L1143.86 124.077L1147.8 96.5623L1147.87 96.0674L1147.37 95.9965L1137.54 94.5878L1145.55 38.6142L1145.62 38.1192L1145.13 38.0483L1088.87 29.9903L1088.53 29.9415L1088.36 30.2422L1054.72 90.7239L1054.67 90.8045L1054.66 90.896L1051.8 110.892L1051.73 111.387L1052.22 111.458L1100.68 118.398L1098.46 133.9L1098.39 134.395L1098.88 134.465L1130.67 139.018ZM1109.27 58.4099L1104.76 89.8935L1090.28 87.8191L1108.5 58.2996L1109.27 58.4099Z" fill="#00D0C4" stroke="white"/>
<path d="M1143.44 76.2971L1142.99 76.2855L1142.93 76.726L1139.7 99.2973L1139.63 99.7455L1140.07 99.8537L1165.93 106.212L1164.63 115.291C1159.9 115.207 1154.18 114.687 1147.47 113.726C1140.91 112.786 1132.8 110.416 1123.13 106.6L1122.63 106.404L1122.47 106.913L1114.45 131.975L1114.3 132.424L1114.74 132.594C1126.07 136.978 1137.39 139.981 1148.7 141.601C1154.3 142.402 1159.88 142.936 1165.45 143.203C1171.04 143.576 1176.19 143.03 1180.9 141.556C1185.63 140.074 1189.61 137.457 1192.83 133.71C1196.2 129.845 1198.39 124.225 1199.43 116.908C1200.26 111.177 1199.65 106.13 1197.6 101.791C1195.58 97.5379 1192.19 94.0048 1187.45 91.1833L1187.47 91.0323C1192.03 89.3347 1195.67 86.7692 1198.36 83.328C1201.1 79.8177 1202.84 75.4223 1203.6 70.1648C1204.47 64.0925 1204.01 59.146 1202.14 55.3743C1200.3 51.6429 1197.59 48.7035 1194.01 46.5648C1190.47 44.3366 1186.32 42.7251 1181.56 41.7228C1176.94 40.7429 1172.25 39.9115 1167.48 39.2288C1155.74 37.5475 1143.21 37.7743 1129.88 39.9032L1129.45 39.9726L1129.46 40.4125L1130.19 64.0282L1130.21 64.5444L1130.72 64.5116C1141.46 63.829 1150.21 63.9776 1156.99 64.9481C1160.5 65.4503 1163.47 65.9813 1165.9 66.54L1165.91 66.5424L1165.92 66.5443C1168.16 66.9604 1169.99 67.3629 1171.44 67.751L1170.11 76.9927L1143.44 76.2971Z" fill="#00D0C4" stroke="white"/>
<path d="M1150.99 77.7808C1157.55 78.7204 1163.63 74.1638 1164.57 67.6033C1165.51 61.0428 1160.96 54.9628 1154.39 54.0232C1147.83 53.0836 1141.75 57.6403 1140.81 64.2008C1139.88 70.7612 1144.43 76.8412 1150.99 77.7808Z" fill="white"/>
<path d="M1155.52 74.3883C1159.89 75.0147 1163.95 71.9769 1164.57 67.6033C1165.2 63.2296 1162.16 59.1763 1157.79 58.5499C1153.41 57.9235 1149.36 60.9613 1148.73 65.3349C1148.11 69.7086 1151.15 73.7619 1155.52 74.3883Z" fill="#171717"/>
<path d="M1161.39 65.1273C1162.21 65.2448 1162.97 64.6752 1163.09 63.8551C1163.21 63.0351 1162.64 62.2751 1161.82 62.1576C1161 62.0402 1160.24 62.6097 1160.12 63.4298C1160 64.2499 1160.57 65.0099 1161.39 65.1273Z" fill="white"/>
<path d="M1175.74 81.3251C1182.3 82.2647 1188.38 77.7081 1189.32 71.1476C1190.26 64.5871 1185.7 58.5071 1179.14 57.5675C1172.58 56.628 1166.5 61.1846 1165.56 67.7451C1164.62 74.3055 1169.18 80.3855 1175.74 81.3251Z" fill="white"/>
<path d="M1180.27 77.9326C1184.64 78.559 1188.69 75.5212 1189.32 71.1476C1189.95 66.7739 1186.91 62.7206 1182.53 62.0942C1178.16 61.4678 1174.11 64.5056 1173.48 68.8792C1172.86 73.2529 1175.89 77.3062 1180.27 77.9326Z" fill="#171717"/>
<path d="M1186.14 68.6716C1186.96 68.7891 1187.72 68.2195 1187.84 67.3994C1187.95 66.5794 1187.38 65.8194 1186.56 65.7019C1185.74 65.5845 1184.98 66.154 1184.87 66.9741C1184.75 67.7942 1185.32 68.5542 1186.14 68.6716Z" fill="white"/>
<path fill-rule="evenodd" clip-rule="evenodd" d="M1159.9 74.3384C1160.4 73.9658 1161.1 74.0668 1161.47 74.5639L1163.66 77.4831L1166.58 75.2954C1167.08 74.9228 1167.78 75.0237 1168.16 75.5208C1168.53 76.0181 1168.43 76.7233 1167.93 77.0958L1164.11 79.9582C1163.61 80.3308 1162.91 80.2299 1162.54 79.7328L1159.67 75.9134C1159.3 75.4161 1159.4 74.7109 1159.9 74.3384Z" fill="#171717"/>
<path d="M1128.05 84.5977C1125.38 84.2148 1122.69 83.4287 1119.92 82.229C1119.45 82.0259 1119.24 81.4847 1119.43 81.0203C1119.64 80.5572 1120.18 80.3431 1120.64 80.5373C1129.01 84.1324 1136.6 83.8159 1145.26 79.4956C1145.71 79.2687 1146.27 79.4489 1146.49 79.9097C1146.72 80.3615 1146.53 80.9178 1146.08 81.1448C1139.76 84.2961 1133.96 85.4429 1128.05 84.5977Z" fill="black"/>
<path d="M1118.92 78.3032C1119.13 77.9868 1119.43 77.7572 1119.81 77.6923C1120.61 77.5422 1121.35 78.1499 1121.56 79.037C1121.71 79.6598 1121.77 80.4076 1121.69 80.9882C1121.68 81.1235 1121.65 81.2561 1121.61 81.3863C1121.18 82.5742 1119.89 83.1822 1117.78 82.4423C1115.65 81.7087 1115.07 80.4043 1115.47 79.2126C1115.91 77.9175 1117.33 77.8021 1118.92 78.3032Z" fill="black"/>
<path d="M1189.84 106.606C1189.44 106.549 1189.04 106.482 1188.64 106.415C1187.67 106.249 1186.89 105.746 1186.34 104.91C1184.35 101.946 1185.82 95.4012 1186.61 91.877C1186.76 91.2058 1186.88 90.6316 1186.92 90.3458C1187 89.8456 1187.47 89.4936 1187.97 89.5654C1188.47 89.6371 1188.82 90.1069 1188.75 90.6071C1188.7 90.9643 1188.57 91.5207 1188.4 92.2799C1187.77 95.0615 1186.32 101.58 1187.86 103.888C1188.13 104.292 1188.48 104.524 1188.94 104.609C1202.66 106.974 1211.03 101.618 1214.48 88.2311C1214.61 87.7387 1215.12 87.4466 1215.6 87.5707C1216.09 87.696 1216.39 88.2028 1216.26 88.6864C1212.68 102.575 1203.79 108.604 1189.84 106.606Z" fill="black"/>
<path d="M1214.42 85.3141C1214.04 85.2603 1213.68 85.3444 1213.38 85.5841C1212.74 86.0853 1212.72 87.0487 1213.25 87.7815C1213.63 88.301 1214.15 88.8398 1214.64 89.1565C1214.75 89.2358 1214.87 89.3072 1215 89.3533C1216.17 89.8133 1217.48 89.2257 1218.31 87.1563C1219.13 85.0689 1218.53 83.7798 1217.37 83.3031C1216.09 82.7921 1215.08 83.7856 1214.42 85.3141Z" fill="black"/>
</g>
</g>
<g clip-path="url(#clip1_12_15)">
<mask id="mask1_12_15" style="mask-type:luminance" maskUnits="userSpaceOnUse" x="912" y="9" width="169" height="115">
<path d="M1080.77 20.2723L919.167 9L912 111.75L1073.61 123.023L1080.77 20.2723Z" fill="white"/>
</mask>
<g mask="url(#mask1_12_15)">
<path d="M936.672 49.9198L936.227 49.9405L936.196 50.3844L934.61 73.1307L934.578 73.5824L935.024 73.6584L961.274 78.1244L960.636 87.2733C955.91 87.5333 950.17 87.4291 943.412 86.9577C936.798 86.4963 928.536 84.7205 918.615 81.6161L918.106 81.4565L917.98 81.9758L911.798 107.554L911.688 108.012L912.138 108.15C923.757 111.7 935.265 113.874 946.662 114.669C952.303 115.063 957.91 115.19 963.483 115.053C969.086 115.018 974.183 114.1 978.769 112.288C983.377 110.468 987.158 107.569 990.103 103.598C993.183 99.4983 994.955 93.7346 995.469 86.3608C995.872 80.5851 994.906 75.5952 992.541 71.4171C990.222 67.3213 986.581 64.0439 981.65 61.5736L981.66 61.4214C986.087 59.3972 989.528 56.5746 991.961 52.9474C994.444 49.2472 995.859 44.7373 996.229 39.439C996.656 33.3197 995.837 28.4195 993.708 24.7928C991.601 21.2047 988.681 18.4701 984.956 16.5967C981.262 14.6312 977.003 13.3253 972.185 12.6709C967.507 12.0285 962.766 11.5399 957.962 11.2048C946.132 10.3796 933.648 11.5151 920.512 14.6052L920.084 14.7059L920.129 15.1436L922.574 38.644L922.627 39.1576L923.139 39.0876C933.798 37.6278 942.538 37.141 949.367 37.6173C952.901 37.8638 955.9 38.1779 958.369 38.5587L958.379 38.5603L958.389 38.5614C960.649 38.8142 962.511 39.0823 963.978 39.3648L963.328 48.6782L936.672 49.9198Z" fill="#9A00D0" stroke="white"/>
<path d="M1058.05 22.697L1058.09 22.1982L1057.59 22.1634L979.776 16.736L979.233 16.6982L979.241 17.242L979.648 45.3754L979.655 45.8408L980.119 45.8674L1017.13 47.9822L984.348 116.612L984.031 117.276L984.764 117.327L1020.29 119.805L1020.63 119.829L1020.78 119.517L1056.63 42.6255L1056.67 42.5415L1056.67 42.449L1058.05 22.697Z" fill="#9A00D0" stroke="white"/>
<path d="M1003.89 59.0166C1010.5 59.4777 1016.24 54.492 1016.7 47.8806C1017.16 41.2693 1012.17 35.5359 1005.56 35.0747C998.951 34.6136 993.217 39.5993 992.756 46.2107C992.295 52.822 997.281 58.5554 1003.89 59.0166Z" fill="white"/>
<path d="M1008.16 55.3046C1012.57 55.612 1016.39 52.2882 1016.7 47.8806C1017.01 43.473 1013.68 39.6508 1009.27 39.3433C1004.87 39.0359 1001.04 42.3597 1000.74 46.7673C1000.43 51.1749 1003.75 54.9971 1008.16 55.3046Z" fill="#171717"/>
<path d="M1013.35 45.642C1014.17 45.6996 1014.89 45.0764 1014.95 44.25C1015 43.4236 1014.38 42.7069 1013.55 42.6492C1012.73 42.5916 1012.01 43.2148 1011.95 44.0412C1011.9 44.8676 1012.52 45.5843 1013.35 45.642Z" fill="white"/>
<path d="M1028.83 60.7561C1035.44 61.2173 1041.18 56.2315 1041.64 49.6202C1042.1 43.0088 1037.11 37.2754 1030.5 36.8143C1023.89 36.3531 1018.16 41.3389 1017.7 47.9502C1017.23 54.5616 1022.22 60.295 1028.83 60.7561Z" fill="white"/>
<path d="M1033.1 57.0441C1037.51 57.3516 1041.33 54.0277 1041.64 49.6202C1041.94 45.2126 1038.62 41.3903 1034.21 41.0829C1029.81 40.7755 1025.98 44.0993 1025.68 48.5069C1025.37 52.9144 1028.69 56.7367 1033.1 57.0441Z" fill="#171717"/>
<path d="M1038.28 47.3815C1039.11 47.4391 1039.83 46.8159 1039.89 45.9895C1039.94 45.1631 1039.32 44.4464 1038.49 44.3887C1037.67 44.3311 1036.95 44.9543 1036.89 45.7807C1036.84 46.6071 1037.46 47.3238 1038.28 47.3815Z" fill="white"/>
<path fill-rule="evenodd" clip-rule="evenodd" d="M1012.53 54.9369C1013 54.5293 1013.71 54.5788 1014.11 55.0476L1016.51 57.8004L1019.26 55.4066C1019.73 54.999 1020.44 55.0485 1020.85 55.5173C1021.25 55.9861 1021.21 56.6968 1020.74 57.1044L1017.13 60.2364C1016.67 60.6441 1015.96 60.5946 1015.55 60.1257L1012.42 56.5241C1012.01 56.0553 1012.06 55.3446 1012.53 54.9369Z" fill="#171717"/>
<path d="M1070.7 91.6959C1070.61 91.69 1070.5 91.6543 1070.42 91.6204L1028.71 74.0759C1028.25 73.8746 1028.03 73.3528 1028.23 72.8884C1028.43 72.424 1028.96 72.207 1029.42 72.4083L1071.13 89.9248C1071.59 90.1261 1071.81 90.6478 1071.61 91.1123C1071.44 91.4946 1071.09 91.7232 1070.7 91.6959Z" fill="black"/>
<path d="M1073.5 89.4707C1073.52 89.1066 1073.41 88.7326 1073.17 88.463C1072.62 87.8618 1071.66 87.9075 1070.98 88.4788C1070.5 88.8957 1069.98 89.4225 1069.69 89.9372C1069.63 90.0453 1069.56 90.1815 1069.53 90.2916C1069.16 91.4764 1069.81 92.7596 1071.93 93.4141C1074.05 94.0966 1075.3 93.4243 1075.69 92.2414C1076.12 90.9765 1075.06 90.0301 1073.5 89.4707Z" fill="black"/>
<path d="M976.2 47.6716C976.445 47.3792 976.769 47.1765 977.136 47.146C977.93 47.0606 978.615 47.7275 978.721 48.6356C978.818 49.2615 978.793 50.0197 978.67 50.5741C978.66 50.714 978.624 50.8241 978.558 50.9602C978.028 52.1054 976.701 52.5757 974.684 51.6469C972.639 50.7163 972.197 49.3908 972.699 48.2437C973.237 46.9865 974.671 47.0021 976.2 47.6716Z" fill="black"/>
<path d="M1012.26 64.3437C1012.17 64.3378 1012.09 64.332 1012.01 64.2981L976.302 51.4503C975.836 51.2771 975.591 50.7534 975.736 50.2851C975.909 49.8187 976.433 49.5737 976.901 49.7189L1012.63 62.5687C1013.1 62.742 1013.34 63.2657 1013.2 63.734C1013.03 64.1443 1012.65 64.371 1012.26 64.3437Z" fill="black"/>
</g>
</g>
<g clip-path="url(#clip2_12_15)">
<mask id="mask2_12_15" style="mask-type:luminance" maskUnits="userSpaceOnUse" x="761" y="0" width="144" height="109">
<path d="M904.574 5.21103L764.642 0.839172L761.426 103.789L901.358 108.161L904.574 5.21103Z" fill="white"/>
</mask>
<g mask="url(#mask2_12_15)">
<path d="M783.705 41.0567L783.262 41.0945L783.248 41.5393L782.536 64.3297L782.522 64.7823L782.971 64.8411L809.373 68.2958L809.087 77.4626C804.374 77.9038 798.634 78.02 791.863 77.8085C785.236 77.6014 776.911 76.1442 766.879 73.423L766.364 73.2831L766.258 73.8068L761.063 99.6037L760.97 100.066L761.426 100.186C773.172 103.288 784.755 105.018 796.175 105.375C801.826 105.551 807.434 105.463 812.998 105.112C818.595 104.863 823.654 103.749 828.167 101.763C832.702 99.7671 836.368 96.725 839.159 92.6436C842.079 88.4289 843.628 82.6014 843.859 75.2133C844.039 69.4263 842.883 64.4772 840.359 60.393C837.885 56.3893 834.12 53.2541 829.098 50.9749L829.102 50.8225C833.448 48.6297 836.778 45.6772 839.071 41.9592C841.409 38.1664 842.65 33.6055 842.816 28.2969C843.008 22.1657 842.002 17.3006 839.734 13.7582C837.492 10.2538 834.468 7.63328 830.674 5.90424C826.908 4.08206 822.602 2.94063 817.763 2.47167C813.063 2.00944 808.307 1.70316 803.494 1.55279C791.64 1.18245 779.209 2.79649 766.202 6.3886L765.778 6.50574L765.84 6.94134L769.185 30.3305L769.258 30.8418L769.767 30.7521C780.362 28.8841 789.076 28.0621 795.919 28.2759C799.46 28.3865 802.469 28.5852 804.95 28.8709L804.96 28.8721L804.971 28.8728C807.239 29.0387 809.109 29.2351 810.586 29.4611L810.295 38.7925L783.705 41.0567Z" fill="#002FA8" stroke="white"/>
<path d="M901.649 82.8136L901.665 82.3138L901.165 82.2982L883.978 81.7612L886.262 8.64092L886.278 8.14116L885.778 8.12555L860.826 7.34598L860.77 7.34423L860.715 7.35489L824.136 14.4529L823.744 14.5289L823.731 14.9281L822.94 40.2597L822.923 40.7944L823.458 40.7751L851.093 39.7727L849.814 80.6939L822.204 79.8312L821.704 79.8156L821.688 80.3154L820.897 105.647L820.881 106.147L821.381 106.162L900.343 108.629L900.842 108.645L900.858 108.145L901.649 82.8136Z" fill="#002FA8" stroke="white"/>
<path d="M851.096 80.9361C850.609 80.9209 850.193 80.5401 850.149 80.0177C850.105 79.4647 850.517 78.9871 851.067 78.9431C862.661 77.9262 881.761 75.8872 883.717 74.7838C887.881 72.3701 884.686 63.3212 883.111 60.0234C882.882 59.5259 883.084 58.9193 883.58 58.6896C884.075 58.4599 884.678 58.6626 884.907 59.1601C885.164 59.7198 891.316 72.7227 884.7 76.5307C881.717 78.2457 854.368 80.7011 851.248 80.9714C851.188 80.9389 851.157 80.938 851.096 80.9361Z" fill="black"/>
<path d="M847.788 78.4422C847.77 78.0432 851.927 77.7747 851.885 79.1219C851.973 79.2472 852.03 79.3716 852.055 79.5256C852.411 80.8545 851.637 82.1789 849.298 82.8413C846.959 83.5038 845.641 82.6964 845.256 81.3666C844.873 79.9448 846.063 78.9706 847.788 78.4422Z" fill="black"/>
<path d="M836.261 78.3163C835.986 78.3077 835.716 78.1767 835.509 77.9557C835.157 77.5156 835.237 76.9051 835.675 76.5511C842.528 71.0342 849.929 64.5842 850.457 63.3136C851.348 61.1655 852.196 56.4723 852.197 56.4416C852.306 55.8934 852.805 55.5412 853.351 55.6502C853.897 55.7592 854.247 56.2605 854.138 56.8088C854.101 57.0221 853.251 61.7766 852.263 64.1056C851.273 66.4957 839.256 76.1726 836.877 78.121C836.72 78.2387 836.474 78.3229 836.261 78.3163Z" fill="black"/>
<path d="M837.091 75.9518C837.21 76.0474 837.298 76.1728 837.355 76.2972C838.051 77.4529 837.668 78.9732 835.615 80.2269C833.531 81.5103 832.049 81.0962 831.323 79.9396C830.569 78.6901 834.062 74.2941 837.091 75.9518Z" fill="black"/>
<path d="M875.214 48.3152C868.59 48.1083 863.387 42.5705 863.594 35.9463C863.801 29.3222 869.339 24.12 875.963 24.3269C882.587 24.5339 887.79 30.0716 887.583 36.6958C887.376 43.32 881.838 48.5222 875.214 48.3152Z" fill="white"/>
<path d="M871.341 44.1923C866.925 44.0543 863.456 40.3625 863.594 35.9463C863.732 31.5302 867.424 28.0621 871.84 28.2001C876.256 28.338 879.725 32.0299 879.587 36.446C879.449 40.8621 875.757 44.3302 871.341 44.1923Z" fill="#171717"/>
<path d="M867.155 34.0566C866.327 34.0307 865.677 33.3385 865.703 32.5105C865.729 31.6825 866.421 31.0322 867.249 31.0581C868.077 31.0839 868.727 31.7762 868.701 32.6042C868.675 33.4322 867.983 34.0825 867.155 34.0566Z" fill="white"/>
<path d="M850.226 47.5345C843.602 47.3276 838.4 41.7898 838.607 35.1656C838.813 28.5415 844.351 23.3393 850.975 23.5462C857.6 23.7532 862.802 29.2909 862.595 35.9151C862.388 42.5393 856.85 47.7415 850.226 47.5345Z" fill="white"/>
<path d="M846.353 43.4116C841.937 43.2736 838.469 39.5818 838.607 35.1656C838.745 30.7495 842.436 27.2814 846.852 27.4194C851.269 27.5573 854.737 31.2492 854.599 35.6653C854.461 40.0814 850.769 43.5495 846.353 43.4116Z" fill="#171717"/>
<path d="M842.167 33.2759C841.339 33.25 840.689 32.5578 840.715 31.7298C840.741 30.9018 841.433 30.2515 842.261 30.2774C843.089 30.3032 843.739 30.9955 843.713 31.8235C843.688 32.6515 842.995 33.3018 842.167 33.2759Z" fill="white"/>
<path fill-rule="evenodd" clip-rule="evenodd" d="M867.034 43.3869C866.609 42.9341 865.897 42.9118 865.444 43.3372L862.785 45.8349L860.287 43.1761C859.862 42.7233 859.15 42.701 858.697 43.1264C858.244 43.5518 858.222 44.2638 858.648 44.7166L861.916 48.1954C862.341 48.6482 863.053 48.6704 863.505 48.245L866.984 44.9771C867.437 44.5517 867.46 43.8397 867.034 43.3869Z" fill="#171717"/>
</g>
</g>
<g clip-path="url(#clip3_12_15)">
<mask id="mask3_12_15" style="mask-type:luminance" maskUnits="userSpaceOnUse" x="610" y="3" width="142" height="101">
<path d="M752 3H610V104H752V3Z" fill="white"/>
</mask>
<g mask="url(#mask3_12_15)">
<path d="M615.856 32.5974L615.947 33.1215L616.465 32.9971C626.054 30.6917 635.802 29.5391 645.708 29.5391C647.7 29.5391 649.747 29.6434 651.847 29.8522L651.86 29.8535L651.873 29.8541C653.949 29.9524 656.117 30.0968 658.38 30.2873V38.0298C657.077 38.6316 655.64 39.3237 654.066 40.106C652.374 40.8421 650.472 41.6828 648.36 42.628C646.246 43.5739 643.973 44.5725 641.542 45.6239L641.534 45.6272C639.202 46.6812 636.871 47.7878 634.539 48.947C632.307 50.0038 630.181 51.114 628.16 52.2776L628.149 52.2836C626.226 53.4523 624.512 54.677 623.008 55.9585C620.348 58.1811 618.105 60.3567 616.285 62.4861L616.284 62.4878C614.565 64.5171 613.166 66.657 612.088 68.9075L612.084 68.9164L612.08 68.9255C611.111 71.1741 610.412 73.5802 609.983 76.1424L609.982 76.1511L609.98 76.16C609.66 78.6052 609.5 81.3101 609.5 84.2734V104V104.5H610H691.413H691.913V104V78.75V78.25H691.413H647.16V74.6921C656.534 71.5774 664.211 68.7167 670.188 66.1099C676.246 63.4679 681.004 60.6556 684.441 57.6647C687.88 54.6727 690.264 51.3422 691.567 47.6704L691.568 47.6661C692.861 43.9175 693.5 39.4407 693.5 34.2469C693.5 27.2654 692.491 21.6585 690.436 17.4611C688.493 13.278 685.678 10.0959 681.989 7.93674C678.322 5.68537 673.916 4.24755 668.786 3.60923C663.786 2.86907 658.209 2.5 652.056 2.5C638.99 2.5 625.665 4.50699 612.08 8.51733L611.652 8.6437L611.729 9.08329L615.856 32.5974Z" fill="#008EDE" stroke="white"/>
<path d="M666.507 99.8134L666.428 100.278L666.888 100.384C678.793 103.129 691.483 104.5 704.956 104.5C707.692 104.5 710.743 104.447 714.107 104.342C717.49 104.236 720.821 103.865 724.1 103.23C727.484 102.7 730.662 101.904 733.631 100.841L733.639 100.838L733.646 100.836C736.635 99.6589 739.208 98.1034 741.358 96.1651L741.367 96.1563L741.377 96.1469C743.856 93.6629 745.987 90.1243 747.788 85.5616C749.602 80.9622 750.5 75.3196 750.5 68.65C750.5 63.9805 749.865 59.8728 748.583 56.3363C747.401 52.6789 745.358 49.5562 742.462 46.9753C739.567 44.2909 735.778 42.1047 731.114 40.4052C726.447 38.7046 720.632 37.4357 713.679 36.5911L713.678 36.591L704.826 35.5387V28.4648L741.623 30.6429L742.109 30.6716L742.151 30.1871L744.513 3.04335L744.561 2.5H744.015H672.355H671.874L671.855 2.98006C671.33 16.1308 670.91 26.1244 670.595 32.9614L670.595 32.969C670.385 39.8002 670.28 43.4951 670.28 44.0312C670.28 48.0696 670.81 51.5011 671.888 54.3104L671.89 54.3166C672.979 57.0444 674.829 59.3281 677.42 61.1671L677.43 61.1739L677.44 61.1803C680.126 62.9031 683.648 64.2881 687.986 65.3482C692.321 66.4078 697.753 67.2524 704.275 67.8849C704.276 67.885 704.277 67.8851 704.278 67.8852L715.639 69.0994V76.1004C710.905 76.6908 704.932 76.9875 697.712 76.9875C690.413 76.9875 681.687 75.7856 671.525 73.3714L671.006 73.248L670.917 73.7743L666.507 99.8134Z" fill="#008EDE" stroke="white"/>
<path d="M696 43C702.627 43 708 37.6274 708 31C708 24.3726 702.627 19 696 19C689.373 19 684 24.3726 684 31C684 37.6274 689.373 43 696 43Z" fill="white"/>
<path d="M700 39C704.418 39 708 35.4183 708 31C708 26.5817 704.418 23 700 23C695.582 23 692 26.5817 692 31C692 35.4183 695.582 39 700 39Z" fill="#171717"/>
<path d="M704.5 29C705.328 29 706 28.3284 706 27.5C706 26.6716 705.328 26 704.5 26C703.672 26 703 26.6716 703 27.5C703 28.3284 703.672 29 704.5 29Z" fill="white"/>
<path d="M721 43C727.627 43 733 37.6274 733 31C733 24.3726 727.627 19 721 19C714.373 19 709 24.3726 709 31C709 37.6274 714.373 43 721 43Z" fill="white"/>
<path d="M725 39C729.418 39 733 35.4183 733 31C733 26.5817 729.418 23 725 23C720.582 23 717 26.5817 717 31C717 35.4183 720.582 39 725 39Z" fill="#171717"/>
<path d="M729.5 29C730.328 29 731 28.3284 731 27.5C731 26.6716 730.328 26 729.5 26C728.672 26 728 26.6716 728 27.5C728 28.3284 728.672 29 729.5 29Z" fill="white"/>
<path fill-rule="evenodd" clip-rule="evenodd" d="M704.329 38.3295C704.769 37.8902 705.481 37.8902 705.921 38.3295L708.5 40.909L711.08 38.3295C711.519 37.8902 712.231 37.8902 712.67 38.3295C713.11 38.7688 713.11 39.4812 712.67 39.9205L709.296 43.2955C708.856 43.7348 708.144 43.7348 707.704 43.2955L704.329 39.9205C703.89 39.4812 703.89 38.7688 704.329 38.3295Z" fill="#171717"/>
<path d="M686.788 84.4013C686.343 83.6986 686.507 82.7381 687.163 82.1525C687.608 81.7543 686.929 82.1759 687.444 82.0119C687.561 81.9651 687.679 81.9182 687.796 81.9182C688.943 81.8011 689.974 82.785 690.255 85.1041C690.536 87.4466 690.162 89.9765 688.639 90C687.093 90.0234 686.999 84.7293 686.788 84.4013Z" fill="black"/>
<path d="M672.522 45C672.288 45 672.031 45.1171 671.89 45.328C666.643 52.9646 664.324 64.9349 671.609 73.2274C675.544 77.7017 682.127 81.8011 687.608 83.23C688.007 83.3237 688.428 83.0895 688.545 82.6912C688.662 82.293 688.405 81.8714 688.007 81.7542C682.783 80.3956 676.528 76.4835 672.757 72.2201C666.01 64.5367 668.212 53.3628 673.132 46.1947C673.366 45.8433 673.272 45.3748 672.944 45.1406C672.804 45.0469 672.663 45 672.522 45Z" fill="black"/>
<path d="M724.553 84.4013C724.998 83.6986 724.834 82.7381 724.178 82.1525C723.733 81.7543 724.412 82.1759 723.897 82.0119C723.78 81.9651 723.663 81.9182 723.546 81.9182C722.398 81.8011 721.367 82.785 721.086 85.1041C720.805 87.4466 721.18 89.9765 722.702 90C724.248 90.0234 724.342 84.7293 724.553 84.4013Z" fill="black"/>
<path d="M738.819 45C739.053 45 739.311 45.1171 739.451 45.328C744.699 52.9646 747.018 64.9349 739.733 73.2274C735.797 77.7017 729.215 81.8011 723.733 83.23C723.335 83.3237 722.913 83.0895 722.796 82.6912C722.679 82.293 722.937 81.8714 723.335 81.7542C728.559 80.3956 734.813 76.4835 738.585 72.2201C745.331 64.5367 743.129 53.3628 738.21 46.1947C737.976 45.8433 738.069 45.3748 738.397 45.1406C738.538 45.0469 738.678 45 738.819 45Z" fill="black"/>
</g>
</g>
<g clip-path="url(#clip4_12_15)">
<mask id="mask4_12_15" style="mask-type:luminance" maskUnits="userSpaceOnUse" x="449" y="3" width="161" height="107">
<path d="M604.807 3.00001L449 10.7488L453.918 109.627L609.725 101.878L604.807 3.00001Z" fill="white"/>
</mask>
<g mask="url(#mask4_12_15)">
<path d="M532.061 80.365L532.036 79.8656L531.536 79.8904L514.362 80.7446L510.728 7.67891L510.703 7.17953L510.203 7.20436L485.27 8.44438L485.214 8.44716L485.161 8.46222L449.275 18.4939L448.89 18.6014L448.91 19.0003L450.169 44.313L450.195 44.8473L450.726 44.7848L478.19 41.5518L480.224 82.4424L452.634 83.8145L452.134 83.8394L452.159 84.3388L453.418 109.651L453.443 110.151L453.942 110.126L532.845 106.202L533.344 106.177L533.319 105.678L532.061 80.365Z" fill="#76D200" stroke="white"/>
<path d="M552.185 72.5599L552.188 72.5598L559.621 72.3378L560.028 80.5175C555.319 81.3411 549.696 81.9166 543.158 82.2418C536.776 82.5592 528.422 81.7769 518.083 79.8809L517.56 79.785L517.496 80.313L514.353 106.448L514.296 106.918L514.762 107C526.866 109.138 540.375 109.832 555.284 109.091C562.923 108.711 569.322 107.39 574.467 105.112C579.619 102.83 583.709 99.475 586.722 95.0478C589.73 90.6285 591.755 85.103 592.812 78.4908C593.974 71.8793 594.327 64.0565 593.878 55.0285C593.429 46.0009 592.358 38.3021 590.656 31.9391C588.947 25.4606 586.329 20.163 582.789 16.0677C579.244 11.9663 574.682 9.04402 569.12 7.29678C563.565 5.552 556.805 4.88671 548.852 5.28225C542.708 5.58782 537.057 6.34283 531.9 7.54956C526.716 8.65679 522.299 10.5776 518.665 13.3228C515.011 15.9738 512.226 19.5967 510.303 24.1728L510.299 24.1819C508.477 28.7687 507.757 34.6032 508.108 41.6602C508.376 47.0345 509.194 51.714 510.572 55.6905L510.576 55.7019C512.071 59.7002 514.454 63.0178 517.721 65.6454L517.727 65.6506C521.107 68.276 525.561 70.1296 531.062 71.2336L531.065 71.234C536.668 72.3318 543.712 72.7709 552.185 72.5599ZM544.519 31.4739L544.531 31.4665L544.543 31.4584C545.749 30.6371 548.03 30.0987 551.505 29.9259L557.497 29.6279L558.026 40.2796C558.164 43.0551 557.566 44.6783 556.471 45.4329C555.248 46.1604 552.955 46.644 549.489 46.8164L543.499 47.1143L542.969 36.4626C542.83 33.6676 543.439 32.1214 544.519 31.4739Z" fill="#76D200" stroke="white"/>
<path d="M538.878 46.3284C545.497 45.9992 550.597 40.3663 550.267 33.7471C549.938 27.1279 544.305 22.0288 537.686 22.358C531.067 22.6872 525.968 28.32 526.297 34.9392C526.626 41.5585 532.259 46.6575 538.878 46.3284Z" fill="white"/>
<path d="M542.675 42.1346C547.087 41.9151 550.487 38.1599 550.267 33.7471C550.048 29.3342 546.293 25.9349 541.88 26.1543C537.467 26.3738 534.068 30.129 534.287 34.5418C534.507 38.9546 538.262 42.354 542.675 42.1346Z" fill="#171717"/>
<path d="M546.672 31.9234C547.5 31.8822 548.137 31.1781 548.096 30.3507C548.055 29.5233 547.351 28.8859 546.523 28.9271C545.696 28.9682 545.059 29.6723 545.1 30.4997C545.141 31.3271 545.845 31.9645 546.672 31.9234Z" fill="white"/>
<path d="M563.847 45.0865C570.467 44.7573 575.566 39.1245 575.237 32.5053C574.907 25.886 569.274 20.787 562.655 21.1162C556.036 21.4454 550.937 27.0782 551.266 33.6974C551.595 40.3166 557.228 45.4157 563.847 45.0865Z" fill="white"/>
<path d="M567.644 40.8927C572.057 40.6733 575.456 36.9181 575.237 32.5052C575.017 28.0924 571.262 24.693 566.849 24.9125C562.436 25.132 559.037 28.8872 559.256 33.3C559.476 37.7128 563.231 41.1122 567.644 40.8927Z" fill="#171717"/>
<path d="M571.641 30.6816C572.469 30.6405 573.106 29.9364 573.065 29.109C573.024 28.2816 572.32 27.6442 571.492 27.6853C570.665 27.7265 570.028 28.4306 570.069 29.258C570.11 30.0854 570.814 30.7228 571.641 30.6816Z" fill="white"/>
<path fill-rule="evenodd" clip-rule="evenodd" d="M546.965 41.2498C547.382 40.7893 548.094 40.7539 548.555 41.1708L551.259 43.619L553.708 40.9145C554.124 40.454 554.835 40.4186 555.296 40.8355C555.757 41.2524 555.792 41.964 555.375 42.4246L552.172 45.9631C551.755 46.4236 551.044 46.459 550.583 46.0421L547.045 42.8389C546.584 42.4219 546.549 41.7104 546.965 41.2498Z" fill="#171717"/>
<path d="M515.748 70.6119C510.003 70.8977 500.296 62.4672 499.14 61.4376C498.732 61.0666 498.702 60.4593 499.05 60.0508C499.419 59.6411 500.024 59.611 500.431 59.9603C503.512 62.6985 512.362 69.563 516.187 68.5466C520.912 67.3333 525.88 58.3903 525.919 58.3015C526.177 57.8321 526.774 57.6502 527.263 57.9085C527.731 58.1678 527.912 58.7675 527.655 59.2586C527.437 59.6607 522.23 69.0286 516.715 70.4551C516.417 70.557 516.094 70.5947 515.748 70.6119Z" fill="black"/>
<path d="M500.714 59.1201C501.003 58.8449 501.384 58.6737 501.797 58.6967C502.665 58.7405 503.29 59.5573 503.274 60.5364C503.265 61.2325 503.153 62.0206 502.923 62.6191C502.886 62.7514 502.828 62.8846 502.748 63.0191C502.025 64.1638 500.504 64.4785 498.491 63.1873C496.455 61.8755 496.164 60.3681 496.886 59.2235C497.668 57.9672 499.174 58.1967 500.714 59.1201Z" fill="black"/>
<path d="M586.564 64.8841C586.434 64.8906 586.326 64.8959 586.195 64.8807C580.496 64.7728 573.242 56.916 572.944 56.5829C572.578 56.1881 572.611 55.556 573.004 55.1886C573.397 54.8212 574.027 54.8552 574.393 55.25C574.461 55.3336 581.374 62.8378 586.228 62.9225C590.323 62.9797 598.885 56.2059 601.829 53.5811C602.243 53.2127 602.852 53.2477 603.219 53.6642C603.585 54.0808 603.551 54.6911 603.136 55.0596C602.701 55.4509 592.331 64.5973 586.564 64.8841Z" fill="black"/>
<path d="M602.711 51.7328C602.437 51.4422 602.08 51.2424 601.668 51.2195C600.801 51.1975 600.103 51.9713 600.043 52.9308C599.99 53.6291 600.029 54.4097 600.212 55.0311C600.24 55.1602 600.291 55.3098 600.363 55.4367C601.005 56.6222 602.478 57.0707 604.588 55.944C606.719 54.8163 607.122 53.3396 606.498 52.1315C605.849 50.8377 604.317 50.9356 602.711 51.7328Z" fill="black"/>
</g>
</g>
<g clip-path="url(#clip5_12_15)">
<mask id="mask5_12_15" style="mask-type:luminance" maskUnits="userSpaceOnUse" x="295" y="12" width="158" height="116">
<path d="M440.964 12L295 29.4224L306.733 127.725L452.697 110.302L440.964 12Z" fill="white"/>
</mask>
<g mask="url(#mask5_12_15)">
<path d="M382.669 93.1369L382.61 92.6404L382.114 92.6997L365.039 94.7378L356.368 22.0974L356.309 21.6009L355.813 21.6602L331.025 24.6189L330.969 24.6255L330.916 24.6443L295.809 37.13L295.432 37.2638L295.48 37.6604L298.484 62.8258L298.547 63.3569L299.073 63.2579L326.247 58.1362L331.1 98.7888L303.67 102.063L303.174 102.122L303.233 102.618L306.237 127.784L306.296 128.28L306.793 128.221L385.236 118.858L385.732 118.799L385.673 118.302L382.669 93.1369Z" fill="#FBE41A" stroke="white"/>
<path d="M373.479 59.9387L373.047 60.0423L373.099 60.4842L375.802 83.1251L375.856 83.5747L376.308 83.5657L402.93 83.0353L404.017 92.1419C399.424 93.2825 393.766 94.2554 387.039 95.0583C380.455 95.8441 372.006 95.6475 361.68 94.4563L361.15 94.3951L361.124 94.9286L359.843 121.212L359.82 121.683L360.288 121.734C372.366 123.045 384.078 123.025 395.422 121.671C401.037 121 406.569 120.075 412.017 118.896C417.515 117.813 422.35 115.956 426.515 113.317C430.7 110.666 433.871 107.11 436.021 102.658C438.278 98.0536 438.938 92.0601 438.062 84.7205C437.376 78.9715 435.492 74.2509 432.387 70.5898C429.342 67.0009 425.15 64.4637 419.844 62.9608L419.826 62.8094C423.796 59.9916 426.647 56.5745 428.358 52.5556C430.103 48.456 430.648 43.7607 430.019 38.487C429.292 32.396 427.571 27.7359 424.799 24.5723C422.058 21.4424 418.676 19.3032 414.667 18.1607C410.671 16.9219 406.242 16.437 401.387 16.6966C396.671 16.9419 391.923 17.35 387.141 17.9208C375.365 19.3263 363.315 22.7804 350.991 28.2763L350.589 28.4555L350.716 28.8769L357.519 51.5034L357.667 51.998L358.157 51.8333C368.355 48.4025 376.848 46.2873 383.645 45.4759C387.163 45.056 390.168 44.8026 392.664 44.7143L392.675 44.714L392.685 44.7132C394.952 44.5382 396.831 44.4528 398.325 44.4555L399.431 53.7257L373.479 59.9387Z" fill="#FBE41A" stroke="white"/>
<path d="M381.163 59.4218C387.744 58.6364 392.442 52.6649 391.656 46.0842C390.871 39.5035 384.899 34.8055 378.318 35.591C371.738 36.3765 367.04 42.348 367.825 48.9287C368.611 55.5094 374.582 60.2073 381.163 59.4218Z" fill="white"/>
<path d="M384.661 54.9759C389.048 54.4523 392.18 50.4713 391.656 46.0842C391.132 41.697 387.151 38.5651 382.764 39.0887C378.377 39.6124 375.245 43.5933 375.769 47.9805C376.292 52.3676 380.273 55.4996 384.661 54.9759Z" fill="#171717"/>
<path d="M387.944 44.5131C388.766 44.4149 389.353 43.6685 389.255 42.8459C389.157 42.0233 388.411 41.4361 387.588 41.5343C386.766 41.6324 386.178 42.3789 386.276 43.2015C386.375 44.0241 387.121 44.6113 387.944 44.5131Z" fill="white"/>
<path d="M405.987 56.4588C412.567 55.6734 417.265 49.7019 416.48 43.1212C415.694 36.5405 409.723 31.8425 403.142 32.628C396.561 33.4135 391.864 39.3849 392.649 45.9657C393.434 52.5464 399.406 57.2443 405.987 56.4588Z" fill="white"/>
<path d="M409.484 52.013C413.872 51.4893 417.003 47.5083 416.48 43.1212C415.956 38.7341 411.975 35.6021 407.588 36.1258C403.201 36.6494 400.069 40.6304 400.593 45.0175C401.116 49.4047 405.097 52.5366 409.484 52.013Z" fill="#171717"/>
<path d="M412.767 41.5501C413.59 41.4519 414.177 40.7055 414.079 39.8829C413.981 39.0603 413.234 38.4731 412.412 38.5712C411.589 38.6694 411.002 39.4159 411.1 40.2385C411.198 41.061 411.945 41.6483 412.767 41.5501Z" fill="white"/>
<path fill-rule="evenodd" clip-rule="evenodd" d="M388.88 53.7971C389.264 53.3088 389.972 53.2244 390.46 53.6085L393.327 55.8641L395.583 52.9971C395.967 52.5088 396.674 52.4244 397.162 52.8085C397.651 53.1926 397.735 53.9 397.351 54.3883L394.4 58.1395C394.016 58.6278 393.308 58.7122 392.82 58.3281L389.069 55.3769C388.58 54.9927 388.496 54.2853 388.88 53.7971Z" fill="#171717"/>
<path d="M375.936 72.1333C375.636 72.1691 375.345 72.0853 375.109 71.8765C374.638 71.4588 363.779 61.6888 360.608 56.309C357.526 51.0845 358.194 31.5737 358.212 30.7422C358.235 30.1471 358.718 29.6865 359.306 29.7111C359.895 29.7357 360.351 30.2262 360.328 30.8213C360.139 36.2941 360.129 51.3188 362.421 55.2159C365.417 60.3084 376.382 70.1843 376.486 70.2667C376.931 70.6638 376.966 71.3468 376.572 71.773C376.433 71.9793 376.19 72.103 375.936 72.1333Z" fill="black"/>
<path d="M361.343 28.923C361.769 28.9669 362.167 29.1564 362.442 29.5027C363.022 30.2392 362.801 31.3319 362.019 32.0413C361.469 32.5335 360.752 32.9983 360.102 33.2417C359.969 33.3049 359.81 33.3476 359.649 33.3669C358.246 33.5817 356.909 32.5802 356.51 30.0212C356.105 27.4155 357.12 26.1095 358.543 25.8686C360.104 25.6111 360.999 27.021 361.343 28.923Z" fill="black"/>
<path d="M422.387 66.7073C422.11 66.7404 421.819 66.6567 421.585 66.4713C421.12 66.1003 421.062 65.42 421.431 64.9731C421.512 64.8687 430.356 53.8369 432.604 48.7345C434.411 44.6562 430.897 29.9336 429.417 24.5891C429.255 24.016 429.584 23.4318 430.149 23.2694C430.715 23.1071 431.294 23.4408 431.456 24.014C432.027 26.0548 436.989 44.0879 434.558 49.615C432.177 54.9702 423.457 65.8687 423.092 66.3388C422.906 66.5506 422.664 66.6743 422.387 66.7073Z" fill="black"/>
<path d="M428.008 22.98C427.603 23.1231 427.262 23.4008 427.076 23.8022C426.685 24.6545 427.157 25.6645 428.084 26.17C428.734 26.5188 429.541 26.8018 430.229 26.8854C430.374 26.9155 430.538 26.9197 430.7 26.9004C432.137 26.7762 433.2 25.4882 432.983 22.8838C432.765 20.2795 431.469 19.2256 430.033 19.3497C428.432 19.4697 427.894 21.0504 428.008 22.98Z" fill="black"/>
</g>
</g>
<g clip-path="url(#clip6_12_15)">
<path d="M9.81104 137.793L9.81176 137.8C10.4926 143.781 11.8206 150.453 13.793 157.814C15.7399 165.08 17.9256 171.522 20.3516 177.136L20.3549 177.144C22.8885 182.759 26.111 187.284 30.031 190.701L30.0351 190.705C33.9438 194.038 38.7136 196.139 44.3266 197.02L44.3379 197.022C50.0294 197.782 56.9901 197.045 65.2026 194.844C73.4145 192.644 79.7654 189.814 84.221 186.334L84.2245 186.331C88.7396 182.737 91.823 178.531 93.4476 173.71C95.1608 168.882 95.6533 163.411 94.9443 157.307C94.3331 151.204 93.0524 144.518 91.1054 137.252C89.133 129.891 86.9345 123.401 84.5083 117.786C82.0704 112.144 78.9074 107.651 75.0089 104.326C71.1911 100.962 66.4292 98.9087 60.7471 98.1493C55.12 97.2672 48.1434 97.9581 39.8383 100.183C31.6251 102.384 25.2391 105.275 20.7139 108.876C16.2657 112.351 13.1713 116.51 11.4521 121.352C9.73844 126.179 9.1974 131.663 9.81104 137.793ZM55.9202 171.612L50.4126 173.088L39.8099 133.518C38.9208 130.2 39.1938 128.157 40.2726 127.099C40.8557 126.528 41.7997 125.942 43.1443 125.356C44.4826 124.773 46.1875 124.201 48.265 123.645L54.4857 121.978L65.0884 161.548C65.9407 164.729 65.5998 166.815 64.35 168.034C62.9611 169.263 60.1863 170.469 55.9202 171.612Z" fill="#D00019" stroke="white"/>
<path d="M155.035 144.018L154.906 143.535L154.423 143.664L137.813 148.115L118.878 77.4519L118.749 76.9689L118.266 77.0983L94.1526 83.5595L94.0985 83.574L94.0491 83.6L61.0792 100.962L60.7258 101.148L60.8292 101.533L67.3887 126.014L67.5271 126.531L68.0333 126.358L94.2009 117.416L104.797 156.962L78.1145 164.111L77.6315 164.241L77.7609 164.724L84.3204 189.204L84.4498 189.687L84.9328 189.558L161.241 169.111L161.724 168.981L161.594 168.498L155.035 144.018Z" fill="#D00019" stroke="white"/>
<path d="M145.104 146.602C144.643 146.341 144.299 145.934 144.151 145.419C143.856 144.32 144.62 143.208 145.836 142.826C146.692 142.562 147.708 142.392 148.527 142.445C148.715 142.44 148.902 142.469 149.095 142.519C150.786 142.995 151.773 144.759 150.977 147.794C150.176 150.852 148.443 151.804 146.738 151.366C144.897 150.873 144.576 148.886 145.104 146.602Z" fill="black"/>
<path d="M148.761 145.656C148.532 145.718 148.275 145.719 148.027 145.626C147.352 145.399 146.986 144.659 147.208 143.988C149.461 137.05 152.187 124.954 149.89 122.012C147.012 118.319 133.481 117.027 128.503 116.842C127.793 116.817 127.241 116.217 127.261 115.498C127.283 114.789 127.869 114.224 128.58 114.249C130.533 114.326 147.77 115.101 151.899 120.42C153.655 122.68 153.777 127.384 152.256 134.805C151.19 140.043 149.703 144.622 149.644 144.819C149.502 145.254 149.168 145.547 148.761 145.656Z" fill="black"/>
<path d="M99.3226 157.908C99.5079 157.457 99.549 156.947 99.37 156.463C98.9957 155.435 97.8563 154.98 96.7968 155.34C96.0453 155.596 95.2276 156.01 94.6785 156.504C94.5473 156.605 94.4215 156.725 94.3196 156.861C93.3698 158.147 93.6083 160.069 95.7825 162.026C97.9806 163.998 99.7261 163.802 100.7 162.532C101.741 161.146 100.912 159.414 99.3226 157.908Z" fill="black"/>
<path d="M96.1163 159.18C95.7753 159.271 95.3881 159.19 95.0865 158.913C93.7967 157.75 82.491 147.376 82.6026 141.377C82.7223 135.039 93.9174 123.541 95.1931 122.255C95.6436 121.798 96.3669 121.843 96.8009 122.356C97.244 122.867 97.2365 123.65 96.7833 124.098C93.5039 127.418 84.9627 137.022 84.8812 141.548C84.8179 145.146 91.9712 152.965 96.4938 157.049C96.9879 157.492 97.0689 158.273 96.6834 158.789C96.5397 158.99 96.3375 159.12 96.1163 159.18Z" fill="black"/>
<path d="M119.761 118.626C113.36 120.342 106.78 116.543 105.064 110.141C103.349 103.739 107.148 97.1594 113.55 95.4441C119.951 93.7288 126.531 97.5278 128.246 103.929C129.962 110.331 126.163 116.911 119.761 118.626Z" fill="white"/>
<path d="M114.862 115.798C110.595 116.941 106.208 114.409 105.064 110.141C103.921 105.873 106.453 101.487 110.721 100.343C114.989 99.1996 119.376 101.732 120.519 106C121.663 110.268 119.13 114.654 114.862 115.798Z" fill="#171717"/>
<path d="M107.927 107.303C107.127 107.518 106.305 107.043 106.09 106.243C105.876 105.442 106.351 104.62 107.151 104.406C107.951 104.191 108.774 104.666 108.988 105.466C109.202 106.266 108.728 107.089 107.927 107.303Z" fill="white"/>
<path d="M95.613 125.097C89.2114 126.812 82.6314 123.013 80.9161 116.612C79.2008 110.21 82.9998 103.63 89.4014 101.915C95.803 100.199 102.383 103.998 104.098 110.4C105.814 116.801 102.015 123.382 95.613 125.097Z" fill="white"/>
<path d="M90.7141 122.268C86.4463 123.412 82.0596 120.879 80.9161 116.612C79.7726 112.344 82.3052 107.957 86.5729 106.814C90.8407 105.67 95.2274 108.203 96.3709 112.47C97.5144 116.738 94.9818 121.125 90.7141 122.268Z" fill="#171717"/>
<path d="M83.7792 113.774C82.979 113.988 82.1565 113.513 81.9421 112.713C81.7277 111.913 82.2026 111.09 83.0028 110.876C83.803 110.662 84.6255 111.137 84.8399 111.937C85.0543 112.737 84.5794 113.559 83.7792 113.774Z" fill="white"/>
<path fill-rule="evenodd" clip-rule="evenodd" d="M110.506 116.271C109.968 115.96 109.281 116.145 108.97 116.682L107.146 119.842L103.987 118.018C103.449 117.707 102.761 117.892 102.45 118.43C102.139 118.968 102.324 119.656 102.862 119.966L106.995 122.353C107.533 122.663 108.221 122.479 108.532 121.941L110.918 117.808C111.229 117.27 111.045 116.581 110.506 116.271Z" fill="#171717"/>
</g>
<g clip-path="url(#clip7_12_15)">
<path d="M157.811 96.4992L157.812 96.506C158.493 102.487 159.821 109.159 161.793 116.52C163.74 123.786 165.926 130.228 168.352 135.842L168.355 135.85C170.888 141.465 174.111 145.99 178.031 149.407L178.035 149.411C181.944 152.743 186.714 154.845 192.327 155.726L192.338 155.728C198.029 156.488 204.99 155.751 213.203 153.55C221.415 151.35 227.765 148.52 232.221 145.04L232.225 145.037C236.74 141.443 239.823 137.237 241.448 132.416C243.161 127.588 243.653 122.116 242.944 116.013C242.333 109.91 241.052 103.224 239.105 95.9576C237.133 88.5966 234.935 82.1073 232.508 76.4923C230.07 70.8503 226.907 66.3565 223.009 63.0315C219.191 59.6683 214.429 57.6145 208.747 56.8552C203.12 55.9731 196.143 56.664 187.838 58.8894C179.625 61.0901 173.239 63.9806 168.714 67.582C164.266 71.0568 161.171 75.2157 159.452 80.058C157.738 84.8849 157.197 90.3692 157.811 96.4992ZM203.92 130.318L198.413 131.794L187.81 92.2242C186.921 88.9058 187.194 86.8627 188.273 85.8052C188.856 85.2336 189.8 84.648 191.144 84.0619C192.483 83.4784 194.187 82.9073 196.265 82.3506L202.486 80.6838L213.088 120.254C213.941 123.434 213.6 125.52 212.35 126.74C210.961 127.969 208.186 129.175 203.92 130.318Z" fill="#F49300" stroke="white"/>
<path d="M259.068 79.6616C252.666 81.3769 246.086 77.5779 244.371 71.1763C242.656 64.7747 246.455 58.1947 252.856 56.4794C259.258 54.7641 265.838 58.5631 267.553 64.9646C269.268 71.3662 265.469 77.9463 259.068 79.6616Z" fill="white"/>
<path d="M254.169 76.8332C249.901 77.9767 245.514 75.444 244.371 71.1763C243.227 66.9086 245.76 62.5219 250.028 61.3784C254.296 60.2348 258.682 62.7675 259.826 67.0352C260.969 71.3029 258.437 75.6896 254.169 76.8332Z" fill="#171717"/>
<path d="M247.234 68.3386C246.434 68.553 245.611 68.0782 245.397 67.278C245.183 66.4778 245.657 65.6553 246.458 65.4408C247.258 65.2264 248.08 65.7013 248.295 66.5015C248.509 67.3017 248.034 68.1242 247.234 68.3386Z" fill="white"/>
<path d="M234.92 86.1321C228.518 87.8474 221.938 84.0484 220.223 77.6468C218.507 71.2452 222.306 64.6652 228.708 62.9499C235.11 61.2346 241.69 65.0336 243.405 71.4352C245.12 77.8368 241.321 84.4168 234.92 86.1321Z" fill="white"/>
<path d="M230.021 83.3037C225.753 84.4472 221.366 81.9146 220.223 77.6468C219.079 73.3791 221.612 68.9924 225.88 67.8489C230.147 66.7053 234.534 69.238 235.678 73.5057C236.821 77.7735 234.288 82.1602 230.021 83.3037Z" fill="#171717"/>
<path d="M223.086 74.8091C222.286 75.0235 221.463 74.5486 221.249 73.7484C221.034 72.9482 221.509 72.1257 222.309 71.9113C223.11 71.6969 223.932 72.1718 224.147 72.972C224.361 73.7722 223.886 74.5947 223.086 74.8091Z" fill="white"/>
<path fill-rule="evenodd" clip-rule="evenodd" d="M249.813 77.3061C249.275 76.9955 248.587 77.1798 248.277 77.7179L246.453 80.8771L243.293 79.0531C242.755 78.7425 242.067 78.9269 241.757 79.4649C241.446 80.0029 241.63 80.6911 242.168 81.0017L246.302 83.3882C246.84 83.6988 247.528 83.5144 247.839 82.9764L250.225 78.8429C250.536 78.3049 250.351 77.6167 249.813 77.3061Z" fill="#171717"/>
<path d="M276.503 34.6141L276.373 34.1312L275.89 34.2606L200.548 54.4485L200.023 54.5892L200.207 55.1009L209.747 81.5707L209.905 82.0085L210.353 81.8825L246.042 71.8372L237.372 147.401L237.288 148.132L237.998 147.941L272.397 138.724L272.728 138.636L272.765 138.293L281.642 53.9211L281.651 53.829L281.627 53.7395L276.503 34.6141Z" fill="#F49300" stroke="white"/>
<path d="M237.11 86.5804C243.512 84.8651 247.311 78.285 245.596 71.8834C243.88 65.4818 237.3 61.6828 230.899 63.3981C224.497 65.1134 220.698 71.6935 222.413 78.0951C224.129 84.4967 230.709 88.2957 237.11 86.5804Z" fill="white"/>
<path d="M239.939 81.6814C244.207 80.5378 246.739 76.1511 245.596 71.8834C244.452 67.6157 240.065 65.083 235.798 66.2266C231.53 67.3701 228.997 71.7568 230.141 76.0245C231.284 80.2923 235.671 82.8249 239.939 81.6814Z" fill="#171717"/>
<path d="M241.697 70.8574C242.497 70.643 242.972 69.8205 242.758 69.0203C242.544 68.2201 241.721 67.7453 240.921 67.9597C240.121 68.1741 239.646 68.9966 239.86 69.7968C240.075 70.597 240.897 71.0719 241.697 70.8574Z" fill="white"/>
<path d="M261.259 80.1099C267.66 78.3946 271.459 71.8146 269.744 65.413C268.029 59.0114 261.448 55.2124 255.047 56.9277C248.645 58.643 244.846 65.223 246.562 71.6246C248.277 78.0262 254.857 81.8252 261.259 80.1099Z" fill="white"/>
<path d="M264.087 75.2109C268.355 74.0674 270.887 69.6807 269.744 65.413C268.6 61.1452 264.214 58.6126 259.946 59.7561C255.678 60.8996 253.145 65.2863 254.289 69.5541C255.433 73.8218 259.819 76.3545 264.087 75.2109Z" fill="#171717"/>
<path d="M265.845 64.387C266.646 64.1726 267.121 63.3501 266.906 62.5499C266.692 61.7497 265.869 61.2748 265.069 61.4892C264.269 61.7036 263.794 62.5261 264.008 63.3263C264.223 64.1265 265.045 64.6014 265.845 64.387Z" fill="white"/>
<path fill-rule="evenodd" clip-rule="evenodd" d="M243.947 79.9132C244.258 79.3752 244.946 79.1908 245.484 79.5014L248.643 81.3254L250.467 78.1662C250.778 77.6282 251.466 77.4438 252.004 77.7544C252.542 78.065 252.726 78.7532 252.416 79.2912L250.029 83.4247C249.719 83.9627 249.031 84.1471 248.493 83.8365L244.359 81.45C243.821 81.1394 243.637 80.4512 243.947 79.9132Z" fill="#171717"/>
<path d="M244.699 91.4507C244.424 91.5243 244.119 91.4862 243.856 91.3173C243.352 90.9841 231.438 83.1346 227.618 78.4085C223.9 73.8185 221.877 54.9883 221.782 54.1861C221.717 53.6157 222.135 53.1006 222.71 53.0447C223.281 52.9787 223.797 53.3959 223.852 53.9691C224.414 59.2415 226.462 73.6874 229.233 77.1047C232.855 81.5789 244.875 89.4981 244.993 89.5751C245.471 89.8934 245.61 90.5316 245.293 91.0194C245.156 91.2412 244.933 91.3879 244.699 91.4507Z" fill="black"/>
<path d="M224.505 53.2279C225.213 53.8765 225.291 55.0209 224.729 55.8574C224.34 56.4409 224.989 55.7662 224.457 56.1045C224.349 56.1881 224.217 56.2669 224.077 56.3153C222.834 56.7681 221.377 55.9717 220.382 53.4397C219.392 50.8846 219.093 47.9374 220.811 47.4662C222.56 46.9868 224.17 52.9147 224.505 53.2279Z" fill="black"/>
<path d="M287.235 109.778C286.895 109.869 286.53 109.785 286.258 109.527C285.853 109.134 285.84 108.486 286.234 108.081C292.226 101.926 296.076 95.566 295.815 92.2721C295.752 91.4774 295.456 90.8945 294.908 90.4862C289.525 86.4503 276.314 82.3226 272.395 81.1516C271.848 80.9885 271.545 80.4182 271.712 79.8822C271.876 79.3363 272.447 79.0338 272.984 79.1995C276.985 80.3914 290.488 84.6117 296.14 88.8531C297.171 89.6236 297.743 90.7197 297.858 92.1091C298.231 96.8574 292.848 104.205 287.707 109.502C287.573 109.645 287.404 109.732 287.235 109.778Z" fill="black"/>
<path d="M288.064 109.599C288.255 108.672 287.638 107.726 286.712 107.387C286.059 107.146 286.972 107.318 286.358 107.343C286.217 107.338 286.082 107.353 285.933 107.393C284.672 107.763 283.987 109.239 284.679 111.819C285.373 114.41 286.845 116.909 288.487 116.288C290.159 115.658 287.979 110.038 288.064 109.599Z" fill="black"/>
</g>
<g clip-path="url(#clip8_12_15)">
<mask id="mask6_12_15" style="mask-type:luminance" maskUnits="userSpaceOnUse" x="1202" y="56" width="177" height="133">
<path d="M1378.17 87.3218L1222.29 56L1202 156.982L1357.88 188.304L1378.17 87.3218Z" fill="white"/>
</mask>
<g mask="url(#mask6_12_15)">
<path d="M1281.87 173.539L1282.36 173.638L1282.46 173.148L1285.54 157.795L1295.28 159.752L1295.77 159.85L1295.87 159.36L1301.35 132.11L1301.44 131.619L1300.95 131.521L1291.21 129.564L1302.35 74.1268L1302.45 73.6366L1301.96 73.5381L1246.24 62.3415L1245.9 62.2737L1245.72 62.5645L1208.74 121.067L1208.69 121.145L1208.67 121.236L1204.69 141.04L1204.59 141.53L1205.08 141.629L1253.08 151.272L1249.99 166.625L1249.89 167.115L1250.38 167.214L1281.87 173.539ZM1265.02 91.8592L1258.75 123.041L1244.4 120.158L1264.25 91.706L1265.02 91.8592Z" fill="#D00089" stroke="white"/>
<path d="M1320.87 144.005L1320.88 144.005L1328.14 145.615L1326.52 153.644C1321.76 153.286 1316.16 152.464 1309.75 151.175C1303.48 149.916 1295.57 147.107 1286.02 142.731L1285.53 142.51L1285.34 143.006L1275.88 167.57L1275.71 168.012L1276.14 168.206C1287.35 173.249 1300.28 177.238 1314.91 180.179C1322.41 181.685 1328.94 181.976 1334.48 181.03C1340.04 180.082 1344.83 177.834 1348.83 174.282C1352.83 170.736 1356.15 165.876 1358.8 159.726C1361.55 153.602 1363.81 146.105 1365.59 137.243C1367.37 128.381 1368.23 120.655 1368.14 114.069C1368.07 107.369 1366.83 101.591 1364.41 96.7524C1361.98 91.9063 1358.27 87.9538 1353.31 84.8946C1348.35 81.8399 1341.96 79.5356 1334.15 77.967C1328.12 76.7551 1322.46 76.1001 1317.17 76.0042C1311.87 75.805 1307.11 76.583 1302.92 78.3523C1298.73 80.0254 1295.14 82.8538 1292.15 86.8179L1292.14 86.8258C1289.25 90.8252 1287.12 96.3045 1285.73 103.232C1284.67 108.507 1284.31 113.244 1284.67 117.437L1284.67 117.45C1285.14 121.692 1286.64 125.493 1289.16 128.843L1289.17 128.849C1291.8 132.224 1295.66 135.114 1300.72 137.534L1300.72 137.535C1305.89 139.975 1312.61 142.129 1320.87 144.005ZM1323.53 102.294L1323.54 102.29L1323.55 102.285C1324.92 101.785 1327.27 101.823 1330.68 102.508L1336.56 103.69L1334.46 114.146C1333.91 116.87 1332.93 118.297 1331.69 118.76C1330.32 119.165 1327.98 119.071 1324.58 118.387L1318.7 117.205L1320.8 106.749C1321.35 104.006 1322.32 102.657 1323.53 102.294Z" fill="#D00089" stroke="white"/>
<path d="M1314.41 115.309C1320.91 116.615 1327.24 112.406 1328.54 105.909C1329.85 99.411 1325.64 93.0853 1319.14 91.7797C1312.64 90.4742 1306.32 94.6831 1305.01 101.181C1303.71 107.678 1307.91 114.004 1314.41 115.309Z" fill="white"/>
<path d="M1319.12 112.176C1323.45 113.046 1327.67 110.24 1328.54 105.909C1329.41 101.577 1326.61 97.3597 1322.27 96.4893C1317.94 95.619 1313.72 98.4249 1312.85 102.757C1311.98 107.088 1314.79 111.305 1319.12 112.176Z" fill="#171717"/>
<path d="M1325.5 103.258C1326.32 103.421 1327.11 102.895 1327.27 102.083C1327.43 101.271 1326.91 100.48 1326.09 100.317C1325.28 100.154 1324.49 100.68 1324.33 101.492C1324.16 102.304 1324.69 103.095 1325.5 103.258Z" fill="white"/>
<path d="M1338.92 120.234C1345.42 121.54 1351.75 117.331 1353.05 110.833C1354.36 104.336 1350.15 98.0101 1343.65 96.7045C1337.15 95.399 1330.83 99.6079 1329.52 106.105C1328.22 112.603 1332.42 118.929 1338.92 120.234Z" fill="white"/>
<path d="M1343.63 117.101C1347.96 117.971 1352.18 115.165 1353.05 110.833C1353.92 106.502 1351.12 102.285 1346.78 101.414C1342.45 100.544 1338.23 103.35 1337.36 107.681C1336.49 112.013 1339.3 116.23 1343.63 117.101Z" fill="#171717"/>
<path d="M1350.01 108.183C1350.83 108.346 1351.62 107.82 1351.78 107.008C1351.94 106.196 1351.42 105.405 1350.6 105.242C1349.79 105.079 1349 105.605 1348.84 106.417C1348.68 107.229 1349.2 108.02 1350.01 108.183Z" fill="white"/>
<path fill-rule="evenodd" clip-rule="evenodd" d="M1323.5 112.371C1324.02 112.027 1324.71 112.167 1325.06 112.685L1327.08 115.722L1330.12 113.701C1330.63 113.357 1331.33 113.497 1331.68 114.014C1332.02 114.532 1331.88 115.23 1331.36 115.574L1327.39 118.218C1326.87 118.562 1326.17 118.422 1325.83 117.905L1323.19 113.931C1322.84 113.414 1322.98 112.715 1323.5 112.371Z" fill="#171717"/>
<path d="M1363.87 154.536C1364.02 153.704 1363.95 152.829 1363.94 151.984C1367.44 147.198 1367.32 140.716 1363.65 135.727C1362.75 134.507 1360.82 135.823 1361.72 137.026C1364.71 141.07 1364.81 146.526 1362.05 150.456C1361.82 150.465 1361.59 150.508 1361.38 150.645C1360.68 151.096 1359.96 151.526 1359.19 151.928C1358.97 152.026 1358.76 152.146 1358.54 152.228C1358.26 152.349 1358.02 152.517 1357.9 152.798C1357.79 153.045 1357.78 153.402 1357.93 153.665C1358.06 153.924 1358.3 154.169 1358.6 154.266C1358.68 154.299 1358.78 154.302 1358.88 154.321C1358.81 154.649 1358.78 154.984 1358.8 155.31C1358.78 155.397 1358.74 155.496 1358.72 155.582C1358.66 155.983 1358.69 156.33 1358.8 156.727C1358.97 157.3 1359.5 157.908 1360.12 158.124C1360.6 158.291 1361.08 158.333 1361.57 158.217C1361.95 158.115 1362.26 157.907 1362.55 157.678C1362.79 157.476 1362.97 157.224 1363.13 156.989C1363.27 156.802 1363.37 156.606 1363.48 156.394C1363.74 155.801 1363.86 155.197 1363.84 154.566C1363.87 154.553 1363.87 154.536 1363.87 154.536Z" fill="black"/>
<path d="M1288.93 139.479C1289.12 138.655 1289.52 137.874 1289.86 137.099C1288.48 131.333 1291.09 125.4 1296.41 122.216C1297.7 121.436 1298.97 123.395 1297.68 124.159C1293.36 126.735 1291.16 131.728 1292.19 136.42C1292.39 136.514 1292.59 136.644 1292.73 136.852C1293.2 137.538 1293.7 138.212 1294.26 138.88C1294.42 139.057 1294.57 139.247 1294.74 139.407C1294.96 139.631 1295.11 139.877 1295.11 140.182C1295.12 140.452 1294.99 140.785 1294.75 140.97C1294.53 141.159 1294.22 141.294 1293.9 141.265C1293.82 141.267 1293.72 141.23 1293.63 141.211C1293.56 141.538 1293.45 141.858 1293.31 142.153C1293.3 142.239 1293.3 142.346 1293.28 142.432C1293.18 142.825 1293.02 143.133 1292.77 143.46C1292.39 143.922 1291.67 144.279 1291.01 144.236C1290.5 144.207 1290.05 144.061 1289.64 143.764C1289.32 143.521 1289.12 143.211 1288.94 142.888C1288.79 142.608 1288.73 142.308 1288.67 142.026C1288.61 141.799 1288.59 141.581 1288.58 141.345C1288.57 140.697 1288.69 140.093 1288.95 139.517C1288.93 139.496 1288.93 139.479 1288.93 139.479Z" fill="black"/>
</g>
</g>
<defs>
<clipPath id="clip0_12_15">
<rect width="161" height="103" fill="white" transform="translate(1064.6 25) rotate(8.15043)"/>
</clipPath>
<clipPath id="clip1_12_15">
<rect width="162" height="103" fill="white" transform="translate(919.167 9) rotate(3.98998)"/>
</clipPath>
<clipPath id="clip2_12_15">
<rect width="140" height="103" fill="white" transform="translate(764.642 0.839172) rotate(1.7895)"/>
</clipPath>
<clipPath id="clip3_12_15">
<rect width="142" height="101" fill="white" transform="translate(610 3)"/>
</clipPath>
<clipPath id="clip4_12_15">
<rect width="156" height="99" fill="white" transform="translate(449 10.7488) rotate(-2.84717)"/>
</clipPath>
<clipPath id="clip5_12_15">
<rect width="147" height="99" fill="white" transform="translate(295 29.4224) rotate(-6.80667)"/>
</clipPath>
<clipPath id="clip6_12_15">
<rect width="144" height="101" fill="white" transform="translate(0 108.27) rotate(-15)"/>
</clipPath>
<clipPath id="clip7_12_15">
<rect width="139" height="102" fill="white" transform="translate(148 66.9758) rotate(-15)"/>
</clipPath>
<clipPath id="clip8_12_15">
<rect width="159" height="103" fill="white" transform="translate(1222.29 56) rotate(11.3611)"/>
</clipPath>
</defs>
</svg>
