<svg width="1400" height="400" viewBox="30 500 1400 206" fill="none" xmlns="http://www.w3.org/2000/svg">
<path fill-rule="evenodd" clip-rule="evenodd" d="M1440 0H0V659.089C226.288 585.043 467.968 545 719 545C970.772 545 1213.14 585.279 1440 659.744V0Z" fill="#005BE2" fill-opacity="0.04"/>
<g clip-path="url(#clip0_12_346)">
<mask id="mask0_12_346" style="mask-type:luminance" maskUnits="userSpaceOnUse" x="1081" y="480" width="174" height="125">
<path d="M1254.98 502.825L1095.6 480L1081 581.96L1240.37 604.785L1254.98 502.825Z" fill="white"/>
</mask>
<g mask="url(#mask0_12_346)">
<path d="M1161.67 594.018L1162.16 594.089L1162.23 593.594L1164.45 578.092L1174.29 579.501L1174.79 579.572L1174.86 579.077L1178.8 551.562L1178.87 551.067L1178.37 550.997L1168.54 549.588L1176.55 493.614L1176.62 493.119L1176.13 493.048L1119.87 484.99L1119.53 484.942L1119.36 485.242L1085.72 545.724L1085.67 545.805L1085.66 545.896L1082.8 565.892L1082.73 566.387L1083.22 566.458L1131.68 573.398L1129.46 588.9L1129.39 589.395L1129.88 589.465L1161.67 594.018ZM1140.27 513.41L1135.76 544.893L1121.28 542.819L1139.5 513.3L1140.27 513.41Z" fill="#00D0C4" stroke="white"/>
<path d="M1174.44 531.297L1173.99 531.286L1173.93 531.726L1170.7 554.297L1170.63 554.746L1171.07 554.854L1196.93 561.212L1195.63 570.291C1190.9 570.207 1185.18 569.687 1178.47 568.726C1171.91 567.786 1163.8 565.416 1154.13 561.6L1153.63 561.404L1153.47 561.913L1145.45 586.975L1145.3 587.424L1145.74 587.594C1157.07 591.978 1168.39 594.981 1179.7 596.601C1185.3 597.402 1190.88 597.936 1196.45 598.203C1202.04 598.576 1207.19 598.03 1211.9 596.556C1216.63 595.074 1220.61 592.457 1223.83 588.71C1227.2 584.845 1229.39 579.225 1230.43 571.908C1231.26 566.177 1230.65 561.13 1228.6 556.791C1226.58 552.538 1223.19 549.005 1218.45 546.183L1218.47 546.032C1223.03 544.335 1226.67 541.769 1229.36 538.328C1232.1 534.818 1233.84 530.422 1234.6 525.165C1235.47 519.093 1235.01 514.146 1233.14 510.374C1231.3 506.643 1228.59 503.704 1225.01 501.565C1221.47 499.337 1217.32 497.725 1212.56 496.723C1207.94 495.743 1203.25 494.911 1198.48 494.229C1186.74 492.547 1174.21 492.774 1160.88 494.903L1160.45 494.973L1160.46 495.412L1161.19 519.028L1161.21 519.544L1161.72 519.512C1172.46 518.829 1181.21 518.978 1187.99 519.948C1191.5 520.45 1194.47 520.981 1196.9 521.54L1196.91 521.542L1196.92 521.544C1199.16 521.96 1200.99 522.363 1202.44 522.751L1201.11 531.993L1174.44 531.297Z" fill="#00D0C4" stroke="white"/>
<path d="M1181.99 532.781C1188.55 533.72 1194.63 529.164 1195.57 522.603C1196.51 516.043 1191.96 509.963 1185.39 509.023C1178.83 508.084 1172.75 512.64 1171.81 519.201C1170.88 525.761 1175.43 531.841 1181.99 532.781Z" fill="white"/>
<path d="M1186.52 529.388C1190.89 530.015 1194.95 526.977 1195.57 522.603C1196.2 518.23 1193.16 514.176 1188.79 513.55C1184.41 512.924 1180.36 515.961 1179.73 520.335C1179.11 524.709 1182.15 528.762 1186.52 529.388Z" fill="#171717"/>
<path d="M1192.39 520.127C1193.21 520.245 1193.97 519.675 1194.09 518.855C1194.21 518.035 1193.64 517.275 1192.82 517.158C1192 517.04 1191.24 517.61 1191.12 518.43C1191 519.25 1191.57 520.01 1192.39 520.127Z" fill="white"/>
<path d="M1206.74 536.325C1213.3 537.265 1219.38 532.708 1220.32 526.148C1221.26 519.587 1216.7 513.507 1210.14 512.568C1203.58 511.628 1197.5 516.185 1196.56 522.745C1195.62 529.306 1200.18 535.386 1206.74 536.325Z" fill="white"/>
<path d="M1211.27 532.933C1215.64 533.559 1219.69 530.521 1220.32 526.148C1220.95 521.774 1217.91 517.721 1213.53 517.094C1209.16 516.468 1205.11 519.506 1204.48 523.879C1203.86 528.253 1206.89 532.306 1211.27 532.933Z" fill="#171717"/>
<path d="M1217.14 523.672C1217.96 523.789 1218.72 523.219 1218.84 522.399C1218.95 521.579 1218.38 520.819 1217.56 520.702C1216.74 520.584 1215.98 521.154 1215.87 521.974C1215.75 522.794 1216.32 523.554 1217.14 523.672Z" fill="white"/>
<path fill-rule="evenodd" clip-rule="evenodd" d="M1190.9 529.338C1191.4 528.966 1192.1 529.067 1192.47 529.564L1194.66 532.483L1197.58 530.295C1198.08 529.923 1198.78 530.024 1199.16 530.521C1199.53 531.018 1199.43 531.723 1198.93 532.096L1195.11 534.958C1194.61 535.331 1193.91 535.23 1193.54 534.733L1190.67 530.913C1190.3 530.416 1190.4 529.711 1190.9 529.338Z" fill="#171717"/>
<path d="M1159.05 539.598C1156.38 539.215 1153.69 538.429 1150.92 537.229C1150.45 537.026 1150.24 536.485 1150.43 536.02C1150.64 535.557 1151.18 535.343 1151.64 535.537C1160.01 539.132 1167.6 538.816 1176.26 534.496C1176.71 534.269 1177.27 534.449 1177.49 534.91C1177.72 535.362 1177.53 535.918 1177.08 536.145C1170.76 539.296 1164.96 540.443 1159.05 539.598Z" fill="black"/>
<path d="M1149.92 533.303C1150.13 532.987 1150.43 532.757 1150.81 532.692C1151.61 532.542 1152.35 533.15 1152.56 534.037C1152.71 534.66 1152.77 535.408 1152.69 535.988C1152.68 536.123 1152.65 536.256 1152.61 536.386C1152.18 537.574 1150.89 538.182 1148.78 537.442C1146.65 536.709 1146.07 535.404 1146.47 534.213C1146.91 532.918 1148.33 532.802 1149.92 533.303Z" fill="black"/>
<path d="M1220.84 561.606C1220.44 561.549 1220.04 561.482 1219.64 561.415C1218.67 561.249 1217.89 560.746 1217.34 559.91C1215.35 556.946 1216.82 550.401 1217.61 546.877C1217.76 546.206 1217.88 545.632 1217.92 545.346C1218 544.846 1218.47 544.494 1218.97 544.565C1219.47 544.637 1219.82 545.107 1219.75 545.607C1219.7 545.964 1219.57 546.521 1219.4 547.28C1218.77 550.061 1217.32 556.58 1218.86 558.888C1219.13 559.292 1219.48 559.524 1219.94 559.609C1233.66 561.974 1242.03 556.618 1245.48 543.231C1245.61 542.739 1246.12 542.447 1246.6 542.571C1247.09 542.696 1247.39 543.203 1247.26 543.686C1243.68 557.575 1234.79 563.604 1220.84 561.606Z" fill="black"/>
<path d="M1245.42 540.314C1245.04 540.26 1244.68 540.344 1244.38 540.584C1243.74 541.085 1243.72 542.049 1244.25 542.782C1244.63 543.301 1245.15 543.84 1245.64 544.156C1245.75 544.236 1245.87 544.307 1246 544.353C1247.17 544.813 1248.48 544.226 1249.31 542.156C1250.13 540.069 1249.53 538.78 1248.37 538.303C1247.09 537.792 1246.08 538.786 1245.42 540.314Z" fill="black"/>
</g>
</g>
<g clip-path="url(#clip1_12_346)">
<mask id="mask1_12_346" style="mask-type:luminance" maskUnits="userSpaceOnUse" x="943" y="464" width="169" height="115">
<path d="M1111.77 475.272L950.167 464L943 566.75L1104.61 578.023L1111.77 475.272Z" fill="white"/>
</mask>
<g mask="url(#mask1_12_346)">
<path d="M967.672 504.92L967.227 504.94L967.196 505.384L965.61 528.131L965.578 528.582L966.024 528.658L992.274 533.124L991.636 542.273C986.91 542.533 981.17 542.429 974.412 541.958C967.798 541.496 959.536 539.721 949.615 536.616L949.106 536.457L948.98 536.976L942.798 562.554L942.688 563.012L943.138 563.15C954.757 566.7 966.265 568.874 977.662 569.669C983.303 570.063 988.91 570.19 994.483 570.053C1000.09 570.018 1005.18 569.1 1009.77 567.288C1014.38 565.468 1018.16 562.569 1021.1 558.598C1024.18 554.498 1025.95 548.735 1026.47 541.361C1026.87 535.585 1025.91 530.595 1023.54 526.417C1021.22 522.321 1017.58 519.044 1012.65 516.574L1012.66 516.421C1017.09 514.397 1020.53 511.575 1022.96 507.947C1025.44 504.247 1026.86 499.737 1027.23 494.439C1027.66 488.32 1026.84 483.42 1024.71 479.793C1022.6 476.205 1019.68 473.47 1015.96 471.597C1012.26 469.631 1008 468.325 1003.19 467.671C998.507 467.029 993.766 466.54 988.962 466.205C977.132 465.38 964.648 466.515 951.512 469.605L951.084 469.706L951.129 470.144L953.574 493.644L953.627 494.158L954.139 494.088C964.798 492.628 973.538 492.141 980.367 492.617C983.901 492.864 986.9 493.178 989.369 493.559L989.379 493.56L989.389 493.561C991.649 493.814 993.511 494.082 994.978 494.365L994.328 503.678L967.672 504.92Z" fill="#9A00D0" stroke="white"/>
<path d="M1089.05 477.697L1089.09 477.198L1088.59 477.163L1010.78 471.736L1010.23 471.698L1010.24 472.242L1010.65 500.375L1010.65 500.841L1011.12 500.867L1048.13 502.982L1015.35 571.612L1015.03 572.276L1015.76 572.327L1051.29 574.805L1051.63 574.829L1051.78 574.517L1087.63 497.625L1087.67 497.541L1087.67 497.449L1089.05 477.697Z" fill="#9A00D0" stroke="white"/>
<path d="M1034.89 514.017C1041.5 514.478 1047.24 509.492 1047.7 502.881C1048.16 496.269 1043.17 490.536 1036.56 490.075C1029.95 489.614 1024.22 494.599 1023.76 501.211C1023.29 507.822 1028.28 513.555 1034.89 514.017Z" fill="white"/>
<path d="M1039.16 510.305C1043.57 510.612 1047.39 507.288 1047.7 502.881C1048.01 498.473 1044.68 494.651 1040.27 494.343C1035.87 494.036 1032.04 497.36 1031.74 501.767C1031.43 506.175 1034.75 509.997 1039.16 510.305Z" fill="#171717"/>
<path d="M1044.35 500.642C1045.17 500.7 1045.89 500.076 1045.95 499.25C1046 498.424 1045.38 497.707 1044.55 497.649C1043.73 497.592 1043.01 498.215 1042.95 499.041C1042.9 499.868 1043.52 500.584 1044.35 500.642Z" fill="white"/>
<path d="M1059.83 515.756C1066.44 516.217 1072.18 511.232 1072.64 504.62C1073.1 498.009 1068.11 492.275 1061.5 491.814C1054.89 491.353 1049.16 496.339 1048.7 502.95C1048.23 509.562 1053.22 515.295 1059.83 515.756Z" fill="white"/>
<path d="M1064.1 512.044C1068.51 512.352 1072.33 509.028 1072.64 504.62C1072.94 500.213 1069.62 496.39 1065.21 496.083C1060.81 495.775 1056.98 499.099 1056.68 503.507C1056.37 507.914 1059.69 511.737 1064.1 512.044Z" fill="#171717"/>
<path d="M1069.28 502.381C1070.11 502.439 1070.83 501.816 1070.89 500.989C1070.94 500.163 1070.32 499.446 1069.49 499.389C1068.67 499.331 1067.95 499.954 1067.89 500.781C1067.84 501.607 1068.46 502.324 1069.28 502.381Z" fill="white"/>
<path fill-rule="evenodd" clip-rule="evenodd" d="M1043.53 509.937C1044 509.529 1044.71 509.579 1045.11 510.048L1047.51 512.8L1050.26 510.407C1050.73 509.999 1051.44 510.048 1051.85 510.517C1052.25 510.986 1052.21 511.697 1051.74 512.104L1048.13 515.236C1047.67 515.644 1046.96 515.595 1046.55 515.126L1043.42 511.524C1043.01 511.055 1043.06 510.345 1043.53 509.937Z" fill="#171717"/>
<path d="M1101.7 546.696C1101.61 546.69 1101.5 546.654 1101.42 546.62L1059.71 529.076C1059.25 528.875 1059.03 528.353 1059.23 527.888C1059.43 527.424 1059.96 527.207 1060.42 527.408L1102.13 544.925C1102.59 545.126 1102.81 545.648 1102.61 546.112C1102.44 546.495 1102.09 546.723 1101.7 546.696Z" fill="black"/>
<path d="M1104.5 544.471C1104.52 544.107 1104.41 543.733 1104.17 543.463C1103.62 542.862 1102.66 542.907 1101.98 543.479C1101.5 543.896 1100.98 544.423 1100.69 544.937C1100.63 545.045 1100.56 545.182 1100.53 545.292C1100.16 546.476 1100.81 547.76 1102.93 548.414C1105.05 549.097 1106.3 548.424 1106.69 547.241C1107.12 545.976 1106.06 545.03 1104.5 544.471Z" fill="black"/>
<path d="M1007.2 502.672C1007.45 502.379 1007.77 502.177 1008.14 502.146C1008.93 502.061 1009.62 502.728 1009.72 503.636C1009.82 504.261 1009.79 505.02 1009.67 505.574C1009.66 505.714 1009.62 505.824 1009.56 505.96C1009.03 507.105 1007.7 507.576 1005.68 506.647C1003.64 505.716 1003.2 504.391 1003.7 503.244C1004.24 501.987 1005.67 502.002 1007.2 502.672Z" fill="black"/>
<path d="M1043.26 519.344C1043.17 519.338 1043.09 519.332 1043.01 519.298L1007.3 506.45C1006.84 506.277 1006.59 505.753 1006.74 505.285C1006.91 504.819 1007.43 504.574 1007.9 504.719L1043.63 517.569C1044.1 517.742 1044.34 518.266 1044.2 518.734C1044.03 519.144 1043.65 519.371 1043.26 519.344Z" fill="black"/>
</g>
</g>
<g clip-path="url(#clip2_12_346)">
<mask id="mask2_12_346" style="mask-type:luminance" maskUnits="userSpaceOnUse" x="792" y="455" width="144" height="109">
<path d="M935.574 460.211L795.642 455.839L792.426 558.789L932.358 563.161L935.574 460.211Z" fill="white"/>
</mask>
<g mask="url(#mask2_12_346)">
<path d="M814.705 496.057L814.262 496.094L814.248 496.539L813.536 519.33L813.522 519.782L813.971 519.841L840.373 523.296L840.087 532.463C835.374 532.904 829.634 533.02 822.863 532.808C816.236 532.601 807.911 531.144 797.879 528.423L797.364 528.283L797.258 528.807L792.063 554.604L791.97 555.066L792.426 555.186C804.172 558.288 815.755 560.018 827.175 560.375C832.826 560.551 838.434 560.463 843.998 560.112C849.595 559.863 854.654 558.749 859.167 556.763C863.702 554.767 867.368 551.725 870.159 547.644C873.079 543.429 874.628 537.601 874.859 530.213C875.039 524.426 873.883 519.477 871.359 515.393C868.885 511.389 865.12 508.254 860.098 505.975L860.102 505.823C864.448 503.63 867.778 500.677 870.071 496.959C872.409 493.166 873.65 488.605 873.816 483.297C874.008 477.166 873.002 472.301 870.734 468.758C868.492 465.254 865.468 462.633 861.674 460.904C857.908 459.082 853.602 457.941 848.763 457.472C844.063 457.009 839.307 456.703 834.494 456.553C822.64 456.182 810.209 457.796 797.202 461.389L796.778 461.506L796.84 461.941L800.185 485.331L800.258 485.842L800.767 485.752C811.362 483.884 820.076 483.062 826.919 483.276C830.46 483.386 833.469 483.585 835.95 483.871L835.96 483.872L835.971 483.873C838.239 484.039 840.109 484.235 841.586 484.461L841.295 493.793L814.705 496.057Z" fill="#002FA8" stroke="white"/>
<path d="M932.649 537.814L932.665 537.314L932.165 537.298L914.978 536.761L917.262 463.641L917.278 463.141L916.778 463.126L891.826 462.346L891.77 462.344L891.715 462.355L855.136 469.453L854.744 469.529L854.731 469.928L853.94 495.26L853.923 495.794L854.458 495.775L882.093 494.773L880.814 535.694L853.204 534.831L852.704 534.816L852.688 535.315L851.897 560.647L851.881 561.147L852.381 561.162L931.343 563.629L931.842 563.645L931.858 563.145L932.649 537.814Z" fill="#002FA8" stroke="white"/>
<path d="M882.096 535.936C881.609 535.921 881.193 535.54 881.149 535.018C881.105 534.465 881.517 533.987 882.067 533.943C893.661 532.926 912.761 530.887 914.717 529.784C918.881 527.37 915.686 518.321 914.111 515.023C913.882 514.526 914.084 513.919 914.58 513.69C915.075 513.46 915.678 513.663 915.907 514.16C916.164 514.72 922.316 527.723 915.7 531.531C912.717 533.246 885.368 535.701 882.248 535.971C882.188 535.939 882.157 535.938 882.096 535.936Z" fill="black"/>
<path d="M878.788 533.442C878.77 533.043 882.927 532.775 882.885 534.122C882.973 534.247 883.03 534.372 883.055 534.526C883.411 535.855 882.637 537.179 880.298 537.841C877.959 538.504 876.641 537.696 876.256 536.367C875.873 534.945 877.063 533.971 878.788 533.442Z" fill="black"/>
<path d="M867.261 533.316C866.986 533.308 866.716 533.177 866.509 532.956C866.157 532.516 866.237 531.905 866.675 531.551C873.528 526.034 880.929 519.584 881.457 518.314C882.348 516.165 883.196 511.472 883.197 511.442C883.306 510.893 883.805 510.541 884.351 510.65C884.897 510.759 885.247 511.26 885.138 511.809C885.101 512.022 884.251 516.777 883.263 519.106C882.273 521.496 870.256 531.173 867.877 533.121C867.72 533.239 867.474 533.323 867.261 533.316Z" fill="black"/>
<path d="M868.091 530.952C868.21 531.047 868.298 531.173 868.355 531.297C869.051 532.453 868.668 533.973 866.615 535.227C864.531 536.51 863.049 536.096 862.323 534.94C861.569 533.69 865.062 529.294 868.091 530.952Z" fill="black"/>
<path d="M906.214 503.315C899.59 503.108 894.387 497.571 894.594 490.946C894.801 484.322 900.339 479.12 906.963 479.327C913.587 479.534 918.79 485.072 918.583 491.696C918.376 498.32 912.838 503.522 906.214 503.315Z" fill="white"/>
<path d="M902.341 499.192C897.925 499.054 894.456 495.362 894.594 490.946C894.732 486.53 898.424 483.062 902.84 483.2C907.256 483.338 910.725 487.03 910.587 491.446C910.449 495.862 906.757 499.33 902.341 499.192Z" fill="#171717"/>
<path d="M898.155 489.057C897.327 489.031 896.677 488.339 896.703 487.511C896.729 486.682 897.421 486.032 898.249 486.058C899.077 486.084 899.727 486.776 899.701 487.604C899.675 488.432 898.983 489.082 898.155 489.057Z" fill="white"/>
<path d="M881.226 502.535C874.602 502.328 869.4 496.79 869.607 490.166C869.813 483.541 875.351 478.339 881.975 478.546C888.6 478.753 893.802 484.291 893.595 490.915C893.388 497.539 887.85 502.741 881.226 502.535Z" fill="white"/>
<path d="M877.353 498.412C872.937 498.274 869.469 494.582 869.607 490.166C869.745 485.75 873.436 482.281 877.852 482.419C882.269 482.557 885.737 486.249 885.599 490.665C885.461 495.081 881.769 498.55 877.353 498.412Z" fill="#171717"/>
<path d="M873.167 488.276C872.339 488.25 871.689 487.558 871.715 486.73C871.741 485.902 872.433 485.252 873.261 485.277C874.089 485.303 874.739 485.995 874.713 486.823C874.688 487.652 873.995 488.302 873.167 488.276Z" fill="white"/>
<path fill-rule="evenodd" clip-rule="evenodd" d="M898.034 498.387C897.609 497.934 896.897 497.912 896.444 498.337L893.785 500.835L891.287 498.176C890.862 497.723 890.15 497.701 889.697 498.126C889.244 498.552 889.222 499.264 889.648 499.717L892.916 503.195C893.341 503.648 894.053 503.67 894.505 503.245L897.984 499.977C898.437 499.552 898.46 498.84 898.034 498.387Z" fill="#171717"/>
</g>
</g>
<g clip-path="url(#clip3_12_346)">
<mask id="mask3_12_346" style="mask-type:luminance" maskUnits="userSpaceOnUse" x="641" y="458" width="142" height="101">
<path d="M783 458H641V559H783V458Z" fill="white"/>
</mask>
<g mask="url(#mask3_12_346)">
<path d="M646.856 487.597L646.947 488.122L647.465 487.997C657.054 485.692 666.802 484.539 676.708 484.539C678.7 484.539 680.747 484.643 682.847 484.852L682.86 484.854L682.873 484.854C684.949 484.952 687.117 485.097 689.38 485.287V493.03C688.078 493.632 686.64 494.324 685.066 495.106C683.374 495.842 681.472 496.683 679.36 497.628C677.246 498.574 674.973 499.573 672.542 500.624L672.534 500.627C670.202 501.681 667.871 502.788 665.539 503.947C663.307 505.004 661.181 506.114 659.16 507.278L659.149 507.284C657.226 508.452 655.512 509.677 654.008 510.958C651.348 513.181 649.105 515.357 647.285 517.486L647.284 517.488C645.565 519.517 644.166 521.657 643.088 523.908L643.084 523.916L643.08 523.925C642.111 526.174 641.412 528.58 640.983 531.142L640.982 531.151L640.98 531.16C640.66 533.605 640.5 536.31 640.5 539.273V559V559.5H641H722.413H722.913V559V533.75V533.25H722.413H678.16V529.692C687.534 526.577 695.211 523.717 701.188 521.11C707.246 518.468 712.004 515.656 715.441 512.665C718.88 509.673 721.264 506.342 722.567 502.67L722.568 502.666C723.861 498.917 724.5 494.441 724.5 489.247C724.5 482.265 723.491 476.658 721.436 472.461C719.493 468.278 716.678 465.096 712.989 462.937C709.322 460.685 704.916 459.248 699.786 458.609C694.786 457.869 689.209 457.5 683.056 457.5C669.99 457.5 656.665 459.507 643.08 463.517L642.652 463.644L642.729 464.083L646.856 487.597Z" fill="#008EDE" stroke="white"/>
<path d="M697.507 554.813L697.428 555.278L697.888 555.384C709.793 558.129 722.483 559.5 735.956 559.5C738.692 559.5 741.743 559.447 745.107 559.342C748.49 559.236 751.821 558.865 755.1 558.23C758.484 557.7 761.662 556.904 764.631 555.841L764.639 555.838L764.646 555.836C767.635 554.659 770.208 553.103 772.358 551.165L772.367 551.156L772.377 551.147C774.856 548.663 776.987 545.124 778.788 540.562C780.602 535.962 781.5 530.32 781.5 523.65C781.5 518.981 780.865 514.873 779.583 511.336C778.401 507.679 776.358 504.556 773.462 501.975C770.567 499.291 766.778 497.105 762.114 495.405C757.447 493.705 751.632 492.436 744.679 491.591L744.678 491.591L735.826 490.539V483.465L772.623 485.643L773.109 485.672L773.151 485.187L775.513 458.043L775.561 457.5H775.015H703.355H702.874L702.855 457.98C702.33 471.131 701.91 481.124 701.595 487.961L701.595 487.969C701.385 494.8 701.28 498.495 701.28 499.031C701.28 503.07 701.81 506.501 702.888 509.31L702.89 509.317C703.979 512.044 705.829 514.328 708.42 516.167L708.43 516.174L708.44 516.18C711.126 517.903 714.648 519.288 718.986 520.348C723.321 521.408 728.753 522.252 735.275 522.885C735.276 522.885 735.277 522.885 735.278 522.885L746.639 524.099V531.1C741.905 531.691 735.932 531.988 728.712 531.988C721.413 531.988 712.687 530.786 702.525 528.371L702.006 528.248L701.917 528.774L697.507 554.813Z" fill="#008EDE" stroke="white"/>
<path d="M727 498C733.627 498 739 492.627 739 486C739 479.373 733.627 474 727 474C720.373 474 715 479.373 715 486C715 492.627 720.373 498 727 498Z" fill="white"/>
<path d="M731 494C735.418 494 739 490.418 739 486C739 481.582 735.418 478 731 478C726.582 478 723 481.582 723 486C723 490.418 726.582 494 731 494Z" fill="#171717"/>
<path d="M735.5 484C736.328 484 737 483.328 737 482.5C737 481.672 736.328 481 735.5 481C734.672 481 734 481.672 734 482.5C734 483.328 734.672 484 735.5 484Z" fill="white"/>
<path d="M752 498C758.627 498 764 492.627 764 486C764 479.373 758.627 474 752 474C745.373 474 740 479.373 740 486C740 492.627 745.373 498 752 498Z" fill="white"/>
<path d="M756 494C760.418 494 764 490.418 764 486C764 481.582 760.418 478 756 478C751.582 478 748 481.582 748 486C748 490.418 751.582 494 756 494Z" fill="#171717"/>
<path d="M760.5 484C761.328 484 762 483.328 762 482.5C762 481.672 761.328 481 760.5 481C759.672 481 759 481.672 759 482.5C759 483.328 759.672 484 760.5 484Z" fill="white"/>
<path fill-rule="evenodd" clip-rule="evenodd" d="M735.329 493.329C735.769 492.89 736.481 492.89 736.921 493.329L739.5 495.909L742.08 493.329C742.519 492.89 743.231 492.89 743.67 493.329C744.11 493.769 744.11 494.481 743.67 494.92L740.296 498.295C739.856 498.735 739.144 498.735 738.704 498.295L735.329 494.92C734.89 494.481 734.89 493.769 735.329 493.329Z" fill="#171717"/>
<path d="M717.788 539.401C717.343 538.699 717.507 537.738 718.163 537.152C718.608 536.754 717.929 537.176 718.444 537.012C718.561 536.965 718.679 536.918 718.796 536.918C719.943 536.801 720.974 537.785 721.255 540.104C721.536 542.447 721.162 544.976 719.639 545C718.093 545.023 717.999 539.729 717.788 539.401Z" fill="black"/>
<path d="M703.522 500C703.288 500 703.031 500.117 702.89 500.328C697.643 507.965 695.324 519.935 702.609 528.227C706.544 532.702 713.127 536.801 718.608 538.23C719.007 538.324 719.428 538.09 719.545 537.691C719.662 537.293 719.405 536.871 719.007 536.754C713.783 535.396 707.528 531.484 703.757 527.22C697.01 519.537 699.212 508.363 704.132 501.195C704.366 500.843 704.272 500.375 703.944 500.141C703.804 500.047 703.663 500 703.522 500Z" fill="black"/>
<path d="M755.553 539.401C755.998 538.699 755.834 537.738 755.178 537.152C754.733 536.754 755.412 537.176 754.897 537.012C754.78 536.965 754.663 536.918 754.546 536.918C753.398 536.801 752.367 537.785 752.086 540.104C751.805 542.447 752.18 544.976 753.702 545C755.248 545.023 755.342 539.729 755.553 539.401Z" fill="black"/>
<path d="M769.819 500C770.053 500 770.311 500.117 770.451 500.328C775.699 507.965 778.018 519.935 770.733 528.227C766.797 532.702 760.215 536.801 754.733 538.23C754.335 538.324 753.913 538.09 753.796 537.691C753.679 537.293 753.937 536.871 754.335 536.754C759.559 535.396 765.813 531.484 769.585 527.22C776.331 519.537 774.129 508.363 769.21 501.195C768.976 500.843 769.069 500.375 769.397 500.141C769.538 500.047 769.678 500 769.819 500Z" fill="black"/>
</g>
</g>
<g clip-path="url(#clip4_12_346)">
<mask id="mask4_12_346" style="mask-type:luminance" maskUnits="userSpaceOnUse" x="480" y="458" width="161" height="107">
<path d="M635.807 458L480 465.749L484.918 564.627L640.725 556.878L635.807 458Z" fill="white"/>
</mask>
<g mask="url(#mask4_12_346)">
<path d="M563.061 535.365L563.036 534.866L562.536 534.89L545.362 535.745L541.728 462.679L541.703 462.18L541.203 462.204L516.27 463.444L516.214 463.447L516.161 463.462L480.275 473.494L479.89 473.601L479.91 474L481.169 499.313L481.195 499.847L481.726 499.785L509.19 496.552L511.224 537.442L483.634 538.815L483.134 538.839L483.159 539.339L484.418 564.651L484.443 565.151L484.942 565.126L563.845 561.202L564.344 561.177L564.319 560.678L563.061 535.365Z" fill="#76D200" stroke="white"/>
<path d="M583.185 527.56L583.188 527.56L590.621 527.338L591.028 535.517C586.319 536.341 580.696 536.917 574.158 537.242C567.776 537.559 559.422 536.777 549.083 534.881L548.56 534.785L548.496 535.313L545.353 561.448L545.296 561.918L545.762 562C557.866 564.138 571.375 564.832 586.284 564.091C593.923 563.711 600.322 562.39 605.467 560.112C610.619 557.83 614.71 554.475 617.722 550.048C620.73 545.629 622.755 540.103 623.812 533.491C624.974 526.879 625.327 519.057 624.878 510.028C624.429 501.001 623.358 493.302 621.656 486.939C619.947 480.461 617.329 475.163 613.789 471.068C610.244 466.966 605.682 464.044 600.12 462.297C594.565 460.552 587.805 459.887 579.852 460.282C573.708 460.588 568.057 461.343 562.9 462.55C557.716 463.657 553.299 465.578 549.665 468.323C546.011 470.974 543.226 474.597 541.303 479.173L541.299 479.182C539.477 483.769 538.757 489.603 539.108 496.66C539.376 502.035 540.194 506.714 541.572 510.691L541.576 510.702C543.071 514.7 545.454 518.018 548.721 520.645L548.727 520.651C552.107 523.276 556.561 525.13 562.062 526.234L562.065 526.234C567.668 527.332 574.712 527.771 583.185 527.56ZM575.519 486.474L575.531 486.466L575.543 486.458C576.749 485.637 579.03 485.099 582.505 484.926L588.497 484.628L589.026 495.28C589.164 498.055 588.566 499.678 587.471 500.433C586.248 501.16 583.955 501.644 580.489 501.816L574.499 502.114L573.969 491.463C573.83 488.668 574.439 487.121 575.519 486.474Z" fill="#76D200" stroke="white"/>
<path d="M569.878 501.328C576.497 500.999 581.597 495.366 581.267 488.747C580.938 482.128 575.305 477.029 568.686 477.358C562.067 477.687 556.968 483.32 557.297 489.939C557.626 496.558 563.259 501.658 569.878 501.328Z" fill="white"/>
<path d="M573.675 497.135C578.087 496.915 581.487 493.16 581.267 488.747C581.048 484.334 577.293 480.935 572.88 481.154C568.467 481.374 565.068 485.129 565.287 489.542C565.507 493.955 569.262 497.354 573.675 497.135Z" fill="#171717"/>
<path d="M577.672 486.923C578.5 486.882 579.137 486.178 579.096 485.351C579.055 484.523 578.351 483.886 577.523 483.927C576.696 483.968 576.059 484.672 576.1 485.5C576.141 486.327 576.845 486.965 577.672 486.923Z" fill="white"/>
<path d="M594.847 500.087C601.467 499.757 606.566 494.125 606.237 487.505C605.907 480.886 600.274 475.787 593.655 476.116C587.036 476.445 581.937 482.078 582.266 488.697C582.595 495.317 588.228 500.416 594.847 500.087Z" fill="white"/>
<path d="M598.644 495.893C603.057 495.673 606.456 491.918 606.237 487.505C606.017 483.092 602.262 479.693 597.849 479.912C593.436 480.132 590.037 483.887 590.256 488.3C590.476 492.713 594.231 496.112 598.644 495.893Z" fill="#171717"/>
<path d="M602.641 485.682C603.469 485.64 604.106 484.936 604.065 484.109C604.024 483.282 603.32 482.644 602.492 482.685C601.665 482.726 601.028 483.431 601.069 484.258C601.11 485.085 601.814 485.723 602.641 485.682Z" fill="white"/>
<path fill-rule="evenodd" clip-rule="evenodd" d="M577.965 496.25C578.382 495.789 579.094 495.754 579.555 496.171L582.259 498.619L584.708 495.915C585.124 495.454 585.835 495.419 586.296 495.836C586.757 496.252 586.792 496.964 586.375 497.425L583.172 500.963C582.755 501.424 582.044 501.459 581.583 501.042L578.045 497.839C577.584 497.422 577.549 496.71 577.965 496.25Z" fill="#171717"/>
<path d="M546.748 525.612C541.003 525.898 531.296 517.467 530.14 516.438C529.732 516.067 529.702 515.459 530.05 515.051C530.419 514.641 531.024 514.611 531.431 514.96C534.512 517.698 543.362 524.563 547.187 523.547C551.912 522.333 556.88 513.39 556.919 513.301C557.177 512.832 557.774 512.65 558.263 512.908C558.731 513.168 558.912 513.768 558.655 514.259C558.437 514.661 553.23 524.029 547.715 525.455C547.417 525.557 547.094 525.595 546.748 525.612Z" fill="black"/>
<path d="M531.714 514.12C532.003 513.845 532.384 513.674 532.797 513.697C533.665 513.741 534.29 514.557 534.274 515.536C534.265 516.232 534.153 517.021 533.923 517.619C533.886 517.751 533.828 517.885 533.748 518.019C533.025 519.164 531.504 519.479 529.491 518.187C527.455 516.876 527.164 515.368 527.886 514.224C528.668 512.967 530.174 513.197 531.714 514.12Z" fill="black"/>
<path d="M617.564 519.884C617.434 519.891 617.326 519.896 617.195 519.881C611.496 519.773 604.242 511.916 603.944 511.583C603.578 511.188 603.611 510.556 604.004 510.189C604.397 509.821 605.027 509.855 605.393 510.25C605.461 510.334 612.374 517.838 617.228 517.922C621.323 517.98 629.885 511.206 632.829 508.581C633.243 508.213 633.852 508.248 634.219 508.664C634.585 509.081 634.551 509.691 634.136 510.06C633.701 510.451 623.331 519.597 617.564 519.884Z" fill="black"/>
<path d="M633.711 506.733C633.437 506.442 633.08 506.242 632.668 506.22C631.801 506.197 631.103 506.971 631.043 507.931C630.99 508.629 631.029 509.41 631.212 510.031C631.24 510.16 631.291 510.31 631.363 510.437C632.005 511.622 633.478 512.071 635.588 510.944C637.719 509.816 638.122 508.34 637.498 507.132C636.849 505.838 635.317 505.936 633.711 506.733Z" fill="black"/>
</g>
</g>
<g clip-path="url(#clip5_12_346)">
<mask id="mask5_12_346" style="mask-type:luminance" maskUnits="userSpaceOnUse" x="326" y="467" width="158" height="116">
<path d="M471.964 467L326 484.422L337.733 582.725L483.697 565.302L471.964 467Z" fill="white"/>
</mask>
<g mask="url(#mask5_12_346)">
<path d="M413.669 548.137L413.61 547.64L413.114 547.7L396.039 549.738L387.368 477.097L387.309 476.601L386.813 476.66L362.025 479.619L361.969 479.626L361.916 479.644L326.809 492.13L326.432 492.264L326.48 492.66L329.484 517.826L329.547 518.357L330.073 518.258L357.247 513.136L362.1 553.789L334.67 557.063L334.174 557.122L334.233 557.618L337.237 582.784L337.296 583.28L337.793 583.221L416.236 573.858L416.732 573.799L416.673 573.302L413.669 548.137Z" fill="#FBE41A" stroke="white"/>
<path d="M404.479 514.939L404.047 515.042L404.099 515.484L406.802 538.125L406.856 538.575L407.308 538.566L433.93 538.035L435.017 547.142C430.424 548.283 424.766 549.255 418.039 550.058C411.455 550.844 403.006 550.647 392.68 549.456L392.15 549.395L392.124 549.929L390.843 576.212L390.82 576.683L391.288 576.734C403.366 578.045 415.078 578.025 426.422 576.671C432.037 576 437.569 575.075 443.017 573.896C448.515 572.813 453.35 570.956 457.515 568.317C461.7 565.666 464.871 562.11 467.021 557.658C469.278 553.054 469.938 547.06 469.062 539.721C468.376 533.972 466.492 529.251 463.387 525.59C460.342 522.001 456.15 519.464 450.844 517.961L450.826 517.809C454.796 514.992 457.647 511.574 459.358 507.556C461.103 503.456 461.648 498.761 461.019 493.487C460.292 487.396 458.571 482.736 455.799 479.572C453.058 476.442 449.676 474.303 445.667 473.161C441.671 471.922 437.242 471.437 432.387 471.697C427.671 471.942 422.923 472.35 418.141 472.921C406.365 474.326 394.315 477.78 381.991 483.276L381.589 483.456L381.716 483.877L388.519 506.503L388.667 506.998L389.157 506.833C399.355 503.402 407.848 501.287 414.645 500.476C418.163 500.056 421.168 499.803 423.664 499.714L423.675 499.714L423.685 499.713C425.952 499.538 427.831 499.453 429.325 499.455L430.431 508.726L404.479 514.939Z" fill="#FBE41A" stroke="white"/>
<path d="M412.163 514.422C418.744 513.636 423.442 507.665 422.656 501.084C421.871 494.503 415.899 489.806 409.318 490.591C402.738 491.376 398.04 497.348 398.825 503.929C399.611 510.509 405.582 515.207 412.163 514.422Z" fill="white"/>
<path d="M415.661 509.976C420.048 509.452 423.18 505.471 422.656 501.084C422.132 496.697 418.151 493.565 413.764 494.089C409.377 494.612 406.245 498.593 406.769 502.98C407.292 507.368 411.273 510.5 415.661 509.976Z" fill="#171717"/>
<path d="M418.944 499.513C419.766 499.415 420.353 498.668 420.255 497.846C420.157 497.023 419.411 496.436 418.588 496.534C417.766 496.632 417.178 497.379 417.276 498.201C417.375 499.024 418.121 499.611 418.944 499.513Z" fill="white"/>
<path d="M436.987 511.459C443.567 510.673 448.265 504.702 447.48 498.121C446.694 491.54 440.723 486.843 434.142 487.628C427.561 488.413 422.864 494.385 423.649 500.966C424.434 507.546 430.406 512.244 436.987 511.459Z" fill="white"/>
<path d="M440.484 507.013C444.872 506.489 448.003 502.508 447.48 498.121C446.956 493.734 442.975 490.602 438.588 491.126C434.201 491.649 431.069 495.63 431.593 500.018C432.116 504.405 436.097 507.537 440.484 507.013Z" fill="#171717"/>
<path d="M443.767 496.55C444.59 496.452 445.177 495.705 445.079 494.883C444.981 494.06 444.234 493.473 443.412 493.571C442.589 493.669 442.002 494.416 442.1 495.238C442.198 496.061 442.945 496.648 443.767 496.55Z" fill="white"/>
<path fill-rule="evenodd" clip-rule="evenodd" d="M419.88 508.797C420.264 508.309 420.972 508.224 421.46 508.609L424.327 510.864L426.583 507.997C426.967 507.509 427.674 507.424 428.162 507.809C428.651 508.193 428.735 508.9 428.351 509.388L425.4 513.14C425.016 513.628 424.308 513.712 423.82 513.328L420.069 510.377C419.58 509.993 419.496 509.285 419.88 508.797Z" fill="#171717"/>
<path d="M406.936 527.133C406.636 527.169 406.345 527.085 406.109 526.876C405.638 526.459 394.779 516.689 391.608 511.309C388.526 506.084 389.194 486.574 389.212 485.742C389.235 485.147 389.718 484.687 390.306 484.711C390.895 484.736 391.351 485.226 391.328 485.821C391.139 491.294 391.129 506.319 393.421 510.216C396.417 515.308 407.382 525.184 407.486 525.267C407.931 525.664 407.966 526.347 407.572 526.773C407.433 526.979 407.19 527.103 406.936 527.133Z" fill="black"/>
<path d="M392.343 483.923C392.769 483.967 393.167 484.156 393.442 484.503C394.022 485.239 393.801 486.332 393.019 487.041C392.469 487.533 391.752 487.998 391.102 488.242C390.969 488.305 390.81 488.348 390.649 488.367C389.246 488.582 387.909 487.58 387.51 485.021C387.105 482.415 388.12 481.11 389.543 480.869C391.104 480.611 391.999 482.021 392.343 483.923Z" fill="black"/>
<path d="M453.387 521.707C453.11 521.74 452.819 521.657 452.585 521.471C452.12 521.1 452.062 520.42 452.431 519.973C452.512 519.869 461.356 508.837 463.604 503.734C465.411 499.656 461.897 484.934 460.417 479.589C460.255 479.016 460.584 478.432 461.149 478.269C461.715 478.107 462.294 478.441 462.456 479.014C463.027 481.055 467.989 499.088 465.558 504.615C463.177 509.97 454.457 520.869 454.092 521.339C453.906 521.551 453.664 521.674 453.387 521.707Z" fill="black"/>
<path d="M459.008 477.98C458.603 478.123 458.262 478.401 458.076 478.802C457.685 479.654 458.157 480.664 459.084 481.17C459.734 481.519 460.541 481.802 461.229 481.885C461.374 481.916 461.538 481.92 461.7 481.9C463.137 481.776 464.2 480.488 463.983 477.884C463.765 475.279 462.469 474.226 461.033 474.35C459.432 474.47 458.894 476.05 459.008 477.98Z" fill="black"/>
</g>
</g>
<g clip-path="url(#clip6_12_346)">
<path d="M40.811 592.793L40.8118 592.8C41.4926 598.781 42.8206 605.453 44.793 612.814C46.7399 620.08 48.9256 626.522 51.3516 632.136L51.3549 632.144C53.8885 637.759 57.111 642.284 61.031 645.701L61.0351 645.705C64.9438 649.038 69.7136 651.139 75.3266 652.02L75.3379 652.022C81.0294 652.782 87.9901 652.045 96.2026 649.844C104.415 647.644 110.765 644.814 115.221 641.334L115.225 641.331C119.74 637.737 122.823 633.531 124.448 628.71C126.161 623.882 126.653 618.411 125.944 612.307C125.333 606.204 124.052 599.518 122.105 592.252C120.133 584.891 117.935 578.401 115.508 572.786C113.07 567.144 109.907 562.651 106.009 559.326C102.191 555.962 97.4292 553.909 91.7471 553.149C86.12 552.267 79.1434 552.958 70.8383 555.183C62.6251 557.384 56.2391 560.275 51.7139 563.876C47.2657 567.351 44.1713 571.51 42.4521 576.352C40.7384 581.179 40.1974 586.663 40.811 592.793ZM86.9202 626.612L81.4126 628.088L70.8099 588.518C69.9208 585.2 70.1938 583.157 71.2726 582.099C71.8557 581.528 72.7997 580.942 74.1443 580.356C75.4826 579.773 77.1875 579.201 79.265 578.645L85.4857 576.978L96.0884 616.548C96.9407 619.729 96.5998 621.815 95.35 623.034C93.9611 624.263 91.1863 625.469 86.9202 626.612Z" fill="#D00019" stroke="white"/>
<path d="M186.035 599.018L185.906 598.535L185.423 598.664L168.813 603.115L149.878 532.452L149.749 531.969L149.266 532.098L125.153 538.559L125.099 538.574L125.049 538.6L92.0792 555.962L91.7258 556.148L91.8292 556.533L98.3887 581.014L98.5271 581.531L99.0333 581.358L125.201 572.416L135.797 611.962L109.114 619.111L108.632 619.241L108.761 619.724L115.32 644.204L115.45 644.687L115.933 644.558L192.241 624.111L192.724 623.981L192.594 623.498L186.035 599.018Z" fill="#D00019" stroke="white"/>
<path d="M176.104 601.602C175.643 601.341 175.299 600.934 175.151 600.419C174.856 599.32 175.62 598.208 176.836 597.826C177.692 597.562 178.708 597.392 179.527 597.445C179.715 597.44 179.902 597.469 180.095 597.519C181.786 597.995 182.773 599.759 181.977 602.794C181.176 605.852 179.443 606.804 177.738 606.366C175.897 605.873 175.576 603.886 176.104 601.602Z" fill="black"/>
<path d="M179.761 600.656C179.532 600.718 179.275 600.719 179.027 600.626C178.352 600.399 177.986 599.659 178.208 598.988C180.461 592.05 183.187 579.954 180.89 577.012C178.012 573.319 164.481 572.027 159.503 571.842C158.793 571.817 158.241 571.217 158.261 570.498C158.283 569.789 158.869 569.224 159.58 569.249C161.533 569.326 178.77 570.101 182.899 575.42C184.655 577.68 184.777 582.384 183.256 589.805C182.19 595.043 180.703 599.622 180.644 599.819C180.502 600.254 180.168 600.547 179.761 600.656Z" fill="black"/>
<path d="M130.323 612.908C130.508 612.457 130.549 611.947 130.37 611.463C129.996 610.435 128.856 609.98 127.797 610.34C127.045 610.596 126.228 611.01 125.678 611.504C125.547 611.605 125.421 611.725 125.32 611.861C124.37 613.147 124.608 615.069 126.782 617.026C128.981 618.998 130.726 618.802 131.7 617.532C132.741 616.146 131.912 614.414 130.323 612.908Z" fill="black"/>
<path d="M127.116 614.18C126.775 614.271 126.388 614.19 126.086 613.913C124.797 612.75 113.491 602.376 113.603 596.377C113.722 590.039 124.917 578.541 126.193 577.255C126.644 576.798 127.367 576.843 127.801 577.356C128.244 577.867 128.237 578.65 127.783 579.098C124.504 582.418 115.963 592.022 115.881 596.548C115.818 600.146 122.971 607.965 127.494 612.049C127.988 612.492 128.069 613.273 127.683 613.789C127.54 613.99 127.338 614.12 127.116 614.18Z" fill="black"/>
<path d="M150.761 573.626C144.36 575.342 137.78 571.543 136.064 565.141C134.349 558.739 138.148 552.159 144.55 550.444C150.951 548.729 157.531 552.528 159.246 558.929C160.962 565.331 157.163 571.911 150.761 573.626Z" fill="white"/>
<path d="M145.862 570.798C141.595 571.941 137.208 569.409 136.064 565.141C134.921 560.873 137.453 556.487 141.721 555.343C145.989 554.2 150.376 556.732 151.519 561C152.663 565.268 150.13 569.654 145.862 570.798Z" fill="#171717"/>
<path d="M138.927 562.303C138.127 562.518 137.305 562.043 137.09 561.243C136.876 560.442 137.351 559.62 138.151 559.406C138.951 559.191 139.774 559.666 139.988 560.466C140.202 561.266 139.728 562.089 138.927 562.303Z" fill="white"/>
<path d="M126.613 580.097C120.211 581.812 113.631 578.013 111.916 571.612C110.201 565.21 114 558.63 120.401 556.915C126.803 555.199 133.383 558.998 135.098 565.4C136.814 571.801 133.015 578.382 126.613 580.097Z" fill="white"/>
<path d="M121.714 577.268C117.446 578.412 113.06 575.879 111.916 571.612C110.773 567.344 113.305 562.957 117.573 561.814C121.841 560.67 126.227 563.203 127.371 567.47C128.514 571.738 125.982 576.125 121.714 577.268Z" fill="#171717"/>
<path d="M114.779 568.774C113.979 568.988 113.157 568.513 112.942 567.713C112.728 566.913 113.203 566.09 114.003 565.876C114.803 565.662 115.625 566.137 115.84 566.937C116.054 567.737 115.579 568.559 114.779 568.774Z" fill="white"/>
<path fill-rule="evenodd" clip-rule="evenodd" d="M141.506 571.271C140.968 570.96 140.281 571.145 139.97 571.682L138.146 574.842L134.987 573.018C134.449 572.707 133.761 572.892 133.45 573.43C133.139 573.968 133.324 574.656 133.862 574.966L137.995 577.353C138.533 577.663 139.221 577.479 139.532 576.941L141.918 572.808C142.229 572.27 142.045 571.581 141.506 571.271Z" fill="#171717"/>
</g>
<g clip-path="url(#clip7_12_346)">
<path d="M188.811 551.499L188.812 551.506C189.493 557.487 190.821 564.159 192.793 571.52C194.74 578.786 196.926 585.228 199.352 590.842L199.355 590.85C201.888 596.465 205.111 600.99 209.031 604.407L209.035 604.411C212.944 607.743 217.714 609.845 223.327 610.726L223.338 610.728C229.029 611.488 235.99 610.751 244.203 608.55C252.415 606.35 258.765 603.52 263.221 600.04L263.225 600.037C267.74 596.443 270.823 592.237 272.448 587.416C274.161 582.588 274.653 577.116 273.944 571.013C273.333 564.91 272.052 558.224 270.105 550.958C268.133 543.597 265.935 537.107 263.508 531.492C261.07 525.85 257.907 521.356 254.009 518.031C250.191 514.668 245.429 512.615 239.747 511.855C234.12 510.973 227.143 511.664 218.838 513.889C210.625 516.09 204.239 518.981 199.714 522.582C195.266 526.057 192.171 530.216 190.452 535.058C188.738 539.885 188.197 545.369 188.811 551.499ZM234.92 585.318L229.413 586.794L218.81 547.224C217.921 543.906 218.194 541.863 219.273 540.805C219.856 540.234 220.8 539.648 222.144 539.062C223.483 538.478 225.187 537.907 227.265 537.351L233.486 535.684L244.088 575.254C244.941 578.434 244.6 580.52 243.35 581.74C241.961 582.969 239.186 584.175 234.92 585.318Z" fill="#F49300" stroke="white"/>
<path d="M290.068 534.662C283.666 536.377 277.086 532.578 275.371 526.176C273.656 519.775 277.455 513.195 283.856 511.479C290.258 509.764 296.838 513.563 298.553 519.965C300.268 526.366 296.469 532.946 290.068 534.662Z" fill="white"/>
<path d="M285.169 531.833C280.901 532.977 276.514 530.444 275.371 526.176C274.227 521.909 276.76 517.522 281.028 516.378C285.296 515.235 289.682 517.767 290.826 522.035C291.969 526.303 289.437 530.69 285.169 531.833Z" fill="#171717"/>
<path d="M278.234 523.339C277.434 523.553 276.611 523.078 276.397 522.278C276.183 521.478 276.657 520.655 277.458 520.441C278.258 520.226 279.08 520.701 279.295 521.502C279.509 522.302 279.034 523.124 278.234 523.339Z" fill="white"/>
<path d="M265.92 541.132C259.518 542.847 252.938 539.048 251.223 532.647C249.507 526.245 253.306 519.665 259.708 517.95C266.11 516.235 272.69 520.034 274.405 526.435C276.12 532.837 272.321 539.417 265.92 541.132Z" fill="white"/>
<path d="M261.021 538.304C256.753 539.447 252.366 536.915 251.223 532.647C250.079 528.379 252.612 523.992 256.88 522.849C261.147 521.705 265.534 524.238 266.678 528.506C267.821 532.773 265.288 537.16 261.021 538.304Z" fill="#171717"/>
<path d="M254.086 529.809C253.286 530.023 252.463 529.549 252.249 528.748C252.034 527.948 252.509 527.126 253.309 526.911C254.11 526.697 254.932 527.172 255.147 527.972C255.361 528.772 254.886 529.595 254.086 529.809Z" fill="white"/>
<path fill-rule="evenodd" clip-rule="evenodd" d="M280.813 532.306C280.275 531.995 279.587 532.18 279.277 532.718L277.453 535.877L274.293 534.053C273.755 533.742 273.067 533.927 272.757 534.465C272.446 535.003 272.63 535.691 273.168 536.002L277.302 538.388C277.84 538.699 278.528 538.514 278.839 537.976L281.225 533.843C281.536 533.305 281.351 532.617 280.813 532.306Z" fill="#171717"/>
<path d="M307.503 489.614L307.373 489.131L306.89 489.261L231.548 509.448L231.023 509.589L231.207 510.101L240.747 536.571L240.905 537.009L241.353 536.882L277.042 526.837L268.372 602.401L268.288 603.132L268.998 602.941L303.397 593.724L303.728 593.636L303.765 593.293L312.642 508.921L312.651 508.829L312.627 508.739L307.503 489.614Z" fill="#F49300" stroke="white"/>
<path d="M268.11 541.58C274.512 539.865 278.311 533.285 276.596 526.883C274.88 520.482 268.3 516.683 261.899 518.398C255.497 520.113 251.698 526.693 253.413 533.095C255.129 539.497 261.709 543.296 268.11 541.58Z" fill="white"/>
<path d="M270.939 536.681C275.207 535.538 277.739 531.151 276.596 526.883C275.452 522.616 271.065 520.083 266.798 521.227C262.53 522.37 259.997 526.757 261.141 531.025C262.284 535.292 266.671 537.825 270.939 536.681Z" fill="#171717"/>
<path d="M272.697 525.857C273.497 525.643 273.972 524.821 273.758 524.02C273.544 523.22 272.721 522.745 271.921 522.96C271.121 523.174 270.646 523.997 270.86 524.797C271.075 525.597 271.897 526.072 272.697 525.857Z" fill="white"/>
<path d="M292.259 535.11C298.66 533.395 302.459 526.815 300.744 520.413C299.029 514.011 292.448 510.212 286.047 511.928C279.645 513.643 275.846 520.223 277.562 526.625C279.277 533.026 285.857 536.825 292.259 535.11Z" fill="white"/>
<path d="M295.087 530.211C299.355 529.067 301.887 524.681 300.744 520.413C299.6 516.145 295.214 513.613 290.946 514.756C286.678 515.9 284.145 520.286 285.289 524.554C286.433 528.822 290.819 531.354 295.087 530.211Z" fill="#171717"/>
<path d="M296.845 519.387C297.646 519.173 298.121 518.35 297.906 517.55C297.692 516.75 296.869 516.275 296.069 516.489C295.269 516.704 294.794 517.526 295.008 518.326C295.223 519.127 296.045 519.601 296.845 519.387Z" fill="white"/>
<path fill-rule="evenodd" clip-rule="evenodd" d="M274.947 534.913C275.258 534.375 275.946 534.191 276.484 534.501L279.643 536.325L281.467 533.166C281.778 532.628 282.466 532.444 283.004 532.754C283.542 533.065 283.726 533.753 283.416 534.291L281.029 538.425C280.719 538.963 280.031 539.147 279.493 538.836L275.359 536.45C274.821 536.139 274.637 535.451 274.947 534.913Z" fill="#171717"/>
<path d="M275.699 546.451C275.424 546.524 275.119 546.486 274.856 546.317C274.352 545.984 262.438 538.135 258.618 533.409C254.9 528.819 252.877 509.988 252.782 509.186C252.717 508.616 253.135 508.101 253.71 508.045C254.281 507.979 254.797 508.396 254.852 508.969C255.414 514.242 257.462 528.687 260.233 532.105C263.855 536.579 275.875 544.498 275.993 544.575C276.471 544.893 276.61 545.532 276.293 546.019C276.156 546.241 275.933 546.388 275.699 546.451Z" fill="black"/>
<path d="M255.505 508.228C256.213 508.876 256.291 510.021 255.729 510.857C255.34 511.441 255.989 510.766 255.457 511.105C255.349 511.188 255.217 511.267 255.077 511.315C253.834 511.768 252.377 510.972 251.382 508.44C250.392 505.885 250.093 502.937 251.811 502.466C253.56 501.987 255.17 507.915 255.505 508.228Z" fill="black"/>
<path d="M318.235 564.778C317.895 564.869 317.53 564.785 317.258 564.527C316.853 564.134 316.84 563.486 317.234 563.081C323.226 556.926 327.076 550.566 326.815 547.272C326.752 546.477 326.456 545.895 325.908 545.486C320.525 541.45 307.314 537.323 303.395 536.152C302.848 535.988 302.545 535.418 302.712 534.882C302.876 534.336 303.447 534.034 303.984 534.199C307.985 535.391 321.488 539.612 327.14 543.853C328.171 544.624 328.743 545.72 328.858 547.109C329.231 551.857 323.848 559.205 318.707 564.502C318.573 564.645 318.404 564.732 318.235 564.778Z" fill="black"/>
<path d="M319.064 564.599C319.255 563.672 318.638 562.726 317.712 562.387C317.059 562.146 317.972 562.318 317.358 562.343C317.217 562.338 317.082 562.353 316.933 562.393C315.672 562.763 314.987 564.239 315.679 566.819C316.373 569.41 317.845 571.909 319.487 571.288C321.159 570.658 318.979 565.038 319.064 564.599Z" fill="black"/>
</g>
<g clip-path="url(#clip8_12_346)">
<mask id="mask6_12_346" style="mask-type:luminance" maskUnits="userSpaceOnUse" x="1233" y="511" width="177" height="133">
<path d="M1409.17 542.322L1253.29 511L1233 611.982L1388.88 643.304L1409.17 542.322Z" fill="white"/>
</mask>
<g mask="url(#mask6_12_346)">
<path d="M1312.87 628.539L1313.36 628.638L1313.46 628.148L1316.54 612.795L1326.28 614.752L1326.77 614.85L1326.87 614.36L1332.35 587.11L1332.44 586.619L1331.95 586.521L1322.21 584.564L1333.35 529.127L1333.45 528.637L1332.96 528.538L1277.24 517.341L1276.9 517.274L1276.72 517.565L1239.74 576.067L1239.69 576.145L1239.67 576.236L1235.69 596.04L1235.59 596.53L1236.08 596.629L1284.08 606.272L1280.99 621.625L1280.89 622.115L1281.38 622.214L1312.87 628.539ZM1296.02 546.859L1289.75 578.041L1275.4 575.158L1295.25 546.706L1296.02 546.859Z" fill="#D00089" stroke="white"/>
<path d="M1351.87 599.005L1351.88 599.005L1359.14 600.615L1357.52 608.644C1352.76 608.286 1347.16 607.464 1340.75 606.175C1334.48 604.916 1326.57 602.107 1317.02 597.731L1316.53 597.51L1316.34 598.006L1306.88 622.57L1306.71 623.012L1307.14 623.206C1318.35 628.249 1331.28 632.238 1345.91 635.179C1353.41 636.685 1359.94 636.976 1365.48 636.03C1371.04 635.082 1375.83 632.834 1379.83 629.282C1383.83 625.736 1387.15 620.876 1389.8 614.726C1392.55 608.602 1394.81 601.105 1396.59 592.243C1398.37 583.381 1399.23 575.655 1399.14 569.069C1399.07 562.369 1397.83 556.591 1395.41 551.752C1392.98 546.906 1389.27 542.954 1384.31 539.895C1379.35 536.84 1372.96 534.536 1365.15 532.967C1359.12 531.755 1353.46 531.1 1348.17 531.004C1342.87 530.805 1338.11 531.583 1333.92 533.352C1329.73 535.025 1326.14 537.854 1323.15 541.818L1323.14 541.826C1320.25 545.825 1318.12 551.304 1316.73 558.232C1315.67 563.507 1315.31 568.244 1315.67 572.437L1315.67 572.45C1316.14 576.692 1317.64 580.493 1320.16 583.843L1320.17 583.849C1322.8 587.224 1326.66 590.114 1331.72 592.534L1331.72 592.535C1336.89 594.975 1343.61 597.129 1351.87 599.005ZM1354.53 557.294L1354.54 557.29L1354.55 557.285C1355.92 556.785 1358.27 556.823 1361.68 557.508L1367.56 558.69L1365.46 569.146C1364.91 571.87 1363.93 573.297 1362.69 573.76C1361.32 574.165 1358.98 574.071 1355.58 573.387L1349.7 572.205L1351.8 561.749C1352.35 559.006 1353.32 557.657 1354.53 557.294Z" fill="#D00089" stroke="white"/>
<path d="M1345.41 570.309C1351.91 571.615 1358.24 567.406 1359.54 560.909C1360.85 554.411 1356.64 548.085 1350.14 546.78C1343.64 545.474 1337.32 549.683 1336.01 556.181C1334.71 562.678 1338.91 569.004 1345.41 570.309Z" fill="white"/>
<path d="M1350.12 567.176C1354.45 568.046 1358.67 565.24 1359.54 560.909C1360.41 556.577 1357.61 552.36 1353.27 551.489C1348.94 550.619 1344.72 553.425 1343.85 557.757C1342.98 562.088 1345.79 566.305 1350.12 567.176Z" fill="#171717"/>
<path d="M1356.5 558.258C1357.32 558.421 1358.11 557.895 1358.27 557.083C1358.43 556.271 1357.91 555.48 1357.09 555.317C1356.28 555.154 1355.49 555.68 1355.33 556.492C1355.16 557.304 1355.69 558.095 1356.5 558.258Z" fill="white"/>
<path d="M1369.92 575.234C1376.42 576.54 1382.75 572.331 1384.05 565.833C1385.36 559.336 1381.15 553.01 1374.65 551.705C1368.15 550.399 1361.83 554.608 1360.52 561.105C1359.22 567.603 1363.42 573.929 1369.92 575.234Z" fill="white"/>
<path d="M1374.63 572.101C1378.96 572.971 1383.18 570.165 1384.05 565.833C1384.92 561.502 1382.12 557.285 1377.78 556.414C1373.45 555.544 1369.23 558.35 1368.36 562.681C1367.49 567.013 1370.3 571.23 1374.63 572.101Z" fill="#171717"/>
<path d="M1381.01 563.183C1381.83 563.346 1382.62 562.82 1382.78 562.008C1382.94 561.196 1382.42 560.405 1381.6 560.242C1380.79 560.079 1380 560.605 1379.84 561.417C1379.68 562.229 1380.2 563.02 1381.01 563.183Z" fill="white"/>
<path fill-rule="evenodd" clip-rule="evenodd" d="M1354.5 567.371C1355.02 567.027 1355.71 567.167 1356.06 567.685L1358.08 570.722L1361.12 568.701C1361.63 568.357 1362.33 568.497 1362.68 569.014C1363.02 569.532 1362.88 570.23 1362.36 570.574L1358.39 573.218C1357.87 573.562 1357.17 573.422 1356.83 572.905L1354.19 568.931C1353.84 568.414 1353.98 567.715 1354.5 567.371Z" fill="#171717"/>
<path d="M1394.87 609.536C1395.02 608.704 1394.95 607.829 1394.94 606.984C1398.44 602.198 1398.32 595.716 1394.65 590.727C1393.75 589.507 1391.82 590.823 1392.72 592.026C1395.71 596.07 1395.81 601.526 1393.05 605.456C1392.82 605.465 1392.59 605.508 1392.38 605.645C1391.68 606.096 1390.96 606.526 1390.19 606.928C1389.97 607.026 1389.76 607.146 1389.54 607.228C1389.26 607.349 1389.02 607.517 1388.9 607.798C1388.79 608.045 1388.78 608.402 1388.93 608.665C1389.06 608.924 1389.3 609.169 1389.6 609.266C1389.68 609.299 1389.78 609.302 1389.88 609.321C1389.81 609.649 1389.78 609.984 1389.8 610.31C1389.78 610.397 1389.74 610.496 1389.72 610.582C1389.66 610.983 1389.69 611.33 1389.8 611.727C1389.97 612.3 1390.5 612.908 1391.12 613.124C1391.6 613.291 1392.08 613.333 1392.57 613.217C1392.95 613.115 1393.26 612.907 1393.55 612.678C1393.79 612.476 1393.97 612.224 1394.13 611.989C1394.27 611.802 1394.37 611.606 1394.48 611.394C1394.74 610.801 1394.86 610.197 1394.84 609.566C1394.87 609.553 1394.87 609.536 1394.87 609.536Z" fill="black"/>
<path d="M1319.93 594.479C1320.12 593.655 1320.52 592.874 1320.86 592.099C1319.48 586.333 1322.09 580.4 1327.41 577.216C1328.7 576.436 1329.97 578.395 1328.68 579.159C1324.36 581.735 1322.16 586.728 1323.19 591.42C1323.39 591.514 1323.59 591.644 1323.73 591.852C1324.2 592.538 1324.7 593.212 1325.26 593.88C1325.42 594.057 1325.57 594.247 1325.74 594.407C1325.96 594.631 1326.11 594.877 1326.11 595.182C1326.12 595.452 1325.99 595.785 1325.75 595.97C1325.53 596.159 1325.22 596.294 1324.9 596.265C1324.82 596.267 1324.72 596.23 1324.63 596.211C1324.56 596.538 1324.45 596.858 1324.31 597.153C1324.3 597.239 1324.3 597.346 1324.28 597.432C1324.18 597.825 1324.02 598.133 1323.77 598.46C1323.39 598.922 1322.67 599.279 1322.01 599.236C1321.5 599.207 1321.05 599.061 1320.64 598.764C1320.32 598.521 1320.12 598.211 1319.94 597.888C1319.79 597.608 1319.73 597.308 1319.67 597.026C1319.61 596.799 1319.59 596.581 1319.58 596.345C1319.57 595.697 1319.69 595.093 1319.95 594.517C1319.93 594.496 1319.93 594.479 1319.93 594.479Z" fill="black"/>
</g>
</g>
<defs>
<clipPath id="clip0_12_346">
<rect width="161" height="103" fill="white" transform="translate(1095.6 480) rotate(8.15043)"/>
</clipPath>
<clipPath id="clip1_12_346">
<rect width="162" height="103" fill="white" transform="translate(950.167 464) rotate(3.98998)"/>
</clipPath>
<clipPath id="clip2_12_346">
<rect width="140" height="103" fill="white" transform="translate(795.642 455.839) rotate(1.7895)"/>
</clipPath>
<clipPath id="clip3_12_346">
<rect width="142" height="101" fill="white" transform="translate(641 458)"/>
</clipPath>
<clipPath id="clip4_12_346">
<rect width="156" height="99" fill="white" transform="translate(480 465.749) rotate(-2.84717)"/>
</clipPath>
<clipPath id="clip5_12_346">
<rect width="147" height="99" fill="white" transform="translate(326 484.422) rotate(-6.80667)"/>
</clipPath>
<clipPath id="clip6_12_346">
<rect width="144" height="101" fill="white" transform="translate(31 563.27) rotate(-15)"/>
</clipPath>
<clipPath id="clip7_12_346">
<rect width="139" height="102" fill="white" transform="translate(179 521.976) rotate(-15)"/>
</clipPath>
<clipPath id="clip8_12_346">
<rect width="159" height="103" fill="white" transform="translate(1253.29 511) rotate(11.3611)"/>
</clipPath>
</defs>
</svg>
