<svg width="111" height="111" viewBox="0 0 111 111" fill="none" xmlns="http://www.w3.org/2000/svg">
<path d="M55.5039 9.25C49.4303 9.25 43.4161 10.4463 37.8048 12.7706C32.1935 15.0949 27.0949 18.5016 22.8002 22.7963C14.1267 31.4699 9.25391 43.2337 9.25391 55.5C9.25391 67.7663 14.1267 79.5301 22.8002 88.2037C27.0949 92.4984 32.1935 95.9052 37.8048 98.2294C43.4161 100.554 49.4303 101.75 55.5039 101.75C67.7702 101.75 79.534 96.8772 88.2076 88.2037C96.8811 79.5301 101.754 67.7663 101.754 55.5C101.754 49.4264 100.558 43.4122 98.2333 37.8009C95.9091 32.1896 92.5023 27.091 88.2076 22.7963C83.9129 18.5016 78.8143 15.0949 73.203 12.7706C67.5917 10.4463 61.5775 9.25 55.5039 9.25ZM74.9289 74.925L50.8789 60.125V32.375H57.8164V56.425L78.6289 68.9125L74.9289 74.925Z" fill="#1C319F"/>
</svg>
