<svg width="213" height="213" viewBox="0 0 213 213" fill="none" xmlns="http://www.w3.org/2000/svg">
    <g clip-path="url(#clip0_443_8917)">
    <path fill-rule="evenodd" clip-rule="evenodd" d="M116.716 42.5474C122.344 42.5474 127.742 40.3116 131.721 36.3319C135.701 32.3522 137.937 26.9545 137.937 21.3263C137.937 15.6982 135.701 10.3005 131.721 6.32079C127.742 2.34106 122.344 0.10527 116.716 0.10527C111.088 0.10527 105.69 2.34106 101.71 6.32079C97.7305 10.3005 95.4947 15.6982 95.4947 21.3263C95.4947 26.9545 97.7305 32.3522 101.71 36.3319C105.69 40.3116 111.088 42.5474 116.716 42.5474ZM50.3045 74.379C57.3397 74.379 64.0868 71.5842 69.0614 66.6096C74.0361 61.6349 76.8308 54.8879 76.8308 47.8526C76.8308 40.8174 74.0361 34.0704 69.0614 29.0957C64.0868 24.121 57.3397 21.3263 50.3045 21.3263C43.2693 21.3263 36.5222 24.121 31.5476 29.0957C26.5729 34.0704 23.7782 40.8174 23.7782 47.8526C23.7782 54.8879 26.5729 61.6349 31.5476 66.6096C36.5222 71.5842 43.2693 74.379 50.3045 74.379ZM173.153 69.0737C178.781 69.0737 184.179 66.8379 188.159 62.8582C192.138 58.8785 194.374 53.4808 194.374 47.8526C194.374 42.2245 192.138 36.8268 188.159 32.8471C184.179 28.8674 178.781 26.6316 173.153 26.6316C167.525 26.6316 162.127 28.8674 158.148 32.8471C154.168 36.8268 151.932 42.2245 151.932 47.8526C151.932 53.4808 154.168 58.8785 158.148 62.8582C162.127 66.8379 167.525 69.0737 173.153 69.0737ZM196.295 113.436C200.516 113.436 204.564 111.759 207.549 108.775C210.534 105.79 212.211 101.742 212.211 97.5205C212.211 93.2994 210.534 89.2511 207.549 86.2663C204.564 83.2816 200.516 81.6047 196.295 81.6047C192.074 81.6047 188.025 83.2816 185.041 86.2663C182.056 89.2511 180.379 93.2994 180.379 97.5205C180.379 101.742 182.056 105.79 185.041 108.775C188.025 111.759 192.074 113.436 196.295 113.436ZM26.5263 148.653C33.5615 148.653 40.3086 145.858 45.2833 140.883C50.2579 135.909 53.0526 129.162 53.0526 122.126C53.0526 115.091 50.2579 108.344 45.2833 103.369C40.3086 98.3947 33.5615 95.6 26.5263 95.6C19.4911 95.6 12.744 98.3947 7.76938 103.369C2.79473 108.344 0 115.091 0 122.126C0 129.162 2.79473 135.909 7.76938 140.883C12.744 145.858 19.4911 148.653 26.5263 148.653ZM188.719 157.067C191.533 157.067 194.232 155.949 196.222 153.959C198.211 151.969 199.329 149.27 199.329 146.456C199.329 143.642 198.211 140.943 196.222 138.953C194.232 136.964 191.533 135.846 188.719 135.846C185.905 135.846 183.206 136.964 181.216 138.953C179.226 140.943 178.108 143.642 178.108 146.456C178.108 149.27 179.226 151.969 181.216 153.959C183.206 155.949 185.905 157.067 188.719 157.067ZM84.8842 212.316C93.3265 212.316 101.423 208.962 107.393 202.993C113.362 197.023 116.716 188.926 116.716 180.484C116.716 172.042 113.362 163.945 107.393 157.976C101.423 152.006 93.3265 148.653 84.8842 148.653C76.4419 148.653 68.3455 152.006 62.3759 157.976C56.4063 163.945 53.0526 172.042 53.0526 180.484C53.0526 188.926 56.4063 197.023 62.3759 202.993C68.3455 208.962 76.4419 212.316 84.8842 212.316ZM164.463 180.484C165.87 180.484 167.22 179.925 168.215 178.93C169.209 177.935 169.768 176.586 169.768 175.179C169.768 173.772 169.209 172.422 168.215 171.428C167.22 170.433 165.87 169.874 164.463 169.874C163.056 169.874 161.707 170.433 160.712 171.428C159.717 172.422 159.158 173.772 159.158 175.179C159.158 176.586 159.717 177.935 160.712 178.93C161.707 179.925 163.056 180.484 164.463 180.484Z" fill="url(#paint0_linear_443_8917)"/>
    </g>
    <defs>
    <linearGradient id="paint0_linear_443_8917" x1="-0.653965" y1="106.365" x2="251.235" y2="106.365" gradientUnits="userSpaceOnUse">
    <stop stop-color="#810EF1"/>
    <stop offset="0.4682" stop-color="#494CF7"/>
    <stop offset="1" stop-color="#0598FF"/>
    </linearGradient>
    <clipPath id="clip0_443_8917">
    <rect width="212.211" height="212.211" fill="white" transform="matrix(1 0 0 -1 0 212.316)"/>
    </clipPath>
    </defs>
    </svg>
    