<svg width="900" height="233" viewBox="0 0 900 233" fill="none" xmlns="http://www.w3.org/2000/svg">
    <rect width="900" height="233" fill="#FFF3F5"/>
    <path d="M254.576 207H217V26H254.576V207Z" fill="white" fill-opacity="0.7"/>
    <path d="M315.018 207H277.442V26H315.018V207Z" fill="white" fill-opacity="0.7"/>
    <path d="M421.552 131.25H338.886V101.75H421.552V131.25Z" fill="white" fill-opacity="0.7"/>
    <path d="M435.15 207L498.026 26H546.374L609 207H568.669L555.016 165.25H489.384L475.731 207H435.15ZM545.497 136L522.826 66.75H521.574L498.903 136H545.497Z" fill="white" fill-opacity="0.7"/>
    <g clip-path="url(#clip0_1217_36920)">
    <path d="M352.4 99.589L352.398 99.5977C351.234 107.379 350.654 116.251 350.654 126.21C350.654 136.041 351.234 144.912 352.398 152.821L352.4 152.831C353.699 160.777 356.237 167.579 360.03 173.219L360.034 173.225C363.842 178.755 369.153 183.021 375.943 186.032L375.956 186.038C382.886 188.922 391.924 190.347 403.038 190.347C414.151 190.347 423.127 188.923 429.931 186.037L429.936 186.034C436.853 183.024 442.17 178.757 445.852 173.221C449.648 167.706 452.121 160.965 453.291 153.02C454.584 145.109 455.229 136.236 455.229 126.404C455.229 116.444 454.649 107.508 453.485 99.5993C452.315 91.6521 449.842 84.9093 446.045 79.3931C442.362 73.856 437.044 69.6526 430.126 66.772C423.32 63.755 414.277 62.2673 403.038 62.2673C391.923 62.2673 382.882 63.7562 375.949 66.772C369.157 69.6539 363.843 73.8573 360.034 79.3886C356.237 84.9025 353.699 91.6428 352.4 99.589ZM399.177 157.879H391.724V104.34C391.724 99.8497 392.76 97.3629 394.48 96.3927C395.409 95.8684 396.8 95.4485 398.696 95.1633C400.583 94.8794 402.929 94.7351 405.74 94.7351H414.159V148.274C414.159 152.578 413.023 155.096 411.032 156.213C408.863 157.295 404.951 157.879 399.177 157.879Z" fill="#D00019" stroke="white"/>
    <path d="M528.812 190.347H529.466V189.693V169.645H542.157H542.811V168.991V133.384V132.731H542.157H529.466V60.3069V59.6534H528.812H456.129H455.679L455.518 60.0738L423.899 142.881L423.856 142.994V143.114V168.991V169.645H424.51H487.094V189.693V190.347H487.748H528.812ZM487.094 92.013V132.731H468.418L486.123 92.013H487.094Z" fill="#D00019" stroke="white"/>
    <mask id="mask0_1217_36920" style="mask-type:luminance" maskUnits="userSpaceOnUse" x="519" y="123" width="31" height="54">
    <path d="M550 123.04H519.935V176.624H550V123.04Z" fill="white"/>
    </mask>
    <g mask="url(#mask0_1217_36920)">
    <path d="M532.012 169.543C531.517 169.057 531.221 168.427 531.208 167.726C531.208 166.239 532.548 165.094 534.213 165.023C535.383 164.98 536.724 165.109 537.74 165.452C537.979 165.509 538.205 165.609 538.431 165.738C540.406 166.911 541.055 169.471 539.023 173.033C536.978 176.624 534.467 177.239 532.463 176.109C530.304 174.864 530.572 172.247 532.012 169.543Z" fill="black"/>
    <path d="M536.949 169.586C536.639 169.586 536.314 169.5 536.033 169.299C535.256 168.785 535.044 167.726 535.553 166.954C540.744 158.957 548.278 144.61 546.374 140.119C543.989 134.483 527.341 128.275 521.119 126.358C520.23 126.086 519.737 125.142 520.005 124.241C520.273 123.354 521.204 122.839 522.093 123.111C524.533 123.869 546.035 130.678 549.449 138.788C550.902 142.236 549.464 148.215 545.032 157.069C541.915 163.32 538.487 168.599 538.346 168.828C538.021 169.328 537.499 169.586 536.949 169.586Z" fill="black"/>
    </g>
    <mask id="mask1_1217_36920" style="mask-type:luminance" maskUnits="userSpaceOnUse" x="416" y="120" width="26" height="55">
    <path d="M441.503 120.426H416.667V174.01H441.503V120.426Z" fill="white"/>
    </mask>
    <g mask="url(#mask1_1217_36920)">
    <path d="M432.471 167.022C432.858 166.515 433.083 165.885 433.02 165.214C432.896 163.789 431.611 162.83 430.151 162.926C429.116 162.994 427.943 163.241 427.083 163.679C426.883 163.762 426.683 163.871 426.509 164.008C424.875 165.31 424.525 167.817 426.608 171.023C428.717 174.256 430.987 174.599 432.646 173.325C434.43 171.927 433.968 169.461 432.471 167.022Z" fill="black"/>
    <path d="M427.993 167.543C427.531 167.543 427.07 167.31 426.783 166.858C425.548 164.953 414.783 148.033 416.953 140.497C419.248 132.537 437.274 121.809 439.32 120.617C440.043 120.193 440.941 120.494 441.316 121.289C441.702 122.083 441.428 123.07 440.704 123.481C435.44 126.564 421.407 135.798 419.772 141.484C418.475 146.005 424.862 158.295 429.191 164.981C429.665 165.707 429.502 166.721 428.841 167.242C428.592 167.447 428.292 167.543 427.993 167.543Z" fill="black"/>
    </g>
    <path d="M466.34 112.584C475.003 112.584 482.026 105.563 482.026 96.901C482.026 88.2394 475.003 81.2178 466.34 81.2178C457.677 81.2178 450.654 88.2394 450.654 96.901C450.654 105.563 457.677 112.584 466.34 112.584Z" fill="white"/>
    <path d="M471.569 107.356C477.344 107.356 482.026 102.675 482.026 96.901C482.026 91.1266 477.344 86.4456 471.569 86.4456C465.793 86.4456 461.111 91.1266 461.111 96.901C461.111 102.675 465.793 107.356 471.569 107.356Z" fill="#171717"/>
    <path d="M477.451 94.2871C478.534 94.2871 479.412 93.4094 479.412 92.3267C479.412 91.244 478.534 90.3663 477.451 90.3663C476.368 90.3663 475.49 91.244 475.49 92.3267C475.49 93.4094 476.368 94.2871 477.451 94.2871Z" fill="white"/>
    <path d="M499.02 112.584C507.683 112.584 514.706 105.563 514.706 96.901C514.706 88.2394 507.683 81.2178 499.02 81.2178C490.356 81.2178 483.333 88.2394 483.333 96.901C483.333 105.563 490.356 112.584 499.02 112.584Z" fill="white"/>
    <path d="M504.249 107.356C510.024 107.356 514.706 102.675 514.706 96.901C514.706 91.1266 510.024 86.4456 504.249 86.4456C498.473 86.4456 493.791 91.1266 493.791 96.901C493.791 102.675 498.473 107.356 504.249 107.356Z" fill="#171717"/>
    <path d="M510.131 94.2871C511.214 94.2871 512.091 93.4094 512.091 92.3267C512.091 91.244 511.214 90.3663 510.131 90.3663C509.048 90.3663 508.17 91.244 508.17 92.3267C508.17 93.4094 509.048 94.2871 510.131 94.2871Z" fill="white"/>
    <path fill-rule="evenodd" clip-rule="evenodd" d="M477.228 106.48C477.802 105.906 478.734 105.906 479.308 106.48L482.68 109.851L486.052 106.48C486.626 105.906 487.557 105.906 488.131 106.48C488.706 107.054 488.706 107.985 488.131 108.559L483.719 112.97C483.145 113.545 482.214 113.545 481.64 112.97L477.228 108.559C476.654 107.985 476.654 107.054 477.228 106.48Z" fill="#171717"/>
    </g>
    <defs>
    <clipPath id="clip0_1217_36920">
    <rect width="200" height="132" fill="white" transform="translate(350 59)"/>
    </clipPath>
    </defs>
    </svg>
    