<svg width="999" height="694" viewBox="0 0 999 694" fill="none" xmlns="http://www.w3.org/2000/svg">
<path fill-rule="evenodd" clip-rule="evenodd" d="M49.742 601.26C11.7542 548.384 -11.2429 480.068 5.53649 449.189C11.2432 438.656 21.1234 429.464 33.4737 423.991C54.6821 414.541 82.7045 416.09 109.96 440.101C140.623 467.211 170.093 444.904 157.999 414.954C147.863 389.859 123.333 351.596 111.749 311.216C80.3196 201.591 211.999 126.975 378.771 144.274C521.012 159.042 594.688 137.406 653.032 111.381C749.364 68.419 884.877 28.4004 967.496 61.448C1060.17 98.5233 1042.96 215.016 1257 217.495C1416.45 219.354 1477.43 176.288 1569.08 141.02C1723.25 81.7413 1955.6 78.3849 2100.83 142.931C2184.04 179.903 2212.92 211.402 2426.96 115.977C2523.38 73.0146 2658.89 32.9444 2741.42 65.992C2834.09 103.067 2816.89 219.56 3030.93 222.039C3301.78 225.137 3350.68 -2.53015 3686.43 6.1173e-05C3846.82 1.18771 4006.09 64.9593 3911.89 180.574C3883.53 215.378 3851.59 251.11 3883.44 286.069C3924.24 330.889 4007.11 360.581 3911.97 404.11C3879.18 419.085 3880.71 443.148 3921.34 459.414C3958.05 474.078 3986.5 494.114 4002.09 516.163C4060.94 599.505 4000.73 659.971 3889.91 682.175C3771.27 705.928 3596.57 687.958 3508.59 675.204C3144.55 622.483 3121.3 664.825 2799.94 692.503C2673.96 703.346 2440.93 650.625 2337.87 653.362C2205.68 656.822 2111.73 686.048 2028.77 687.907C1922.9 693.587 1802.72 680.574 1734.58 670.712C1370.54 617.991 1347.29 660.333 1025.93 688.01C899.953 698.854 666.915 646.133 563.854 648.869C415.481 652.742 315.316 689.095 224.86 682.743C150.077 677.476 83.3859 647.992 49.742 601.26Z" fill="#005BE2" fill-opacity="0.04"/>
</svg>
